<svg width="11" height="11" viewBox="0 0 11 11" fill="none" xmlns="http://www.w3.org/2000/svg">
<path d="M0 1.125C0 0.515625 0.492188 0 1.125 0.0234375H4.61719C5.01562 0.0234375 5.39062 0.164062 5.67188 0.445312L9.79688 4.57031C10.3828 5.15625 10.3828 6.11719 9.79688 6.70312L6.67969 9.82031C6.09375 10.4062 5.13281 10.4062 4.54688 9.82031L0.421875 5.69531C0.140625 5.41406 0 5.03906 0 4.64062V1.125ZM2.625 3.375C3.02344 3.375 3.375 3.04688 3.375 2.625C3.375 2.22656 3.02344 1.875 2.625 1.875C2.20312 1.875 1.875 2.22656 1.875 2.625C1.875 3.04688 2.20312 3.375 2.625 3.375Z" fill="white"/>
</svg>
