<svg width="21" height="21" viewBox="0 0 21 21" fill="none" xmlns="http://www.w3.org/2000/svg">
<path d="M3.75 5.25C3.75 4.45312 4.40625 3.75 5.25 3.75C6.04688 3.75 6.75 4.45312 6.75 5.25C6.75 6.09375 6.04688 6.75 5.25 6.75C4.40625 6.75 3.75 6.09375 3.75 5.25ZM9.23438 0C10.0312 0 10.7812 0.328125 11.3438 0.890625L19.5938 9.14062C20.7656 10.3125 20.7656 12.2344 19.5938 13.4062L13.3594 19.6406C12.1875 20.8125 10.2656 20.8125 9.09375 19.6406L0.84375 11.3906C0.28125 10.8281 0 10.0781 0 9.28125V2.25C0 1.03125 0.984375 0 2.25 0H9.23438ZM2.4375 9.79688L10.6875 18.0469C10.9688 18.375 11.4844 18.375 11.7656 18.0469L18 11.8125C18.3281 11.5312 18.3281 11.0156 18 10.7344L9.75 2.48438C9.60938 2.34375 9.42188 2.25 9.23438 2.25H2.25V9.28125C2.25 9.46875 2.29688 9.65625 2.4375 9.79688Z" fill="#292B32"/>
</svg>
