<svg width="21" height="20" viewBox="0 0 21 20" fill="none" xmlns="http://www.w3.org/2000/svg">
<path d="M16.9277 4.0625C17.1777 4.3125 17.3965 4.78125 17.3965 5.125V13.5C17.3965 14.3438 16.709 15 15.8965 15H13.3965V16.5C13.3965 17.3438 12.709 18 11.8965 18H4.89648C4.05273 18 3.39648 17.3438 3.39648 16.5V6.5C3.39648 5.6875 4.05273 5 4.89648 5H7.39648V3.5C7.39648 2.6875 8.05273 2 8.89648 2H14.2715C14.6152 2 15.084 2.21875 15.334 2.46875L16.9277 4.0625ZM11.709 16.5C11.8027 16.5 11.8965 16.4375 11.8965 16.3125V15H8.89648C8.05273 15 7.39648 14.3438 7.39648 13.5V6.5H5.08398C4.95898 6.5 4.89648 6.59375 4.89648 6.6875V16.3125C4.89648 16.4375 4.95898 16.5 5.08398 16.5H11.709ZM15.709 13.5C15.8027 13.5 15.8965 13.4375 15.8965 13.3125V7H13.1465C12.709 7 12.3965 6.6875 12.3965 6.25V3.5H9.08398C8.95898 3.5 8.89648 3.59375 8.89648 3.6875V13.3125C8.89648 13.4375 8.95898 13.5 9.08398 13.5H15.709ZM15.8965 5.5V5.21875C15.8965 5.15625 15.8652 5.125 15.834 5.09375L14.3027 3.5625C14.2715 3.53125 14.2402 3.5 14.1777 3.5H13.8965V5.5H15.8965Z" fill="white"/>
</svg>
