<svg width="20" height="20" viewBox="0 0 20 20" fill="none" xmlns="http://www.w3.org/2000/svg">
<circle cx="10" cy="10" r="10" fill="white"/>
<rect x="1" y="1" width="18" height="18" rx="9" fill="#FFD54F"/>
<path d="M5.83366 9.33333C6.75413 9.33333 7.50033 8.58714 7.50033 7.66667C7.50033 6.74619 6.75413 6 5.83366 6C4.91318 6 4.16699 6.74619 4.16699 7.66667C4.16699 8.58714 4.91318 9.33333 5.83366 9.33333Z" fill="#6D4C41"/>
<path d="M14.1667 9.33333C15.0871 9.33333 15.8333 8.58714 15.8333 7.66667C15.8333 6.74619 15.0871 6 14.1667 6C13.2462 6 12.5 6.74619 12.5 7.66667C12.5 8.58714 13.2462 9.33333 14.1667 9.33333Z" fill="#6D4C41"/>
<path d="M13.141 16.94C12.9217 16.94 12.7025 16.8566 12.5357 16.6887C11.1814 15.3343 8.81974 15.3343 7.4665 16.6887C7.1319 17.0233 6.58946 17.0233 6.25486 16.6887C5.92026 16.3553 5.92026 15.8117 6.25486 15.4771C7.25523 14.4767 8.58564 13.9263 10.0005 13.9263C11.4155 13.9263 12.7459 14.4767 13.7462 15.4782C14.0808 15.8128 14.0808 16.3553 13.7462 16.6899C13.5795 16.8566 13.3603 16.94 13.141 16.94Z" fill="#6D4C41"/>
<path d="M15.5148 10.2282C15.2815 9.89072 14.7198 9.89072 14.4865 10.2282C14.1398 10.7299 13.334 11.9716 13.334 12.6666C13.334 13.5857 14.0815 14.3332 15.0007 14.3332C15.9198 14.3332 16.6673 13.5857 16.6673 12.6666C16.6673 11.9716 15.8615 10.7299 15.5148 10.2282Z" fill="#00BCD4"/>
</svg>
