<svg width="19" height="16" viewBox="0 0 19 16" fill="none" xmlns="http://www.w3.org/2000/svg">
<path d="M18.6992 14.6738C18.875 14.8496 18.9336 15.1426 18.7578 15.3477L18.4648 15.6992C18.3184 15.9043 17.9961 15.9336 17.8203 15.7871L0.300781 2.07617C0.0957031 1.92969 0.0664062 1.63672 0.212891 1.43164L0.505859 1.05078C0.681641 0.875 0.974609 0.816406 1.17969 0.992188L18.6992 14.6738ZM9.5 2.28125C8.41602 2.28125 7.50781 2.89648 7.00977 3.77539L5.89648 2.89648C6.6582 1.69531 7.97656 0.875 9.5 0.875C11.8145 0.875 13.7188 2.7793 13.7188 5.09375C13.7188 6.26562 13.25 7.29102 12.4883 8.05273L11.375 7.17383C11.9316 6.67578 12.3125 5.94336 12.3125 5.09375C12.3125 3.57031 11.0234 2.28125 9.5 2.28125ZM4.34375 14.4688H13.8652L15.3887 15.6699C15.1543 15.8164 14.9199 15.875 14.6562 15.875H4.34375C3.55273 15.875 2.9375 15.2598 2.9375 14.4688V13.7363C2.9375 11.5684 4.69531 9.78125 6.86328 9.81055C7.18555 9.81055 7.50781 9.86914 7.80078 9.98633C7.94727 10.0156 8.09375 10.0449 8.24023 10.1035L10.1738 11.5977C9.93945 11.627 9.73438 11.6562 9.5 11.6562C8.76758 11.6562 8.03516 11.5391 7.33203 11.3047C7.12695 11.2461 6.98047 11.1875 6.86328 11.1875C5.45703 11.1875 4.34375 12.3301 4.34375 13.7363V14.4688Z" fill="#292B32"/>
</svg>
