<svg width="34" height="20" viewBox="0 0 34 20" fill="none" xmlns="http://www.w3.org/2000/svg">
<path d="M16.5846 0C17.8675 0 19.0979 0.498447 20.005 1.38569C20.9122 2.27293 21.4218 3.47629 21.4218 4.73103C21.4218 5.98578 20.9122 7.18914 20.005 8.07638C19.0979 8.96362 17.8675 9.46207 16.5846 9.46207C15.3017 9.46207 14.0714 8.96362 13.1642 8.07638C12.2571 7.18914 11.7474 5.98578 11.7474 4.73103C11.7474 3.47629 12.2571 2.27293 13.1642 1.38569C14.0714 0.498447 15.3017 0 16.5846 0ZM6.91026 3.37931C7.6842 3.37931 8.40287 3.58207 9.02479 3.94703C8.81749 5.88 9.39795 7.79945 10.5865 9.29986C9.89549 10.5975 8.51343 11.4897 6.91026 11.4897C5.81063 11.4897 4.75604 11.0624 3.97848 10.3019C3.20093 9.54143 2.7641 8.50998 2.7641 7.43448C2.7641 6.35898 3.20093 5.32753 3.97848 4.56704C4.75604 3.80655 5.81063 3.37931 6.91026 3.37931ZM26.259 3.37931C27.3586 3.37931 28.4132 3.80655 29.1907 4.56704C29.9683 5.32753 30.4051 6.35898 30.4051 7.43448C30.4051 8.50998 29.9683 9.54143 29.1907 10.3019C28.4132 11.0624 27.3586 11.4897 26.259 11.4897C24.6558 11.4897 23.2737 10.5975 22.5827 9.29986C23.7713 7.79945 24.3517 5.88 24.1444 3.94703C24.7664 3.58207 25.485 3.37931 26.259 3.37931ZM7.60128 17.2345C7.60128 14.4364 11.6231 12.1655 16.5846 12.1655C21.5462 12.1655 25.5679 14.4364 25.5679 17.2345V19.6H7.60128V17.2345ZM0 19.6V17.5724C0 15.6935 2.61208 14.112 6.15013 13.6524C5.33472 14.5716 4.83718 15.8422 4.83718 17.2345V19.6H0ZM33.1692 19.6H28.332V17.2345C28.332 15.8422 27.8345 14.5716 27.0191 13.6524C30.5571 14.112 33.1692 15.6935 33.1692 17.5724V19.6Z" fill="white"/>
</svg>
