<svg width="25" height="24" viewBox="0 0 25 24" fill="none" xmlns="http://www.w3.org/2000/svg">
<path d="M12.3965 3.53125C17.1777 3.53125 21.1152 7.46875 21.1152 12.25C21.1152 17.0664 17.1777 20.9688 12.3965 20.9688C7.58008 20.9688 3.67773 17.0664 3.67773 12.25C3.67773 7.46875 7.58008 3.53125 12.3965 3.53125ZM12.3965 19.2812C16.2637 19.2812 19.4277 16.1523 19.4277 12.25C19.4277 8.38281 16.2637 5.21875 12.3965 5.21875C8.49414 5.21875 5.36523 8.38281 5.36523 12.25C5.36523 16.1523 8.49414 19.2812 12.3965 19.2812ZM13.873 15.625C13.873 16.4688 13.2051 17.1016 12.3965 17.1016C11.5527 17.1016 10.9199 16.4688 10.9199 15.625C10.9199 14.8164 11.5527 14.1484 12.3965 14.1484C13.2051 14.1484 13.873 14.8164 13.873 15.625ZM10.9902 8.20703C10.9902 7.96094 11.166 7.75 11.4121 7.75H13.3457C13.5918 7.75 13.7676 7.96094 13.7676 8.20703L13.5215 12.9883C13.5215 13.1992 13.3105 13.375 13.0996 13.375H11.6582C11.4473 13.375 11.2363 13.1992 11.2363 12.9883L10.9902 8.20703Z" fill="white"/>
</svg>
