<svg width="41" height="40" viewBox="0 0 41 40" fill="none" xmlns="http://www.w3.org/2000/svg">
<rect x="0.935547" width="40" height="40" rx="20" fill="#A0BDF8"/>
<path d="M28.9355 21C28.9355 20.4688 28.4668 20 27.9355 20H22.9355C22.373 20 21.9355 20.4688 21.9355 21V26C21.9355 26.5625 22.373 27 22.9355 27H27.9355C28.4668 27 28.9355 26.5625 28.9355 26V21ZM14.9355 19C12.7168 19 10.9355 20.8125 10.9355 23C10.9355 25.2188 12.7168 27 14.9355 27C17.123 27 18.9355 25.2188 18.9355 23C18.9355 20.8125 17.123 19 14.9355 19ZM27.9043 17C28.6855 17 29.1855 16.1875 28.7793 15.5L25.8105 10.5C25.4043 9.84375 24.4355 9.84375 24.0293 10.5L21.0605 15.5C20.6543 16.1875 21.1543 17 21.9355 17H27.9043Z" fill="white"/>
</svg>
