<svg width="26" height="24" viewBox="0 0 26 24" fill="none" xmlns="http://www.w3.org/2000/svg">
<path d="M25.2 15.3891C25.2 14.6453 24.5438 13.9891 23.8 13.9891H16.8C16.0125 13.9891 15.4 14.6453 15.4 15.3891V22.3891C15.4 23.1766 16.0125 23.7891 16.8 23.7891H23.8C24.5438 23.7891 25.2 23.1766 25.2 22.3891V15.3891ZM5.6 12.5891C2.49375 12.5891 0 15.1266 0 18.1891C0 21.2953 2.49375 23.7891 5.6 23.7891C8.6625 23.7891 11.2 21.2953 11.2 18.1891C11.2 15.1266 8.6625 12.5891 5.6 12.5891ZM23.7563 9.78906C24.85 9.78906 25.55 8.65156 24.9813 7.68906L20.825 0.689062C20.2563 -0.229687 18.9 -0.229687 18.3313 0.689062L14.175 7.68906C13.6063 8.65156 14.3063 9.78906 15.4 9.78906H23.7563Z" fill="white"/>
</svg>
