<svg width="546" height="307" viewBox="0 0 546 307" fill="none" xmlns="http://www.w3.org/2000/svg">
<g clip-path="url(#clip0_3315_72167)">
<rect width="546" height="307" fill="#EBECEF"/>
<rect x="118" y="111" width="309.632" height="302.812" rx="32.7364" fill="#BDC1CF"/>
<rect x="156.193" y="207.844" width="49.1046" height="49.1046" rx="5.45607" fill="#EBECEF"/>
<path d="M195.251 219.992C196.412 220.785 196.924 221.529 197.248 222.898C197.124 224.538 196.433 225.526 195.418 226.759C195.267 226.949 195.115 227.138 194.959 227.334C194.466 227.949 193.968 228.56 193.47 229.172C193.129 229.596 192.788 230.02 192.447 230.445C191.607 231.489 190.763 232.53 189.918 233.57C189.271 234.367 188.628 235.166 187.984 235.966C187.01 237.173 186.029 238.376 185.043 239.574C184.551 240.174 184.062 240.778 183.574 241.382C183.287 241.732 183 242.083 182.712 242.433C182.476 242.723 182.239 243.014 181.996 243.313C181.191 244.128 180.607 244.581 179.527 244.973C177.52 244.786 176.378 244.187 174.831 242.933C174.63 242.774 174.428 242.615 174.22 242.452C173.797 242.116 173.375 241.779 172.955 241.439C172.317 240.925 171.672 240.42 171.026 239.915C170.613 239.586 170.2 239.257 169.788 238.927C169.598 238.779 169.408 238.63 169.211 238.477C167.884 237.391 166.884 236.192 166.237 234.586C166.274 233.316 166.461 232.683 167.196 231.653C167.905 231.018 168.492 230.648 169.464 230.617C171.732 230.934 173.092 232.154 174.774 233.632C175.305 234.088 175.837 234.544 176.371 234.997C176.602 235.2 176.834 235.402 177.073 235.61C177.688 236.144 177.688 236.144 178.609 236.244C178.909 235.864 178.909 235.864 179.216 235.476C179.969 234.522 180.724 233.569 181.479 232.616C181.804 232.206 182.128 231.796 182.452 231.386C184.102 229.297 185.758 227.232 187.541 225.254C188.535 224.115 189.379 222.867 190.252 221.634C191.694 219.961 193.144 219.428 195.251 219.992Z" fill="#636878"/>
<rect x="218.938" y="207.846" width="49.1046" height="49.1046" rx="5.45607" fill="#EBECEF"/>
<rect x="283.047" y="207.846" width="49.1046" height="49.1046" rx="5.45607" fill="#EBECEF"/>
<rect x="345.793" y="207.846" width="49.1046" height="49.1046" rx="5.45607" fill="#EBECEF"/>
<path d="M387.225 240.51C388.023 241.521 388.339 242.083 388.259 243.377C387.701 244.472 387.036 244.907 385.911 245.321C384.795 245.494 383.689 245.518 382.561 245.537C382.242 245.546 381.924 245.555 381.596 245.564C379.411 245.622 377.226 245.638 375.041 245.633C373.29 245.632 371.546 245.688 369.797 245.766C367.53 245.866 365.271 245.908 363.002 245.902C361.802 245.901 360.608 245.918 359.41 245.973C359.174 245.984 358.939 245.995 358.696 246.006C358.254 246.028 357.811 246.052 357.369 246.08C356.096 246.143 355.041 246.066 353.846 245.61C353.049 244.598 352.732 244.037 352.812 242.742C353.378 241.633 354.008 241.192 355.16 240.799C356.517 240.627 357.867 240.612 359.233 240.599C359.616 240.591 359.998 240.583 360.392 240.575C361.473 240.555 362.553 240.54 363.634 240.529C364.08 240.522 364.526 240.516 364.971 240.509C365.665 240.5 366.359 240.493 367.053 240.488C369.31 240.463 371.567 240.395 373.823 240.336C374.679 240.314 375.536 240.293 376.392 240.272C376.671 240.266 376.951 240.259 377.239 240.252C377.79 240.239 378.342 240.226 378.893 240.213C380.086 240.184 381.278 240.152 382.471 240.095C382.842 240.078 383.214 240.061 383.597 240.044C384.067 240.019 384.067 240.019 384.547 239.993C385.525 240.02 386.306 240.175 387.225 240.51Z" fill="#636878"/>
<path d="M386.715 218.72C387.513 219.731 387.829 220.292 387.75 221.587C387.155 222.751 386.589 222.991 385.401 223.53C384.428 223.693 383.467 223.713 382.481 223.722C382.206 223.729 381.93 223.736 381.646 223.743C379.651 223.786 377.658 223.767 375.663 223.74C374.095 223.734 372.532 223.815 370.966 223.889C367.943 224.03 364.927 224.075 361.901 224.081C359.806 224.085 357.721 224.126 355.629 224.242C354.78 224.229 354.129 224.122 353.336 223.819C352.557 222.809 352.223 222.237 352.302 220.952C352.885 219.809 353.501 219.556 354.65 219.008C355.648 218.856 355.648 218.856 356.712 218.835C357.301 218.819 357.301 218.819 357.901 218.802C358.319 218.796 358.736 218.79 359.154 218.785C359.583 218.775 360.013 218.765 360.443 218.754C361.286 218.734 362.13 218.717 362.974 218.703C363.904 218.687 364.834 218.669 365.764 218.647C367.053 218.617 368.342 218.596 369.63 218.577C370.462 218.562 371.294 218.547 372.127 218.532C372.341 218.528 372.555 218.524 372.776 218.52C374.169 218.495 375.561 218.458 376.953 218.412C377.835 218.384 378.717 218.358 379.599 218.331C380.039 218.318 380.48 218.303 380.92 218.287C381.545 218.265 382.17 218.247 382.794 218.228C383.159 218.216 383.523 218.204 383.898 218.192C384.931 218.228 385.747 218.361 386.715 218.72Z" fill="#636878"/>
<path d="M386.928 229.765C387.753 230.79 388.051 231.327 387.938 232.646C387.425 233.693 387.051 233.881 385.997 234.357C384.976 234.501 384.976 234.501 383.805 234.546C383.59 234.555 383.376 234.564 383.155 234.573C381.298 234.643 379.44 234.643 377.582 234.638C375.584 234.638 373.593 234.714 371.597 234.807C369.23 234.916 366.887 234.96 364.517 234.917C363.484 234.91 362.458 234.956 361.427 235.012C361.109 235.029 360.79 235.046 360.462 235.063C359.836 235.098 359.21 235.136 358.584 235.179C356.763 235.279 355.014 235.273 353.33 234.482C352.621 233.47 352.522 232.921 352.597 231.697C353.095 230.721 353.548 230.456 354.541 230.035C355.973 229.629 357.443 229.736 358.919 229.769C359.646 229.775 360.374 229.779 361.101 229.783C361.472 229.785 361.843 229.787 362.226 229.789C363.967 229.781 365.703 229.699 367.443 229.613C370.794 229.452 374.141 229.367 377.496 229.325C378.645 229.31 379.793 229.285 380.942 229.246C381.194 229.238 381.445 229.231 381.704 229.223C382.16 229.208 382.616 229.191 383.072 229.171C384.457 229.13 385.623 229.293 386.928 229.765Z" fill="#636878"/>
<rect x="156.191" y="270.59" width="49.1046" height="49.1046" rx="5.45607" fill="#EBECEF"/>
<rect x="218.936" y="270.59" width="49.1046" height="49.1046" rx="5.45607" fill="#EBECEF"/>
<rect x="283.045" y="270.592" width="49.1046" height="49.1046" rx="5.45607" fill="#EBECEF"/>
<path d="M322.606 284.873C323.767 285.666 324.279 286.41 324.604 287.779C324.48 289.418 323.788 290.407 322.774 291.64C322.622 291.829 322.471 292.019 322.315 292.214C321.822 292.83 321.324 293.441 320.826 294.052C320.484 294.477 320.143 294.901 319.802 295.326C318.962 296.37 318.119 297.411 317.273 298.451C316.627 299.248 315.983 300.047 315.34 300.847C314.365 302.054 313.385 303.257 312.399 304.455C311.906 305.055 311.418 305.658 310.93 306.263C310.643 306.613 310.355 306.964 310.068 307.314C309.831 307.604 309.595 307.895 309.351 308.194C308.547 309.009 307.962 309.462 306.883 309.854C304.875 309.667 303.733 309.068 302.187 307.814C301.985 307.655 301.783 307.496 301.575 307.332C301.152 306.997 300.73 306.66 300.31 306.32C299.672 305.805 299.027 305.3 298.381 304.796C297.968 304.467 297.556 304.138 297.144 303.808C296.953 303.66 296.763 303.511 296.567 303.358C295.24 302.272 294.24 301.073 293.592 299.467C293.63 298.197 293.817 297.564 294.552 296.534C295.261 295.899 295.847 295.529 296.82 295.498C299.088 295.815 300.447 297.035 302.13 298.513C302.661 298.969 303.193 299.425 303.726 299.878C303.958 300.081 304.189 300.283 304.428 300.491C305.043 301.025 305.043 301.025 305.964 301.125C306.265 300.745 306.265 300.745 306.571 300.357C307.325 299.403 308.079 298.45 308.834 297.497C309.159 297.087 309.483 296.677 309.808 296.267C311.458 294.177 313.113 292.113 314.896 290.134C315.891 288.996 316.735 287.748 317.608 286.515C319.049 284.842 320.5 284.309 322.606 284.873Z" fill="#636878"/>
<rect x="345.793" y="270.592" width="49.1046" height="49.1046" rx="5.45607" fill="#EBECEF"/>
<path d="M118 143.736C118 125.657 132.657 111 150.736 111H394.895C412.975 111 427.632 125.657 427.632 143.736V173.745H118V143.736Z" fill="#898E9E"/>
<circle cx="167.106" cy="136.917" r="8.1841" fill="#D9D9D9"/>
<circle cx="209.391" cy="136.917" r="8.1841" fill="#D9D9D9"/>
<circle cx="251.674" cy="136.917" r="8.1841" fill="#D9D9D9"/>
<circle cx="293.96" cy="136.917" r="8.1841" fill="#D9D9D9"/>
<circle cx="336.245" cy="136.917" r="8.1841" fill="#D9D9D9"/>
<circle cx="378.528" cy="136.917" r="8.1841" fill="#D9D9D9"/>
<rect x="160.285" y="89.1758" width="13.6402" height="51.8326" rx="6.82008" fill="white"/>
<rect x="202.568" y="89.1758" width="13.6402" height="51.8326" rx="6.82008" fill="white"/>
<rect x="244.855" y="89.1758" width="13.6402" height="51.8326" rx="6.82008" fill="white"/>
<rect x="287.139" y="89.1758" width="13.6402" height="51.8326" rx="6.82008" fill="white"/>
<rect x="329.422" y="89.1758" width="13.6402" height="51.8326" rx="6.82008" fill="white"/>
<rect x="371.707" y="89.1758" width="13.6402" height="51.8326" rx="6.82008" fill="white"/>
</g>
<defs>
<clipPath id="clip0_3315_72167">
<rect width="546" height="307" fill="white"/>
</clipPath>
</defs>
</svg>
