<svg width="21" height="20" viewBox="0 0 21 20" fill="none" xmlns="http://www.w3.org/2000/svg">
<rect x="0.5" width="20" height="20" rx="10" fill="black" fill-opacity="0.5"/>
<path d="M16.1484 4.54688C16.2891 4.61719 16.3828 4.71094 16.4531 4.85156C16.4766 4.92188 16.5 4.99219 16.5 5.0625V8.4375C16.5 8.76562 16.2422 9 15.9375 9C15.6094 9 15.375 8.76562 15.375 8.4375V6.42188L12.2109 9.58594C11.9766 9.82031 11.625 9.82031 11.4141 9.58594C11.1797 9.375 11.1797 9.02344 11.4141 8.78906L14.5781 5.625H12.5625C12.2344 5.625 12 5.39062 12 5.0625C12 4.75781 12.2344 4.5 12.5625 4.5H15.9375C16.0078 4.5 16.0781 4.52344 16.1484 4.54688ZM4.82812 16.4766C4.6875 16.4062 4.59375 16.2891 4.52344 16.1719C4.5 16.1016 4.5 16.0312 4.5 15.9375V12.5625C4.5 12.2578 4.73438 12 5.0625 12C5.36719 12 5.625 12.2578 5.625 12.5625V14.6016L8.78906 11.4375C9 11.2031 9.35156 11.2031 9.5625 11.4375C9.79688 11.6484 9.79688 12 9.5625 12.2109L6.39844 15.375H8.4375C8.74219 15.375 9 15.6328 9 15.9375C9 16.2656 8.74219 16.5 8.41406 16.5H5.0625C4.96875 16.5 4.89844 16.5 4.82812 16.4766Z" fill="white"/>
</svg>
