<svg width="21" height="20" viewBox="0 0 21 20" fill="none" xmlns="http://www.w3.org/2000/svg">
<path d="M16.9688 9H13.25C12.9375 9 12.6562 8.84375 12.5312 8.5625C12.4375 8.28125 12.5 7.9375 12.7188 7.71875L14 6.4375C12.0312 4.53125 8.90625 4.53125 6.9375 6.46875C5 8.4375 5 11.5938 6.9375 13.5625C8.90625 15.5 12.0625 15.5 14.0312 13.5625C14.4062 13.1562 15.0312 13.1562 15.4375 13.5625C15.8125 13.9375 15.8125 14.5625 15.4375 14.9688C12.6875 17.6875 8.28125 17.6875 5.53125 14.9688C2.8125 12.2188 2.8125 7.8125 5.53125 5.0625C8.25 2.34375 12.6562 2.34375 15.4062 5.03125L16.7188 3.71875C16.9062 3.53125 17.25 3.46875 17.5312 3.5625C17.8125 3.6875 18 3.96875 18 4.25V8.25C18 8.6875 17.6562 9 17.25 9H16.9688Z" fill="white"/>
</svg>
