<svg width="33" height="33" viewBox="0 0 33 33" fill="none" xmlns="http://www.w3.org/2000/svg">
<circle cx="16.9785" cy="16.75" r="16" fill="url(#paint0_linear_6145_23604)"/>
<g clip-path="url(#clip0_6145_23604)">
<path d="M22.8532 10.5407C22.3197 9.95825 21.4903 9.1721 21.1375 10.9472C21.0175 11.5507 20.7371 12.016 20.4969 12.3906C20.2379 11.08 19.4588 9.72345 18.7247 8.8088C18.45 8.4666 17.4753 7.10625 17.2881 4.83045C17.2601 4.4908 16.8567 4.3313 16.6043 4.5604C14.1927 6.7496 12.869 9.7605 12.8199 13.1502C12.8199 13.1502 11.8157 12.3037 11.2701 10.729C11.1232 10.3049 10.5547 10.2241 10.3081 10.599C10.2607 10.671 10.2168 10.7431 10.1772 10.8131C8.31659 14.1031 7.42154 18.0984 8.24899 21.8154C9.63249 28.0402 18.7842 29.7805 23.6291 25.8681C28.3694 22.0403 26.8626 14.9158 22.8532 10.5407Z" fill="#ED694A"/>
<path d="M21.3905 15.0909C20.9965 14.6607 20.3839 14.08 20.1233 15.3912C20.0347 15.8369 19.8275 16.1806 19.6502 16.4573C19.4589 15.4893 18.8834 14.4873 18.3412 13.8117C18.1383 13.559 17.4184 12.5542 17.2801 10.8732C17.2594 10.6223 16.9615 10.5045 16.7751 10.6737C14.9938 12.2907 14.0161 14.5147 13.9798 17.0183C13.9798 17.0183 13.2381 16.3931 12.8352 15.23C12.7267 14.9168 12.3067 14.857 12.1246 15.134C12.0896 15.1871 12.0572 15.2404 12.0279 15.2921C10.6536 17.7222 9.99247 20.6732 10.6036 23.4187C11.6255 28.0165 18.3851 29.3019 21.9637 26.4121C25.4649 23.5848 24.352 18.3225 21.3905 15.0909Z" fill="#F4A32C"/>
<path d="M20.0546 19.2453C19.7879 18.9541 19.3731 18.5609 19.1967 19.4485C19.1367 19.7503 18.9965 19.9829 18.8764 20.1702C18.7469 19.5149 18.3574 18.8366 17.9903 18.3793C17.853 18.2082 17.3656 17.5281 17.2719 16.3901C17.2579 16.2203 17.0563 16.1405 16.9301 16.2551C15.7243 17.3497 15.0624 18.8552 15.0379 20.55C15.0379 20.55 14.5357 20.1267 14.263 19.3394C14.1896 19.1274 13.9053 19.087 13.782 19.2744C13.7583 19.3104 13.7364 19.3465 13.7166 19.3815C12.7863 21.0265 12.3387 23.0241 12.7524 24.8826C13.4442 27.9951 18.02 28.8652 20.4425 26.909C21.272 26.2391 21.7864 25.2951 21.8907 24.251C22.0481 22.6695 21.4395 20.7565 20.0546 19.2453Z" fill="#F4D44E"/>
<path d="M18.8145 23.1004C18.6659 22.9381 18.4349 22.7191 18.3366 23.2136C18.3032 23.3817 18.2251 23.5113 18.1581 23.6157C18.086 23.2506 17.869 22.8727 17.6645 22.6179C17.588 22.5226 17.3164 22.1436 17.2642 21.5097C17.2564 21.415 17.144 21.3707 17.0738 21.4344C16.402 22.0443 16.0332 22.883 16.0196 23.8272C16.0196 23.8272 15.7398 23.5914 15.5879 23.1528C15.5469 23.0346 15.3886 23.0121 15.3199 23.1166C15.3067 23.1366 15.2945 23.1567 15.2835 23.1762C14.7652 24.0927 14.5159 25.2056 14.7464 26.2411C15.2713 28.6026 19.5737 28.531 19.8376 25.8891C19.9252 25.0081 19.5861 23.9423 18.8145 23.1004Z" fill="#EAE9E8"/>
<path d="M15.7453 26.7097C15.5148 25.7834 15.7642 24.7879 16.2825 23.9681C16.2935 23.9506 16.3057 23.9327 16.3189 23.9147C16.3876 23.8213 16.5459 23.8414 16.5868 23.9471C16.7388 24.3395 17.0185 24.5504 17.0185 24.5504C17.0298 23.8564 17.2812 23.2264 17.7429 22.7211C17.6397 22.5781 17.3238 22.2333 17.2642 21.5097C17.2564 21.415 17.144 21.3707 17.0738 21.4344C16.402 22.0443 16.0332 22.883 16.0196 23.8272C16.0196 23.8272 15.7398 23.5914 15.5879 23.1528C15.547 23.0347 15.3886 23.0121 15.3199 23.1166C15.3067 23.1367 15.2945 23.1568 15.2835 23.1763C14.7652 24.0927 14.5159 25.2057 14.7464 26.2411C14.9597 27.2009 15.836 27.7777 16.8048 27.9169C16.2822 27.6602 15.8805 27.2538 15.7453 26.7097Z" fill="#F7E7A1"/>
</g>
<defs>
<linearGradient id="paint0_linear_6145_23604" x1="8.17852" y1="7.95" x2="25.7785" y2="29.55" gradientUnits="userSpaceOnUse">
<stop stop-color="#FFF09F"/>
<stop offset="1" stop-color="#FCCF5A"/>
</linearGradient>
<clipPath id="clip0_6145_23604">
<rect width="25.6" height="25.6" fill="white" transform="translate(4.17773 2.34998)"/>
</clipPath>
</defs>
</svg>
