<svg width="24" height="25" viewBox="0 0 24 25" fill="none" xmlns="http://www.w3.org/2000/svg">
<path d="M12 4.03125C16.7812 4.03125 20.7188 7.96875 20.7188 12.75C20.7188 17.5664 16.7812 21.4688 12 21.4688C7.18359 21.4688 3.28125 17.5664 3.28125 12.75C3.28125 7.96875 7.18359 4.03125 12 4.03125ZM12 19.7812C15.8672 19.7812 19.0312 16.6523 19.0312 12.75C19.0312 12.1875 18.9258 11.625 18.7852 11.0625H18.1523C17.8359 11.0625 17.625 11.3086 17.625 11.625V11.8711C17.625 12.082 17.4844 12.2578 17.3086 12.3633L16.7812 12.6094C16.7109 12.6445 16.6055 12.6797 16.5352 12.6797C16.4297 12.6797 16.2891 12.6445 16.2188 12.6094L15.5859 12.1523C15.4453 12.082 15.2695 12.0469 15.0938 12.1172H15.0234C14.6719 12.2578 14.5312 12.6445 14.7422 12.9609L15.1992 13.6641C15.3047 13.8047 15.4805 13.875 15.6562 13.875H15.9375C16.2539 13.875 16.5 14.1211 16.5 14.4375V14.8242C16.5 14.9648 16.4297 15.0703 16.3594 15.1758L15.7266 16.0547C15.6562 16.125 15.6211 16.1953 15.6211 16.2656L15.4805 17.0742C15.4453 17.1797 15.375 17.2852 15.3047 17.3555C15.0234 17.6367 14.6367 18.0938 14.4258 18.4102L13.9688 19.0781C13.793 19.3594 13.4766 19.5352 13.1602 19.5352C12.7734 19.5352 12.457 19.3242 12.2812 18.9727C12.0703 18.5859 12 18.1641 12 17.7422V16.6875C12 16.3711 11.7539 16.125 11.4375 16.125H10.5234C10.1016 16.125 9.46875 15.8789 9.1875 15.5625C8.80078 15.2109 8.625 14.7188 8.625 14.2266V13.7344C8.625 13.207 8.94141 12.5039 9.36328 12.1875L10.3477 11.4492C10.6641 11.2031 11.0859 11.0977 11.5078 11.0977H11.543C11.7891 11.0977 12.1758 11.168 12.3867 11.2734L12.9141 11.5547C13.0195 11.5898 13.1953 11.625 13.3359 11.5547L14.9883 11.0273C15.1992 10.957 15.375 10.7461 15.375 10.5C15.375 10.1836 15.1289 9.97266 14.8125 9.97266H14.4609C14.3203 9.97266 14.1797 9.90234 14.0742 9.79688L13.8281 9.55078C13.7227 9.44531 13.582 9.41016 13.4414 9.41016H10.2773C9.96094 9.41016 9.71484 9.16406 9.71484 8.84766V8.70703C9.71484 8.46094 9.92578 8.21484 10.1367 8.17969L10.6641 8.03906C10.7695 8.00391 10.9102 7.93359 10.9805 7.82812L11.2617 7.37109C11.3672 7.23047 11.543 7.16016 11.7188 7.16016H12.5625C12.8789 7.16016 13.125 6.91406 13.125 6.59766V5.82422C12.7383 5.78906 12.3516 5.71875 12 5.71875C8.09766 5.71875 4.96875 8.88281 4.96875 12.75C4.96875 16.6523 8.09766 19.7812 12 19.7812Z" fill="#292B32"/>
</svg>
