<svg width="20" height="20" viewBox="0 0 20 20" fill="none" xmlns="http://www.w3.org/2000/svg">
<circle cx="10" cy="10" r="10" fill="white"/>
<rect x="1" y="1" width="18" height="18" rx="9" fill="url(#paint0_linear_13414_8491)"/>
<g clip-path="url(#clip0_13414_8491)">
<path d="M13.6727 6.11926C13.3392 5.75523 12.8209 5.26389 12.6003 6.37333C12.5253 6.75054 12.3501 7.04133 12.2 7.27545C12.0381 6.45633 11.5512 5.60848 11.0924 5.03683C10.9207 4.82295 10.3115 3.97273 10.1945 2.55036C10.177 2.33808 9.92483 2.23839 9.76712 2.38158C8.25987 3.74983 7.43255 5.63164 7.40183 7.75017C7.40183 7.75017 6.77421 7.22114 6.43324 6.23695C6.34143 5.97192 5.98612 5.92136 5.83196 6.1557C5.80237 6.2007 5.77493 6.24576 5.75018 6.28951C4.58727 8.34576 4.02787 10.8428 4.54502 13.1659C5.40971 17.0565 11.1295 18.1441 14.1576 15.6989C17.1203 13.3065 16.1785 8.8537 13.6727 6.11926Z" fill="#ED694A"/>
<path d="M12.7577 8.96316C12.5115 8.69429 12.1286 8.33135 11.9657 9.15082C11.9103 9.42941 11.7809 9.64422 11.67 9.81716C11.5505 9.21213 11.1908 8.58588 10.8519 8.16366C10.7251 8.00569 10.2752 7.37772 10.1887 6.32707C10.1758 6.17025 9.98959 6.09666 9.87309 6.20241C8.75981 7.213 8.14871 8.603 8.12606 10.1678C8.12606 10.1678 7.66246 9.777 7.41065 9.05007C7.34284 8.85432 7.08037 8.81697 6.96653 8.99007C6.94468 9.02329 6.9244 9.0566 6.90612 9.08891C6.04715 10.6077 5.63396 12.452 6.01593 14.168C6.65462 17.0416 10.8794 17.845 13.116 16.0388C15.3042 14.2718 14.6086 10.9829 12.7577 8.96316Z" fill="#F4A32C"/>
<path d="M11.9223 11.5597C11.7556 11.3777 11.4964 11.1319 11.3861 11.6867C11.3486 11.8753 11.261 12.0207 11.1859 12.1377C11.105 11.7282 10.8615 11.3042 10.6321 11.0184C10.5463 10.9115 10.2417 10.4864 10.1831 9.77518C10.1744 9.66903 10.0483 9.61918 9.96947 9.69081C9.21585 10.3749 8.80219 11.3159 8.78685 12.3751C8.78685 12.3751 8.473 12.1106 8.30256 11.6185C8.25666 11.486 8.079 11.4607 8.00194 11.5779C7.98713 11.6003 7.97344 11.6229 7.96103 11.6448C7.37959 12.6729 7.09987 13.9214 7.35844 15.083C7.79078 17.0283 10.6507 17.5721 12.1647 16.3495C12.6832 15.9308 13.0047 15.3408 13.0699 14.6882C13.1683 13.6998 12.7879 12.5042 11.9223 11.5597Z" fill="#F4D44E"/>
<path d="M11.1492 13.9691C11.0563 13.8677 10.9119 13.7308 10.8505 14.0398C10.8296 14.1449 10.7808 14.2259 10.739 14.2911C10.6939 14.063 10.5583 13.8268 10.4304 13.6675C10.3826 13.608 10.2129 13.3711 10.1803 12.9749C10.1754 12.9157 10.1052 12.888 10.0613 12.9279C9.64141 13.309 9.41091 13.8332 9.40238 14.4234C9.40238 14.4234 9.22753 14.276 9.13256 14.0018C9.10697 13.928 9.008 13.9139 8.96509 13.9792C8.95684 13.9917 8.94922 14.0043 8.94234 14.0165C8.61841 14.5893 8.46256 15.2849 8.60662 15.932C8.93469 17.408 11.6237 17.3632 11.7886 15.712C11.8434 15.1614 11.6314 14.4953 11.1492 13.9691Z" fill="#EAE9E8"/>
<path d="M9.23097 16.2249C9.0869 15.646 9.24275 15.0238 9.56668 14.5114C9.57356 14.5005 9.58122 14.4893 9.58943 14.478C9.63237 14.4196 9.73134 14.4322 9.7569 14.4983C9.85187 14.7435 10.0267 14.8754 10.0267 14.8754C10.0337 14.4416 10.1909 14.0479 10.4795 13.732C10.4149 13.6427 10.2175 13.4272 10.1803 12.9749C10.1754 12.9157 10.1052 12.888 10.0612 12.9279C9.6414 13.309 9.4109 13.8332 9.40237 14.4234C9.40237 14.4234 9.22753 14.276 9.13256 14.0019C9.107 13.928 9.008 13.9139 8.96509 13.9792C8.95684 13.9918 8.94922 14.0043 8.94234 14.0165C8.61841 14.5893 8.46256 15.2849 8.60662 15.932C8.73994 16.5319 9.28762 16.8924 9.89312 16.9794C9.5665 16.819 9.31547 16.565 9.23097 16.2249Z" fill="#F7E7A1"/>
</g>
<defs>
<linearGradient id="paint0_linear_13414_8491" x1="5.05" y1="5.05" x2="14.95" y2="17.2" gradientUnits="userSpaceOnUse">
<stop stop-color="#FFF09F"/>
<stop offset="1" stop-color="#FCCF5A"/>
</linearGradient>
<clipPath id="clip0_13414_8491">
<rect width="16" height="16" fill="white" transform="translate(2 1)"/>
</clipPath>
</defs>
</svg>
