<svg width="28" height="28" viewBox="0 0 28 28" fill="none" xmlns="http://www.w3.org/2000/svg">
<path d="M21.8125 7.625C22.3203 7.625 22.75 8.05469 22.75 8.5625C22.75 9.10938 22.3203 9.5 21.8125 9.5H21.3438L20.4062 22.1953C20.2891 23.5234 19.2344 24.5 17.9062 24.5H10.0547C8.72656 24.5 7.67188 23.5234 7.55469 22.1953L6.61719 9.5H6.1875C5.64062 9.5 5.25 9.10938 5.25 8.5625C5.25 8.05469 5.64062 7.625 6.1875 7.625H8.88281L10.3281 5.47656C10.7188 4.89062 11.4219 4.5 12.1641 4.5H15.7969C16.5391 4.5 17.2422 4.89062 17.6328 5.47656L19.0781 7.625H21.8125ZM12.1641 6.375C12.0469 6.375 11.9297 6.45312 11.8906 6.53125L11.1484 7.625H16.8125L16.0703 6.53125C16.0312 6.45312 15.9141 6.375 15.7969 6.375H12.1641ZM19.4688 9.5H8.49219L9.42969 22.0781C9.46875 22.3906 9.74219 22.625 10.0547 22.625H17.9062C18.2188 22.625 18.4922 22.3906 18.5312 22.0781L19.4688 9.5Z" fill="#292B32"/>
</svg>
