<svg width="57" height="56" viewBox="0 0 57 56" fill="none" xmlns="http://www.w3.org/2000/svg">
<path d="M28.5 7.90625C39.6563 7.90625 48.8438 17.0937 48.8438 28.25C48.8438 39.4883 39.6563 48.5938 28.5 48.5938C17.2617 48.5938 8.15625 39.4883 8.15625 28.25C8.15625 17.0937 17.2617 7.90625 28.5 7.90625ZM28.5 45.9688C38.2617 45.9688 46.2188 38.0117 46.2188 28.25C46.2188 18.4883 38.1797 10.5312 28.5 10.5312C18.6562 10.5312 10.7812 18.5703 10.7812 28.25C10.7812 38.0937 18.7383 45.9688 28.5 45.9688ZM40.0664 23.4922L25.3008 38.1758C24.8906 38.5039 24.2344 38.5039 23.9062 38.1758L16.8516 31.0391C16.4414 30.6289 16.4414 30.0547 16.8516 29.6445L17.5078 28.9883C17.918 28.5781 18.5742 28.5781 18.9023 28.9883L24.5625 34.6484L38.0156 21.3594C38.3438 20.9492 39 20.9492 39.4102 21.3594L40.0664 22.0977C40.4766 22.4258 40.4766 23.082 40.0664 23.4922Z" fill="#1054DE"/>
</svg>
