<svg width="48" height="49" viewBox="0 0 48 49" fill="none" xmlns="http://www.w3.org/2000/svg">
<path d="M21.1875 21.4141C21.1875 20.9219 21.5391 20.5 22.0312 20.5H25.8984C26.3906 20.5 26.7422 20.9219 26.7422 21.4141L26.25 29.2891C26.25 29.7109 25.8281 30.0625 25.4062 30.0625H22.5234C22.0312 30.0625 21.6797 29.7812 21.6797 29.2891L21.1875 21.4141ZM26.9531 34C26.9531 35.6875 25.6172 36.9531 24 36.9531C22.3125 36.9531 21.0469 35.6875 21.0469 34C21.0469 32.3828 22.3125 31.0469 24 31.0469C25.6172 31.0469 26.9531 32.3828 26.9531 34ZM26.8828 8.6875L43.7578 38.0078C45.0234 40.2578 43.4062 43 40.8047 43H7.125C4.52344 43 2.90625 40.1875 4.17188 38.0078L21.0469 8.6875C22.3125 6.4375 25.6172 6.50781 26.8828 8.6875ZM7.47656 39.0625C7.26562 39.3438 7.47656 39.625 7.82812 39.625H40.1016C40.4531 39.625 40.6641 39.3438 40.4531 39.0625L24.3516 11.0781C24.1406 10.7969 23.7891 10.7969 23.5781 11.0781L7.47656 39.0625Z" fill="#A5A9B5"/>
</svg>
