<svg width="16" height="17" viewBox="0 0 16 17" fill="none" xmlns="http://www.w3.org/2000/svg">
<path d="M8.17578 15.9141C8.03516 16.0898 7.75391 16.0898 7.57812 15.9141L0.230469 8.56641C0.0546875 8.39062 0.0546875 8.14453 0.230469 7.96875L7.57812 0.621094C7.75391 0.445312 8.03516 0.445312 8.17578 0.621094L8.87891 1.28906C9.05469 1.46484 9.05469 1.74609 8.87891 1.88672L3.42969 7.33594H15.4531C15.6641 7.33594 15.875 7.54688 15.875 7.75781V8.74219C15.875 8.98828 15.6641 9.16406 15.4531 9.16406H3.42969L8.87891 14.6484C9.05469 14.7891 9.05469 15.0703 8.87891 15.2461L8.17578 15.9141Z" fill="white"/>
</svg>
