<svg width="10" height="12" viewBox="0 0 10 12" fill="none" xmlns="http://www.w3.org/2000/svg">
<path d="M4.89795 9.72656C4.5542 9.72656 4.29639 9.46875 4.29639 9.125V7.75C4.29639 7.42773 4.5542 7.14844 4.89795 7.14844C5.22021 7.14844 5.49951 7.42773 5.49951 7.75V9.125C5.49951 9.46875 5.22021 9.72656 4.89795 9.72656ZM9.71045 6.03125V10.8438C9.71045 11.4238 9.23779 11.875 8.6792 11.875H1.1167C0.536621 11.875 0.0854492 11.4238 0.0854492 10.8438V6.03125C0.0854492 5.47266 0.536621 5 1.1167 5H1.8042V3.96875C1.8042 2.27148 3.1792 0.875 4.89795 0.875C6.6167 0.896484 7.9917 2.29297 7.9917 4.01172V5H8.6792C9.23779 5 9.71045 5.47266 9.71045 6.03125ZM2.83545 5H6.96045V3.96875C6.96045 2.85156 6.01514 1.90625 4.89795 1.90625C3.75928 1.90625 2.83545 2.85156 2.83545 3.96875V5ZM8.6792 6.03125H1.1167V10.8438H8.6792V6.03125Z" fill="#292B32"/>
</svg>
