<svg width="16" height="17" viewBox="0 0 16 17" fill="none" xmlns="http://www.w3.org/2000/svg">
<path d="M8 12.1562C7.625 12.1562 7.34375 11.875 7.34375 11.5V10C7.34375 9.64844 7.625 9.34375 8 9.34375C8.35156 9.34375 8.65625 9.64844 8.65625 10V11.5C8.65625 11.875 8.35156 12.1562 8 12.1562ZM13.25 8.125V13.375C13.25 14.0078 12.7344 14.5 12.125 14.5H3.875C3.24219 14.5 2.75 14.0078 2.75 13.375V8.125C2.75 7.51562 3.24219 7 3.875 7H4.625V5.875C4.625 4.02344 6.125 2.5 8 2.5C9.875 2.52344 11.375 4.04688 11.375 5.92188V7H12.125C12.7344 7 13.25 7.51562 13.25 8.125ZM5.75 7H10.25V5.875C10.25 4.65625 9.21875 3.625 8 3.625C6.75781 3.625 5.75 4.65625 5.75 5.875V7ZM12.125 8.125H3.875V13.375H12.125V8.125Z" fill="#292B32"/>
</svg>
