<svg width="34" height="41" viewBox="0 0 34 41" fill="none" xmlns="http://www.w3.org/2000/svg">
<path d="M0.865228 2.53442C0.501953 3.26575 0.501953 4.2231 0.501953 6.13781V35.1976C0.501953 37.1124 0.501953 38.0697 0.865228 38.801C1.18477 39.4443 1.69466 39.9673 2.3218 40.2951C3.03477 40.6677 3.9681 40.6677 5.83475 40.6677H9.16775C11.0344 40.6677 11.9677 40.6677 12.6807 40.2951C13.3078 39.9673 13.8177 39.4443 14.1373 38.801C14.5006 38.0697 14.5006 37.1124 14.5006 35.1976V6.13781C14.5006 4.2231 14.5006 3.26575 14.1373 2.53442C13.8177 1.89113 13.3078 1.36812 12.6807 1.04035C11.9677 0.667725 11.0344 0.667725 9.16775 0.667725H5.83475C3.9681 0.667725 3.03477 0.667725 2.3218 1.04035C1.69466 1.36812 1.18477 1.89113 0.865228 2.53442Z" fill="white"/>
<path d="M19.8633 2.53442C19.5001 3.26575 19.5001 4.2231 19.5001 6.13781V35.1976C19.5001 37.1124 19.5001 38.0697 19.8633 38.801C20.1829 39.4443 20.6928 39.9673 21.3199 40.2951C22.0329 40.6677 22.9662 40.6677 24.8329 40.6677H28.1659C30.0325 40.6677 30.9658 40.6677 31.6788 40.2951C32.3059 39.9673 32.8158 39.4443 33.1354 38.801C33.4987 38.0697 33.4987 37.1124 33.4987 35.1976V6.13781C33.4987 4.2231 33.4987 3.26575 33.1354 2.53442C32.8158 1.89113 32.3059 1.36812 31.6788 1.04035C30.9658 0.667725 30.0325 0.667725 28.1659 0.667725H24.8329C22.9662 0.667725 22.0329 0.667725 21.3199 1.04035C20.6928 1.36812 20.1829 1.89113 19.8633 2.53442Z" fill="white"/>
</svg>
