<svg width="33" height="32" viewBox="0 0 33 32" fill="none" xmlns="http://www.w3.org/2000/svg">
<path d="M16.5 4.28571C23.1094 4.28571 28.5 9.67633 28.5 16.2857C28.5 22.942 23.1094 28.2857 16.5 28.2857C9.84375 28.2857 4.5 22.942 4.5 16.2857C4.5 9.67633 9.84375 4.28571 16.5 4.28571ZM16.5 26.0357C21.8438 26.0357 26.25 21.6763 26.25 16.2857C26.25 10.942 21.8438 6.53571 16.5 6.53571C11.1094 6.53571 6.75 10.942 6.75 16.2857C6.75 21.6763 11.1094 26.0357 16.5 26.0357ZM16.5 18.5357C15.8438 18.5357 15.375 18.067 15.375 17.4107V11.4107C15.375 10.8013 15.8438 10.2857 16.5 10.2857C17.1094 10.2857 17.625 10.8013 17.625 11.4107V17.4107C17.625 18.067 17.1094 18.5357 16.5 18.5357ZM16.5 20.1295C17.2969 20.1295 17.9531 20.7857 17.9531 21.5826C17.9531 22.3795 17.2969 23.0357 16.5 23.0357C15.6562 23.0357 15 22.3795 15 21.5826C15 20.7857 15.6562 20.1295 16.5 20.1295Z" fill="white"/>
</svg>
