<svg width="20" height="20" viewBox="0 0 20 20" fill="none" xmlns="http://www.w3.org/2000/svg">
<path d="M16.5312 4.0625C16.8125 4.34375 17 4.71875 17 5.125V13.5C17 14.3438 16.3125 15 15.5 15H13V16.5C13 17.3438 12.3125 18 11.5 18H4.5C3.65625 18 3 17.3438 3 16.5V6.5C3 5.6875 3.65625 5 4.5 5H7V3.5C7 2.6875 7.65625 2 8.5 2H13.875C14.2812 2 14.6562 2.1875 14.9375 2.46875L16.5312 4.0625ZM11.3125 16.5C11.4062 16.5 11.5 16.4375 11.5 16.3125V15H8.5C7.65625 15 7 14.3438 7 13.5V6.5H4.6875C4.5625 6.5 4.5 6.59375 4.5 6.6875V16.3125C4.5 16.4375 4.5625 16.5 4.6875 16.5H11.3125ZM15.3125 13.5C15.4062 13.5 15.5 13.4375 15.5 13.3125V7H12.75C12.3125 7 12 6.6875 12 6.25V3.5H8.6875C8.5625 3.5 8.5 3.59375 8.5 3.6875V13.3125C8.5 13.4375 8.5625 13.5 8.6875 13.5H15.3125ZM15.5 5.5V5.21875C15.5 5.15625 15.4688 5.125 15.4375 5.09375L13.9062 3.5625C13.875 3.53125 13.8438 3.5 13.7812 3.5H13.5V5.5H15.5Z" fill="#292B32"/>
</svg>
