<svg width="32" height="32" viewBox="0 0 32 32" fill="none" xmlns="http://www.w3.org/2000/svg">
<path d="M16 7.28564C10.1875 7.28564 5.5 10.9888 5.5 15.5356C5.5 17.3169 6.20312 19.0044 7.5625 20.4575L8.17188 21.1138L7.84375 22.0044C7.32812 23.3638 6.53125 24.5825 5.96875 25.2856C8.03125 25.0513 9.67188 24.1606 10.75 23.4106L11.3594 22.9888L12.0625 23.2231C13.3281 23.5981 14.6406 23.7856 16 23.7856C21.7656 23.7856 26.5 20.0825 26.5 15.5356C26.5 10.9888 21.7656 7.28564 16 7.28564ZM16 5.78564C22.6094 5.78564 28 10.1919 28 15.5356C28 20.9263 22.6094 25.2856 16 25.2856C14.4531 25.2856 13 25.0513 11.6406 24.6294C10.2344 25.6138 7.98438 26.7856 5.07812 26.7856C4.65625 26.7856 4.23438 26.5513 4.04688 26.1294C3.90625 25.7075 3.95312 25.2388 4.28125 24.9106C4.32812 24.9106 5.78125 23.3169 6.4375 21.4888C4.89062 19.8481 4 17.7856 4 15.5356C4 10.1919 9.34375 5.78564 16 5.78564Z" fill="white"/>
</svg>
