<svg width="17" height="19" viewBox="0 0 17 19" fill="none" xmlns="http://www.w3.org/2000/svg">
<path d="M5.0332 11.5C4.54102 11.5 4.18945 11.1484 4.18945 10.6562C4.18945 10.1992 4.54102 9.8125 5.0332 9.8125H12.3457C12.8027 9.8125 13.1895 10.1992 13.1895 10.6562C13.1895 11.1484 12.8027 11.5 12.3457 11.5H5.0332ZM5.0332 14.875C4.54102 14.875 4.18945 14.5234 4.18945 14.0312C4.18945 13.5742 4.54102 13.1875 5.0332 13.1875H8.9707C9.42773 13.1875 9.81445 13.5742 9.81445 14.0312C9.81445 14.5234 9.42773 14.875 8.9707 14.875H5.0332ZM5.0332 8.125C4.54102 8.125 4.18945 7.77344 4.18945 7.28125C4.18945 6.82422 4.54102 6.4375 5.0332 6.4375H12.3457C12.8027 6.4375 13.1895 6.82422 13.1895 7.28125C13.1895 7.77344 12.8027 8.125 12.3457 8.125H5.0332ZM14.3145 0.25C15.5449 0.25 16.5645 1.26953 16.5645 2.5V16C16.5645 17.2656 15.5449 18.25 14.3145 18.25H3.06445C1.79883 18.25 0.814453 17.2656 0.814453 16V2.5C0.814453 1.26953 1.79883 0.25 3.06445 0.25H14.3145ZM14.877 16V4.75H2.50195V16C2.50195 16.3164 2.74805 16.5625 3.06445 16.5625H14.3145C14.5957 16.5625 14.877 16.3164 14.877 16Z" fill="#292B32"/>
</svg>
