<svg width="77" height="77" viewBox="0 0 77 77" fill="none" xmlns="http://www.w3.org/2000/svg">
<g opacity="0.3">
<g filter="url(#filter0_dd_1654_32193)">
<path fill-rule="evenodd" clip-rule="evenodd" d="M70.5 38C70.5 55.6731 56.1731 70 38.5 70C20.8269 70 6.5 55.6731 6.5 38C6.5 20.3269 20.8269 6 38.5 6C56.1731 6 70.5 20.3269 70.5 38ZM74.5 38C74.5 57.8823 58.3823 74 38.5 74C18.6177 74 2.5 57.8823 2.5 38C2.5 18.1177 18.6177 2 38.5 2C58.3823 2 74.5 18.1177 74.5 38ZM38.5 68C55.0685 68 68.5 54.5685 68.5 38C68.5 21.4315 55.0685 8 38.5 8C21.9315 8 8.5 21.4315 8.5 38C8.5 54.5685 21.9315 68 38.5 68Z" fill="white"/>
</g>
<path d="M32.5234 32.8647C32.6992 33.0405 32.8164 33.2163 32.8164 33.5093C32.8164 33.6851 32.7578 33.9194 32.6406 34.0366C31.5859 35.3257 31 36.9077 31 38.6655C31 40.3647 31.5859 41.9468 32.6406 43.2358C32.7578 43.353 32.8164 43.5874 32.8164 43.7632C32.8164 44.0562 32.6992 44.2319 32.5234 44.4077L31.8789 45.0522C31.7031 45.228 31.4688 45.3452 31.2344 45.3452C30.9414 45.3452 30.6484 45.228 30.4727 44.9937C29.0078 43.2944 28.1875 41.0679 28.1875 38.6069C28.1875 36.2046 29.0078 33.978 30.4727 32.2788C30.6484 32.0444 30.9414 31.9272 31.2344 31.9272C31.4688 31.9272 31.7031 32.0444 31.8789 32.2202L32.5234 32.8647ZM27.8945 28.2944C28.2461 28.646 28.2461 29.1733 27.8945 29.5835C25.7266 31.9858 24.4375 35.1499 24.4375 38.6655C24.4375 42.1226 25.7266 45.2866 27.8945 47.689C28.2461 48.0991 28.2461 48.6265 27.8945 48.978L27.25 49.6226C27.0742 49.7983 26.8398 49.9155 26.5469 49.9155C26.2539 49.9155 26.0195 49.7397 25.8438 49.564C23.0898 46.5171 21.625 42.7085 21.625 38.6069C21.625 34.564 23.0898 30.6968 25.8438 27.7085C26.0195 27.5327 26.2539 27.4155 26.5469 27.4155C26.8398 27.4155 27.0742 27.4741 27.25 27.6499L27.8945 28.2944ZM51.0977 27.7085C53.8516 30.6968 55.375 34.564 55.375 38.6069C55.375 42.7085 53.8516 46.5171 51.0977 49.564C50.9219 49.7397 50.6875 49.8569 50.3945 49.8569C50.1016 49.8569 49.8672 49.7983 49.75 49.6226L49.0469 48.978C48.6953 48.6265 48.6953 48.0991 49.0469 47.689C51.2148 45.2866 52.5039 42.1226 52.5039 38.6069C52.5039 35.1499 51.2148 31.9858 49.0469 29.5835C48.6953 29.1733 48.6953 28.646 49.0469 28.2944L49.75 27.6499C49.8672 27.4741 50.1016 27.3569 50.3945 27.3569C50.6875 27.3569 50.9219 27.5327 51.0977 27.7085ZM38.5 35.3257C40.2578 35.3257 41.7812 36.8491 41.7812 38.6069C41.7812 40.4233 40.2578 41.8882 38.5 41.8882C36.6836 41.8882 35.2188 40.4233 35.2188 38.6069C35.2188 36.8491 36.6836 35.3257 38.5 35.3257ZM45.0625 32.2202C45.2383 32.0444 45.4727 31.9272 45.707 31.9272C46 31.9272 46.293 32.0444 46.4688 32.2788C47.9336 33.978 48.7539 36.2046 48.7539 38.6655C48.7539 41.0679 47.9336 43.2944 46.4688 44.9937C46.293 45.228 46 45.3452 45.707 45.3452C45.4727 45.3452 45.2383 45.228 45.0625 45.0522L44.418 44.4077C44.2422 44.2319 44.125 44.0562 44.125 43.7632C44.125 43.5874 44.1836 43.353 44.3008 43.2358C45.3555 41.9468 45.9414 40.3647 45.9414 38.6069C45.9414 36.9077 45.3555 35.3257 44.3008 34.0366C44.1836 33.9194 44.125 33.6851 44.125 33.5093C44.125 33.2163 44.2422 33.0405 44.418 32.8647L45.0625 32.2202Z" fill="#FF305A"/>
</g>
<defs>
<filter id="filter0_dd_1654_32193" x="0.5" y="0.5" width="76" height="76" filterUnits="userSpaceOnUse" color-interpolation-filters="sRGB">
<feFlood flood-opacity="0" result="BackgroundImageFix"/>
<feColorMatrix in="SourceAlpha" type="matrix" values="0 0 0 0 0 0 0 0 0 0 0 0 0 0 0 0 0 0 127 0" result="hardAlpha"/>
<feOffset dy="0.5"/>
<feGaussianBlur stdDeviation="1"/>
<feColorMatrix type="matrix" values="0 0 0 0 0.376471 0 0 0 0 0.380392 0 0 0 0 0.439216 0 0 0 0.16 0"/>
<feBlend mode="normal" in2="BackgroundImageFix" result="effect1_dropShadow_1654_32193"/>
<feColorMatrix in="SourceAlpha" type="matrix" values="0 0 0 0 0 0 0 0 0 0 0 0 0 0 0 0 0 0 127 0" result="hardAlpha"/>
<feOffset/>
<feGaussianBlur stdDeviation="0.5"/>
<feColorMatrix type="matrix" values="0 0 0 0 0.156863 0 0 0 0 0.160784 0 0 0 0 0.239216 0 0 0 0.08 0"/>
<feBlend mode="normal" in2="effect1_dropShadow_1654_32193" result="effect2_dropShadow_1654_32193"/>
<feBlend mode="normal" in="SourceGraphic" in2="effect2_dropShadow_1654_32193" result="shape"/>
</filter>
</defs>
</svg>
