<svg width="20" height="16" viewBox="0 0 20 16" fill="none" xmlns="http://www.w3.org/2000/svg">
<path d="M19.2871 5.62109C19.4043 5.73828 19.4043 5.91406 19.2871 6.03125L15.4785 9.86914C15.3613 9.98633 15.1562 9.98633 15.0391 9.86914L12.9004 7.67188C12.7832 7.55469 12.7832 7.37891 12.9004 7.26172L13.457 6.67578C13.5742 6.55859 13.75 6.55859 13.8672 6.67578L15.2734 8.08203L18.291 5.03516C18.4082 4.91797 18.584 4.91797 18.7012 5.03516L19.2871 5.62109ZM7.1875 9.3125C4.84375 9.3125 2.96875 7.4375 2.96875 5.09375C2.96875 2.7793 4.84375 0.875 7.1875 0.875C9.50195 0.875 11.4062 2.7793 11.4062 5.09375C11.4062 7.4375 9.50195 9.3125 7.1875 9.3125ZM7.1875 2.28125C5.63477 2.28125 4.375 3.57031 4.375 5.09375C4.375 6.64648 5.63477 7.90625 7.1875 7.90625C8.71094 7.90625 10 6.64648 10 5.09375C10 3.57031 8.71094 2.28125 7.1875 2.28125ZM9.79492 9.78125C11.9629 9.78125 13.75 11.5684 13.75 13.7363V14.4688C13.75 15.2598 13.1055 15.875 12.3438 15.875H2.03125C1.24023 15.875 0.625 15.2598 0.625 14.4688V13.7363C0.625 11.5684 2.38281 9.78125 4.55078 9.78125C5.40039 9.78125 5.78125 10.25 7.1875 10.25C8.56445 10.25 8.94531 9.78125 9.79492 9.78125ZM12.3438 14.4688V13.7363C12.3438 12.3301 11.2012 11.1875 9.79492 11.1875C9.35547 11.1875 8.68164 11.6562 7.1875 11.6562C5.66406 11.6562 4.99023 11.1875 4.55078 11.1875C3.14453 11.1875 2.03125 12.3301 2.03125 13.7363V14.4688H12.3438Z" fill="#292B32"/>
</svg>
