<svg width="16" height="17" viewBox="0 0 16 17" fill="none" xmlns="http://www.w3.org/2000/svg">
<path d="M14.625 0.375C15.2227 0.375 15.75 0.902344 15.75 1.5V15C15.75 15.6328 15.2227 16.125 14.625 16.125H1.125C0.492188 16.125 0 15.6328 0 15V1.5C0 0.902344 0.492188 0.375 1.125 0.375H14.625ZM14.0625 14.4375V12.1875H1.6875V14.4375H14.0625ZM14.0625 10.5V2.0625H1.6875V10.5H2.25L4.46484 7.44141C4.74609 7.05469 5.34375 7.05469 5.625 7.44141L6.78516 9.02344L9.03516 6.24609C9.28125 5.92969 9.80859 5.92969 10.0547 6.24609L13.5 10.5H14.0625ZM5.0625 5.4375C4.42969 5.4375 3.9375 4.94531 3.9375 4.3125C3.9375 3.71484 4.42969 3.1875 5.0625 3.1875C5.66016 3.1875 6.1875 3.71484 6.1875 4.3125C6.1875 4.94531 5.66016 5.4375 5.0625 5.4375Z" fill="#292B32"/>
</svg>
