<svg width="60" height="60" viewBox="0 0 60 60" fill="none" xmlns="http://www.w3.org/2000/svg">
<path d="M22.0898 42.168L18.6094 38.793C17.7656 37.9492 17.5547 36.7891 17.8711 35.7344C18.1875 34.6797 19.1367 33.8359 20.1914 33.7305L25.1484 32.9922L27.3633 28.5625C27.7852 27.5078 28.8398 26.875 30 26.875C31.0547 26.875 32.1094 27.5078 32.6367 28.5625L34.7461 32.9922L39.7031 33.7305C40.7578 33.9414 41.707 34.6797 42.0234 35.7344C42.4453 36.7891 42.1289 37.9492 41.2852 38.793L37.8047 42.168L38.6484 47.125C38.8594 48.1797 38.332 49.3398 37.4883 49.9727C36.5391 50.6055 35.3789 50.7109 34.3242 50.1836L30 47.8633L25.5703 50.1836C25.1484 50.3945 24.6211 50.6055 24.1992 50.6055C23.5664 50.6055 23.0391 50.3945 22.5117 49.9727C21.5625 49.3398 21.1406 48.1797 21.2461 47.125L22.0898 42.168ZM27.3633 36.0508L21.5625 36.8945L25.7812 41.0078L24.7266 46.8086L30 44.0664L35.168 46.8086L34.1133 41.0078L38.332 36.8945L32.5312 36.0508L30 30.7773L27.3633 36.0508ZM48.5625 10C51.3047 10 53.625 12.3203 53.625 15.0625V52.1875C53.625 55.0352 51.3047 57.25 48.5625 57.25H11.4375C8.58984 57.25 6.375 55.0352 6.375 52.1875V15.0625C6.375 12.3203 8.58984 10 11.4375 10H16.5V4.09375C16.5 3.67188 16.8164 3.25 17.3438 3.25H19.0312C19.4531 3.25 19.875 3.67188 19.875 4.09375V10H40.125V4.09375C40.125 3.67188 40.4414 3.25 40.9688 3.25H42.6562C43.0781 3.25 43.5 3.67188 43.5 4.09375V10H48.5625ZM50.25 52.1875V23.5H9.75V52.1875C9.75 53.1367 10.4883 53.875 11.4375 53.875H48.5625C49.4062 53.875 50.25 53.1367 50.25 52.1875ZM50.25 20.125V15.0625C50.25 14.2188 49.4062 13.375 48.5625 13.375H11.4375C10.4883 13.375 9.75 14.2188 9.75 15.0625V20.125H50.25Z" fill="#EBECEF"/>
</svg>
