<svg width="20" height="20" viewBox="0 0 20 20" fill="none" xmlns="http://www.w3.org/2000/svg">
<g clip-path="url(#clip0_2243_5777)">
<path d="M19.7605 4.38946C19.9271 4.38946 20.0938 4.55608 20.0938 4.7227V5.3892C20.0938 5.57665 19.9271 5.72244 19.7605 5.72244H16.7613V8.72166C16.7613 8.90911 16.5947 9.05491 16.428 9.05491H15.7615C15.5741 9.05491 15.4283 8.90911 15.4283 8.72166V5.72244H12.4291C12.2416 5.72244 12.0958 5.57665 12.0958 5.3892V4.7227C12.0958 4.55608 12.2416 4.38946 12.4291 4.38946H15.4283V1.39024C15.4283 1.22361 15.5741 1.05699 15.7615 1.05699H16.428C16.5947 1.05699 16.7613 1.22361 16.7613 1.39024V4.38946H19.7605Z" fill="white"/>
<path d="M10.7668 4.17597C10.7075 4.35195 10.6743 4.53631 10.6743 4.7227V5.3892C10.6743 5.5087 10.6857 5.62542 10.7082 5.73806H2.17654C1.91619 5.73806 1.65584 5.99841 1.65584 6.25876L1.68839 16.6727L4.12916 13.6136C4.25933 13.4834 4.42205 13.3858 4.61731 13.3858C4.81257 13.3858 4.97529 13.4834 5.10547 13.6136L6.30958 15.1106L9.7592 10.4243C9.88938 10.2616 10.0521 10.164 10.2799 10.164C10.4752 10.164 10.6379 10.2616 10.7355 10.4243L15.194 16.4775V10.3814C15.372 10.4418 15.5625 10.4764 15.7615 10.4764H16.428C16.5384 10.4764 16.6483 10.4652 16.7561 10.4439V16.6727C16.7561 17.8443 15.8123 18.7555 14.6733 18.7555H2.17654C1.03751 18.7555 0.09375 17.8443 0.09375 16.6727V6.25876C0.09375 5.11974 1.03751 4.17597 2.17654 4.17597H10.7668Z" fill="white"/>
<path d="M5.07292 7.03981C5.91906 7.03981 6.63502 7.75577 6.63502 8.6019C6.63502 9.48058 5.91906 10.164 5.07292 10.164C4.19424 10.164 3.51083 9.48058 3.51083 8.6019C3.51083 7.75577 4.19424 7.03981 5.07292 7.03981Z" fill="white"/>
<path d="M15.4283 4.31656C16.2136 4.61941 16.7561 5.38036 16.7561 6.25876V8.76462C16.7329 8.93077 16.5816 9.05491 16.428 9.05491H15.7615C15.5741 9.05491 15.4283 8.90911 15.4283 8.72166V5.72244H12.4291C12.2416 5.72244 12.0958 5.57665 12.0958 5.3892V4.7227C12.0958 4.55608 12.2416 4.38946 12.4291 4.38946H15.4283V4.31656Z" fill="white"/>
</g>
<defs>
<clipPath id="clip0_2243_5777">
<rect width="20" height="20" fill="white"/>
</clipPath>
</defs>
</svg>
