<svg width="20" height="21" viewBox="0 0 20 21" fill="none" xmlns="http://www.w3.org/2000/svg">
<path d="M10 0.8125C15.3125 0.8125 19.6875 5.1875 19.6875 10.5C19.6875 15.8516 15.3125 20.1875 10 20.1875C4.64844 20.1875 0.3125 15.8516 0.3125 10.5C0.3125 5.1875 4.64844 0.8125 10 0.8125ZM10 18.3125C14.2969 18.3125 17.8125 14.8359 17.8125 10.5C17.8125 6.20312 14.2969 2.6875 10 2.6875C5.66406 2.6875 2.1875 6.20312 2.1875 10.5C2.1875 14.8359 5.66406 18.3125 10 18.3125ZM11.6406 14.25C11.6406 15.1875 10.8984 15.8906 10 15.8906C9.0625 15.8906 8.35938 15.1875 8.35938 14.25C8.35938 13.3516 9.0625 12.6094 10 12.6094C10.8984 12.6094 11.6406 13.3516 11.6406 14.25ZM8.4375 6.00781C8.4375 5.73438 8.63281 5.5 8.90625 5.5H11.0547C11.3281 5.5 11.5234 5.73438 11.5234 6.00781L11.25 11.3203C11.25 11.5547 11.0156 11.75 10.7812 11.75H9.17969C8.94531 11.75 8.71094 11.5547 8.71094 11.3203L8.4375 6.00781Z" fill="white"/>
</svg>
