<svg width="16" height="16" viewBox="0 0 16 16" fill="none" xmlns="http://www.w3.org/2000/svg">
<path d="M4.375 8.875C4.15625 8.875 4 8.71875 4 8.5V7.5C4 7.3125 4.15625 7.125 4.375 7.125H11.625C11.8125 7.125 12 7.3125 12 7.5V8.5C12 8.71875 11.8125 8.875 11.625 8.875H4.375ZM15.75 8C15.75 12.2812 12.2812 15.75 8 15.75C3.71875 15.75 0.25 12.2812 0.25 8C0.25 3.71875 3.71875 0.25 8 0.25C12.2812 0.25 15.75 3.71875 15.75 8ZM14.25 8C14.25 4.5625 11.4375 1.75 8 1.75C4.53125 1.75 1.75 4.5625 1.75 8C1.75 11.4688 4.53125 14.25 8 14.25C11.4375 14.25 14.25 11.4688 14.25 8Z" fill="#898E9E"/>
</svg>
