<svg width="20" height="20" viewBox="0 0 20 20" fill="none" xmlns="http://www.w3.org/2000/svg">
<path d="M18 10C18 14.4183 14.4183 18 10 18C5.58172 18 2 14.4183 2 10C2 5.58172 5.58172 2 10 2C14.4183 2 18 5.58172 18 10ZM3.6 10C3.6 13.5346 6.46538 16.4 10 16.4C13.5346 16.4 16.4 13.5346 16.4 10C16.4 6.46538 13.5346 3.6 10 3.6C6.46538 3.6 3.6 6.46538 3.6 10Z" fill="#EBECEF"/>
<mask id="mask0_3486_35970" style="mask-type:alpha" maskUnits="userSpaceOnUse" x="10" y="2" width="8" height="16">
<rect x="10" y="2" width="8" height="16" fill="#C4C4C4"/>
</mask>
<g mask="url(#mask0_3486_35970)">
<path d="M10 2.8C10 2.35817 10.3591 1.99586 10.7987 2.03997C11.5753 2.11789 12.3377 2.30919 13.0615 2.60896C14.0321 3.011 14.914 3.60028 15.6569 4.34315C16.3997 5.08602 16.989 5.96793 17.391 6.93853C17.7931 7.90914 18 8.94943 18 10C18 11.0506 17.7931 12.0909 17.391 13.0615C16.989 14.0321 16.3997 14.914 15.6569 15.6569C14.914 16.3997 14.0321 16.989 13.0615 17.391C12.3377 17.6908 11.5753 17.8821 10.7987 17.96C10.3591 18.0041 10 17.6418 10 17.2C10 16.7582 10.3595 16.4052 10.7979 16.3501C11.3642 16.2789 11.9197 16.1322 12.4492 15.9128C13.2257 15.5912 13.9312 15.1198 14.5255 14.5255C15.1198 13.9312 15.5912 13.2257 15.9128 12.4492C16.2345 11.6727 16.4 10.8405 16.4 10C16.4 9.15954 16.2345 8.32731 15.9128 7.55083C15.5912 6.77434 15.1198 6.06881 14.5255 5.47452C13.9312 4.88022 13.2257 4.4088 12.4492 4.08717C11.9197 3.86784 11.3642 3.72109 10.7979 3.64994C10.3595 3.59485 10 3.24183 10 2.8Z" fill="#1054DE"/>
</g>
</svg>
