<svg width="20" height="20" viewBox="0 0 20 20" fill="none" xmlns="http://www.w3.org/2000/svg">
<path d="M17.793 11.0254C17.9414 11.8789 17.8301 12.6953 17.459 13.3633C17.5703 14.2539 17.3105 15.1816 16.791 15.8496C16.7539 17.9277 15.4922 19.375 12.6348 19.375C12.375 19.375 12.0781 19.375 11.7812 19.375C7.99609 19.375 6.8457 17.9648 5.17578 17.9277C5.06445 18.4102 4.58203 18.7812 4.0625 18.7812H1.6875C1.01953 18.7812 0.5 18.2617 0.5 17.5938V8.6875C0.5 8.05664 1.01953 7.5 1.6875 7.5H5.32422C6.0293 6.90625 7.03125 5.27344 7.88477 4.41992C8.4043 3.90039 8.25586 0.375 10.5566 0.375C12.6719 0.375 14.082 1.5625 14.082 4.27148C14.082 4.97656 13.9336 5.5332 13.748 6.01562H15.1211C16.9023 6.01562 18.3125 7.53711 18.3125 9.16992C18.3125 9.875 18.127 10.4688 17.793 11.0254ZM15.4922 13.0293C16.3086 12.2871 16.1973 11.1367 15.6777 10.5801C16.0488 10.5801 16.5312 9.875 16.5312 9.20703C16.4941 8.50195 15.9004 7.79688 15.1211 7.79688H11.2617C11.2617 6.38672 12.3008 5.71875 12.3008 4.27148C12.3008 3.38086 12.3008 2.15625 10.5566 2.15625C9.85156 2.86133 10.1855 4.64258 9.14648 5.68164C8.14453 6.68359 6.69727 9.28125 5.62109 9.28125H5.25V16.2207C7.2168 16.2207 8.96094 17.5938 11.5957 17.5938H13.0059C14.3047 17.5938 15.2695 16.9629 14.9727 15.1816C15.5293 14.8477 15.9746 13.8086 15.4922 13.0293ZM3.76562 16.4062C3.76562 15.9238 3.35742 15.5156 2.875 15.5156C2.35547 15.5156 1.98438 15.9238 1.98438 16.4062C1.98438 16.9258 2.35547 17.2969 2.875 17.2969C3.35742 17.2969 3.76562 16.9258 3.76562 16.4062Z" fill="#A5A9B5"/>
</svg>
