<svg width="69" height="60" viewBox="0 0 69 60" fill="none" xmlns="http://www.w3.org/2000/svg">
<path d="M4.54688 3.67188L67.6172 53.0312C68.25 53.5586 68.4609 54.6133 67.8281 55.3516L66.7734 56.6172C66.1406 57.3555 65.0859 57.5664 64.4531 56.9336L1.38281 7.57422C0.644531 7.04688 0.433594 5.99219 1.06641 5.25391L2.12109 3.88281C2.75391 3.25 3.80859 3.03906 4.54688 3.67188ZM53.8008 35.7344L38.5078 23.8164C44.8359 24.6602 50.9531 27.2969 56.0156 31.9375C56.543 32.3594 56.543 33.2031 56.0156 33.7305L54.3281 35.5234C54.1172 35.6289 53.9062 35.7344 53.8008 35.7344ZM64.3477 23.1836C53.2734 13.1641 38.2969 9.68359 24.4805 12.8477L19.5234 9.05078C35.8711 3.88281 54.4336 7.36328 67.8281 19.5977C68.3555 20.0195 68.3555 20.8633 67.8281 21.3906L66.1406 23.1836C65.6133 23.6055 64.875 23.7109 64.3477 23.1836ZM1.06641 19.5977C2.22656 18.543 3.38672 17.5938 4.65234 16.6445L8.76562 19.9141C7.28906 20.8633 5.91797 22.0234 4.54688 23.1836C4.01953 23.7109 3.28125 23.6055 2.75391 23.1836L1.06641 21.3906C0.539062 20.8633 0.539062 20.0195 1.06641 19.5977ZM12.8789 31.9375C14.7773 30.25 16.6758 28.8789 18.7852 27.7188L23.1094 31.0938C20.6836 32.2539 18.4688 33.7305 16.3594 35.6289C15.832 36.0508 15.0938 36.0508 14.5664 35.5234L12.8789 33.7305C12.3516 33.2031 12.3516 32.3594 12.8789 31.9375ZM26.0625 45.4375C26.0625 41.8516 28.2773 38.793 31.4414 37.6328L42.832 46.4922C42.3047 50.6055 38.8242 53.875 34.5 53.875C29.7539 53.875 26.0625 50.1836 26.0625 45.4375ZM34.5 42.0625C32.6016 42.0625 31.125 43.6445 31.125 45.4375C31.125 47.3359 32.6016 48.8125 34.5 48.8125C36.293 48.8125 37.875 47.3359 37.875 45.4375C37.875 43.6445 36.293 42.0625 34.5 42.0625Z" fill="#EBECEF"/>
</svg>
