<svg width="24" height="25" viewBox="0 0 24 25" fill="none" xmlns="http://www.w3.org/2000/svg">
<path d="M20.7188 12.75C20.7188 17.5664 16.7812 21.4688 12 21.4688C7.18359 21.4688 3.28125 17.5664 3.28125 12.75C3.28125 7.96875 7.18359 4.03125 12 4.03125C16.7812 4.03125 20.7188 7.96875 20.7188 12.75ZM10.9805 17.3906L17.4492 10.9219C17.6602 10.7109 17.6602 10.3242 17.4492 10.1133L16.6406 9.33984C16.4297 9.09375 16.0781 9.09375 15.8672 9.33984L10.5938 14.6133L8.09766 12.1523C7.88672 11.9062 7.53516 11.9062 7.32422 12.1523L6.51562 12.9258C6.30469 13.1367 6.30469 13.5234 6.51562 13.7344L10.1719 17.3906C10.3828 17.6016 10.7695 17.6016 10.9805 17.3906Z" fill="#1054DE"/>
</svg>
