<svg width="24" height="18" viewBox="0 0 24 18" fill="none" xmlns="http://www.w3.org/2000/svg">
<path d="M21.1406 0.955078C22.2832 0.955078 23.25 1.92188 23.25 3.06445V15.7207C23.25 16.9072 22.2832 17.8301 21.1406 17.8301H2.85938C1.67285 17.8301 0.75 16.9072 0.75 15.7207V3.06445C0.75 1.92188 1.67285 0.955078 2.85938 0.955078H21.1406ZM20.877 15.7207C21.0088 15.7207 21.1406 15.6328 21.1406 15.457V3.32812C21.1406 3.19629 21.0088 3.06445 20.877 3.06445H3.12305C2.94727 3.06445 2.85938 3.19629 2.85938 3.32812V15.457C2.85938 15.6328 2.94727 15.7207 3.12305 15.7207H20.877ZM6.375 4.82227C7.3418 4.82227 8.13281 5.61328 8.13281 6.58008C8.13281 7.59082 7.3418 8.33789 6.375 8.33789C5.36426 8.33789 4.61719 7.59082 4.61719 6.58008C4.61719 5.61328 5.36426 4.82227 6.375 4.82227ZM4.96875 13.6113V11.502L6.68262 9.78809C6.90234 9.56836 7.20996 9.56836 7.42969 9.78809L9.1875 11.502L14.417 6.27246C14.6367 6.05273 14.9443 6.05273 15.1641 6.27246L19.0312 10.0957V13.6113H4.96875Z" fill="white"/>
</svg>
