<svg width="61" height="60" viewBox="0 0 61 60" fill="none" xmlns="http://www.w3.org/2000/svg">
<path d="M13.0872 22.7223V23.0362H13.4869L18.6117 27.0541H13.0872V44.4648C13.0872 45.2181 13.6731 45.8041 14.4264 45.8041H42.5347L47.5424 49.7277C47.226 49.7856 46.9014 49.8219 46.5693 49.8219H14.4264C11.4131 49.8219 9.0693 47.4782 9.0693 44.4648V19.5729L13.0872 22.7223Z" fill="#A5A9B5"/>
<path d="M51.8427 45.3772C51.6075 46.7695 50.8461 47.9568 49.7752 48.7547L46.0085 45.8041H46.5693C47.2389 45.8041 47.9086 45.2181 47.9086 44.4648V42.2926L51.8427 45.3772Z" fill="#A5A9B5"/>
<path d="M33.957 39.0804L27.8193 43.0418C27.6519 43.1255 27.4845 43.1255 27.3171 43.1255C27.1497 43.1255 27.066 43.1255 26.8985 43.0418C26.6474 42.8744 26.48 42.5396 26.48 42.2047V33.219L33.957 39.0804Z" fill="#A5A9B5"/>
<path fill-rule="evenodd" clip-rule="evenodd" d="M46.5693 12.3219C49.499 12.3219 51.9264 14.7494 51.9264 17.6791V42.7174L47.9086 39.568V27.0541H31.9397L26.8148 23.0362H29.2423L35.9387 16.3398H30.3305L25.0298 21.6383L20.6667 18.2169L22.5459 16.3398H18.2706L13.2964 12.4412C13.6597 12.3644 14.0373 12.3219 14.4264 12.3219H46.5693ZM37.0269 23.0362H42.6351L47.9086 17.8465V17.6791C47.9086 17.0094 47.2389 16.3398 46.5693 16.3398H43.7233L37.0269 23.0362Z" fill="#A5A9B5"/>
<path d="M26.8985 29.9C27.1497 29.7326 27.5682 29.7326 27.8193 29.8163L36.6921 35.592C37.0269 35.7594 37.1943 36.0105 37.1943 36.4291C37.1943 36.7639 37.0269 37.0987 36.7758 37.2661L35.8634 37.8521L26.4968 30.5111C26.5374 30.247 26.6846 30.0427 26.8985 29.9Z" fill="#A5A9B5"/>
<path d="M28.4659 27.0541H22.0876L16.337 22.5465L19.1391 19.7445L28.4659 27.0541Z" fill="#A5A9B5"/>
<path d="M16.0064 17.2877L13.2378 20.117L9.12999 16.8985C9.33149 15.512 10.0593 14.2904 11.1201 13.4582L16.0064 17.2877Z" fill="#A5A9B5"/>
<path d="M4.13068 10.4804C4.80033 9.55964 6.05591 9.39223 6.89296 10.1456L56.4465 48.9849C57.3673 49.6545 57.5347 50.9101 56.7814 51.7471C56.1117 52.6679 54.8561 52.8353 54.0191 52.082L4.46551 13.2427C3.54475 12.573 3.37734 11.3175 4.13068 10.4804Z" fill="#A5A9B5"/>
</svg>
