<svg width="21" height="20" viewBox="0 0 21 20" fill="none" xmlns="http://www.w3.org/2000/svg">
<path d="M17.1523 4.5C17.4023 4.5 17.6523 4.75 17.6523 5V5.5C17.6523 5.78125 17.4023 6 17.1523 6H16.6523L15.9648 16.5938C15.9336 17.375 15.2461 18 14.4648 18H6.80859C6.02734 18 5.33984 17.375 5.30859 16.5938L4.65234 6H4.15234C3.87109 6 3.65234 5.78125 3.65234 5.5V5C3.65234 4.75 3.87109 4.5 4.15234 4.5H6.71484L7.77734 2.75C8.02734 2.34375 8.58984 2 9.05859 2H12.2148C12.6836 2 13.2461 2.34375 13.4961 2.75L14.5586 4.5H17.1523ZM9.05859 3.5L8.46484 4.5H12.8086L12.2148 3.5H9.05859ZM14.4648 16.5L15.1211 6H6.15234L6.80859 16.5H14.4648Z" fill="#FA4D30"/>
</svg>
