<svg width="55" height="48" viewBox="0 0 55 48" fill="none" xmlns="http://www.w3.org/2000/svg">
<path d="M7.25 8.5625C6.30078 8.5625 5.5625 7.82422 5.5625 6.875C5.5625 6.03125 6.30078 5.1875 7.25 5.1875C8.09375 5.1875 8.9375 6.03125 8.9375 6.875C8.9375 7.82422 8.09375 8.5625 7.25 8.5625ZM7.25 13.625C3.45312 13.625 0.5 10.6719 0.5 6.875C0.5 3.18359 3.45312 0.125 7.25 0.125C10.9414 0.125 14 3.18359 14 6.875C14 10.6719 10.9414 13.625 7.25 13.625ZM10.625 6.875C10.625 5.08203 9.04297 3.5 7.25 3.5C5.35156 3.5 3.875 5.08203 3.875 6.875C3.875 8.77344 5.35156 10.25 7.25 10.25C9.04297 10.25 10.625 8.77344 10.625 6.875ZM20.75 6.875C20.75 6.03125 21.4883 5.1875 22.4375 5.1875H52.8125C53.6562 5.1875 54.5 6.03125 54.5 6.875C54.5 7.82422 53.6562 8.5625 52.8125 8.5625H22.4375C21.4883 8.5625 20.75 7.82422 20.75 6.875ZM20.75 23.75C20.75 22.9062 21.4883 22.0625 22.4375 22.0625H52.8125C53.6562 22.0625 54.5 22.9062 54.5 23.75C54.5 24.6992 53.6562 25.4375 52.8125 25.4375H22.4375C21.4883 25.4375 20.75 24.6992 20.75 23.75ZM20.75 40.625C20.75 39.7812 21.4883 38.9375 22.4375 38.9375H52.8125C53.6562 38.9375 54.5 39.7812 54.5 40.625C54.5 41.5742 53.6562 42.3125 52.8125 42.3125H22.4375C21.4883 42.3125 20.75 41.5742 20.75 40.625ZM7.25 17C10.9414 17 14 20.0586 14 23.75C14 27.5469 10.9414 30.5 7.25 30.5C3.45312 30.5 0.5 27.5469 0.5 23.75C0.5 20.0586 3.45312 17 7.25 17ZM3.875 23.75C3.875 25.6484 5.35156 27.125 7.25 27.125C9.04297 27.125 10.625 25.6484 10.625 23.75C10.625 21.957 9.04297 20.375 7.25 20.375C5.35156 20.375 3.875 21.957 3.875 23.75ZM7.25 47.375C3.45312 47.375 0.5 44.4219 0.5 40.625C0.5 36.9336 3.45312 33.875 7.25 33.875C10.9414 33.875 14 36.9336 14 40.625C14 44.4219 10.9414 47.375 7.25 47.375ZM10.625 40.625C10.625 38.832 9.04297 37.25 7.25 37.25C5.35156 37.25 3.875 38.832 3.875 40.625C3.875 42.5234 5.35156 44 7.25 44C9.04297 44 10.625 42.5234 10.625 40.625Z" fill="#EBECEF"/>
</svg>
