<svg width="17" height="16" viewBox="0 0 17 16" fill="none" xmlns="http://www.w3.org/2000/svg">
<path fill-rule="evenodd" clip-rule="evenodd" d="M0.75469 0.25469C1.09428 -0.0848966 1.64485 -0.0848965 1.98444 0.25469L8.5 6.77025L15.0156 0.25469C15.3551 -0.0848965 15.9057 -0.0848966 16.2453 0.25469C16.5849 0.594276 16.5849 1.14485 16.2453 1.48444L9.72975 8L16.2453 14.5156C16.5849 14.8551 16.5849 15.4057 16.2453 15.7453C15.9057 16.0849 15.3551 16.0849 15.0156 15.7453L8.5 9.22975L1.98444 15.7453C1.64485 16.0849 1.09428 16.0849 0.75469 15.7453C0.415103 15.4057 0.415103 14.8551 0.75469 14.5156L7.27025 8L0.75469 1.48444C0.415103 1.14485 0.415103 0.594276 0.75469 0.25469Z" fill="white"/>
</svg>
