<svg width="268" height="125" viewBox="0 0 268 125" fill="none" xmlns="http://www.w3.org/2000/svg">
<rect width="268" height="125" fill="#A5A9B5"/>
<path d="M134 43.5909C136.475 43.5909 138.849 44.5527 140.6 46.2646C142.35 47.9766 143.333 50.2984 143.333 52.7195C143.333 55.1405 142.35 57.4624 140.6 59.1743C138.849 60.8862 136.475 61.848 134 61.848C131.525 61.848 129.151 60.8862 127.4 59.1743C125.65 57.4624 124.667 55.1405 124.667 52.7195C124.667 50.2984 125.65 47.9766 127.4 46.2646C129.151 44.5527 131.525 43.5909 134 43.5909ZM115.333 50.1113C116.827 50.1113 118.213 50.5025 119.413 51.2067C119.013 54.9364 120.133 58.64 122.427 61.535C121.093 64.0388 118.427 65.7602 115.333 65.7602C113.212 65.7602 111.177 64.9359 109.676 63.4685C108.176 62.0011 107.333 60.0109 107.333 57.9358C107.333 55.8606 108.176 53.8704 109.676 52.403C111.177 50.9357 113.212 50.1113 115.333 50.1113ZM152.667 50.1113C154.788 50.1113 156.823 50.9357 158.324 52.403C159.824 53.8704 160.667 55.8606 160.667 57.9358C160.667 60.0109 159.824 62.0011 158.324 63.4685C156.823 64.9359 154.788 65.7602 152.667 65.7602C149.573 65.7602 146.907 64.0388 145.573 61.535C147.867 58.64 148.987 54.9364 148.587 51.2067C149.787 50.5025 151.173 50.1113 152.667 50.1113ZM116.667 76.8449C116.667 71.446 124.427 67.0643 134 67.0643C143.573 67.0643 151.333 71.446 151.333 76.8449V81.4091H116.667V76.8449ZM102 81.4091V77.4969C102 73.8716 107.04 70.82 113.867 69.9333C112.293 71.7068 111.333 74.1585 111.333 76.8449V81.4091H102ZM166 81.4091H156.667V76.8449C156.667 74.1585 155.707 71.7068 154.133 69.9333C160.96 70.82 166 73.8716 166 77.4969V81.4091Z" fill="url(#paint0_linear_7822_20001)"/>
<defs>
<linearGradient id="paint0_linear_7822_20001" x1="134" y1="43.5909" x2="134" y2="81.4091" gradientUnits="userSpaceOnUse">
<stop stop-color="white"/>
<stop offset="1" stop-color="white"/>
</linearGradient>
</defs>
</svg>
