<svg width="21" height="20" viewBox="0 0 21 20" fill="none" xmlns="http://www.w3.org/2000/svg">
<path fill-rule="evenodd" clip-rule="evenodd" d="M2.77116 13.2248C3.00906 13.7861 3.30474 14.3088 3.65819 14.7927C3.85468 15.0618 4.2428 15.0749 4.47778 14.8387L4.85238 14.4622C5.05585 14.2578 5.07242 13.9352 4.91359 13.6944C4.68511 13.3479 4.4918 12.9785 4.33366 12.5862C4.17162 12.1841 4.04651 11.7654 3.95831 11.33C3.90156 11.0497 3.66209 10.8378 3.37619 10.8378H2.7981C2.46014 10.8378 2.19424 11.1301 2.25248 11.463C2.35932 12.0737 2.53221 12.661 2.77116 13.2248ZM2.79199 6.77587C2.56572 7.33406 2.39276 7.91522 2.27311 8.51935C2.20601 8.85821 2.47379 9.1628 2.81924 9.1628H3.37619C3.66209 9.1628 3.90156 8.95091 3.95831 8.6707C4.04651 8.23526 4.17162 7.81652 4.33366 7.41448C4.4918 7.0221 4.68511 6.6527 4.91359 6.30628C5.07242 6.06546 5.05585 5.7429 4.85238 5.53841L4.47778 5.16192C4.2428 4.92576 3.85456 4.93884 3.65906 5.2086C3.30847 5.69235 3.01944 6.21477 2.79199 6.77587ZM7.26074 17.7265C7.81526 17.966 8.39491 18.1396 8.9997 18.247C9.33267 18.3061 9.62533 18.0401 9.62533 17.7019V17.1571C9.62533 16.8715 9.41372 16.6325 9.13436 16.5731C8.70488 16.4817 8.29562 16.3497 7.90658 16.177C7.52127 16.0061 7.14859 15.8025 6.78852 15.5662C6.5475 15.4081 6.22544 15.4327 6.02574 15.6406L5.64108 16.041C5.40868 16.2829 5.43286 16.6735 5.7084 16.8649C6.19354 17.2017 6.71098 17.4889 7.26074 17.7265ZM5.71752 3.12947C5.43846 3.32272 5.41731 3.71924 5.65673 3.95986L6.05715 4.36229C6.26214 4.56831 6.58771 4.58533 6.82847 4.42255C7.1704 4.19137 7.53324 3.99173 7.91699 3.82361C8.3137 3.64981 8.73277 3.5172 9.17418 3.42577C9.45449 3.3677 9.66699 3.12833 9.66699 2.84207V2.29669C9.66699 1.95924 9.37557 1.69343 9.04294 1.75022C8.41529 1.85737 7.82122 2.03203 7.26074 2.27419C6.71443 2.51024 6.20002 2.79533 5.71752 3.12947ZM11.8227 16.5735C11.544 16.6315 11.3337 16.8703 11.3337 17.155V17.6953C11.3337 18.0359 11.6302 18.3024 11.9654 18.2422C13.8264 17.908 15.4005 17.0311 16.6878 15.6117C18.1184 14.0344 18.8337 12.1639 18.8337 10.0003C18.8337 7.83673 18.1184 5.96627 16.6878 4.38894C15.4005 2.96952 13.8264 2.09268 11.9654 1.75841C11.6302 1.6982 11.3337 1.96478 11.3337 2.30532V2.84562C11.3337 3.13035 11.544 3.36916 11.8227 3.42716C13.2862 3.73166 14.5155 4.45008 15.5107 5.5824C16.6149 6.83868 17.167 8.31132 17.167 10.0003C17.167 11.6893 16.6149 13.162 15.5107 14.4182C14.5155 15.5506 13.2862 16.269 11.8227 16.5735Z" fill="#292B32"/>
<path d="M14.7189 9.47933C14.9012 9.47933 15.0835 9.66162 15.0835 9.84391V10.5731C15.0835 10.7782 14.9012 10.9377 14.7189 10.9377H11.4377V14.2189C11.4377 14.424 11.2554 14.5835 11.0731 14.5835H10.3439C10.1388 14.5835 9.97933 14.424 9.97933 14.2189V10.9377H6.69808C6.493 10.9377 6.3335 10.7782 6.3335 10.5731V9.84391C6.3335 9.66162 6.493 9.47933 6.69808 9.47933H9.97933V6.19808C9.97933 6.01579 10.1388 5.8335 10.3439 5.8335H11.0731C11.2554 5.8335 11.4377 6.01579 11.4377 6.19808V9.47933H14.7189Z" fill="#292B32"/>
</svg>
