<svg width="33" height="33" viewBox="0 0 33 33" fill="none" xmlns="http://www.w3.org/2000/svg">
<circle cx="16.9785" cy="16.75" r="16" fill="url(#paint0_linear_6145_23599)"/>
<path d="M11.7527 12.8499C12.1996 12.8499 12.5777 13.228 12.5777 13.6749V21.9249C12.5777 22.4061 12.1996 22.7499 11.7527 22.7499H9.00273C8.52148 22.7499 8.17773 22.4061 8.17773 21.9249V13.6749C8.17773 13.228 8.52148 12.8499 9.00273 12.8499H11.7527ZM10.3777 21.3749C10.8246 21.3749 11.2027 21.0311 11.2027 20.5499C11.2027 20.103 10.8246 19.7249 10.3777 19.7249C9.89648 19.7249 9.55273 20.103 9.55273 20.5499C9.55273 21.0311 9.89648 21.3749 10.3777 21.3749ZM21.3777 7.96861C21.3777 9.41236 20.484 10.2374 20.209 11.1999H23.7152C24.8496 11.1999 25.7434 12.1624 25.7434 13.228C25.7777 13.8467 25.5027 14.4999 25.0902 14.9124C25.434 15.703 25.3652 16.8374 24.7809 17.628C25.0559 18.5217 24.7809 19.6217 24.1965 20.2061C24.3684 20.8249 24.2996 21.3405 23.9902 21.753C23.3027 22.7499 21.5496 22.7499 20.0715 22.7499H19.9684C18.3184 22.7499 16.9777 22.1655 15.8777 21.6842C15.3277 21.4436 14.6059 21.1342 14.0559 21.1342C13.8496 21.0999 13.6777 20.928 13.6777 20.7217V13.3655C13.6777 13.2624 13.7121 13.1592 13.7809 13.0561C15.1559 11.7155 15.7402 10.3061 16.8402 9.17174C17.3559 8.65611 17.5277 7.89986 17.734 7.14361C17.8715 6.52486 18.1809 5.14986 18.9027 5.14986C19.7277 5.14986 21.3777 5.42486 21.3777 7.96861Z" fill="white"/>
<defs>
<linearGradient id="paint0_linear_6145_23599" x1="12.9785" y1="3.95" x2="27.3785" y2="39.95" gradientUnits="userSpaceOnUse">
<stop stop-color="#63A1FF"/>
<stop offset="1" stop-color="#0041BE"/>
</linearGradient>
</defs>
</svg>
