<svg width="32" height="32" viewBox="0 0 32 32" fill="none" xmlns="http://www.w3.org/2000/svg">
<path d="M12.25 26.7389H7.75C6.48438 26.7389 5.5 25.7545 5.5 24.4889V7.98889C5.5 6.77014 6.48438 5.73889 7.75 5.73889H12.25C13.4688 5.73889 14.5 6.77014 14.5 7.98889V24.4889C14.5 25.7545 13.4688 26.7389 12.25 26.7389ZM26.5 24.4889C26.5 25.7545 25.4688 26.7389 24.25 26.7389H19.75C18.4844 26.7389 17.5 25.7545 17.5 24.4889V7.98889C17.5 6.77014 18.4844 5.73889 19.75 5.73889H24.25C25.4688 5.73889 26.5 6.77014 26.5 7.98889V24.4889Z" fill="white"/>
</svg>
