<svg width="32" height="32" viewBox="0 0 32 32" fill="none" xmlns="http://www.w3.org/2000/svg">
<path d="M17.4531 7.33252L13.7031 10.6606L12.4844 9.72314L16.4688 6.20752C16.75 5.92627 17.125 5.78564 17.5 5.78564C17.6875 5.78564 17.875 5.83252 18.1094 5.92627C18.625 6.16064 19 6.72314 19 7.28564V14.8325L17.4531 13.6606V7.33252ZM23.5 16.2856C23.5 15.3481 22.9844 14.4575 22.1875 13.9419C21.8594 13.7075 21.7656 13.2388 22 12.9106C22.2344 12.5356 22.7031 12.4419 23.0312 12.6763C24.25 13.52 25 14.8794 25 16.2856C25 17.27 24.625 18.1606 24.1094 18.8638L22.9375 17.9731C23.2656 17.5044 23.5 16.895 23.5 16.2856ZM28 16.2856C28 13.8481 26.7344 11.5513 24.6719 10.1919C24.3438 9.95752 24.25 9.48877 24.4844 9.16064C24.7188 8.78564 25.1875 8.69189 25.5156 8.92627C28 10.6138 29.5 13.3325 29.5 16.2856C29.5 18.2544 28.7969 20.1294 27.625 21.6763L26.4531 20.7388C27.4375 19.4731 28 17.9263 28 16.2856ZM17.4531 25.2856V21.3013L19 22.52V25.2856C19 25.895 18.625 26.4106 18.1094 26.6919C17.875 26.7856 17.6875 26.7856 17.5 26.7856C17.125 26.7856 16.75 26.6919 16.4688 26.3638L10.1406 20.7856H6.25C4.98438 20.7856 4 19.8013 4 18.5356V14.0356C4 13.0513 4.65625 12.2075 5.59375 11.9263L7.32812 13.2856H6.25C5.82812 13.2856 5.5 13.6138 5.5 14.0356V18.5356C5.5 18.9106 5.82812 19.2856 6.25 19.2856H10.7031L17.4531 25.2856ZM30.6719 26.9731C31 27.2075 31.0938 27.6763 30.7656 28.0044C30.625 28.1919 30.3906 28.2856 30.2031 28.2856C30.0625 28.2856 29.9219 28.2388 29.7812 28.145L1.28125 5.64502C0.953125 5.41064 0.859375 4.89502 1.14062 4.61377C1.375 4.28564 1.84375 4.19189 2.17188 4.47314L30.6719 26.9731Z" fill="white"/>
</svg>
