<svg width="61" height="60" viewBox="0 0 61 60" fill="none" xmlns="http://www.w3.org/2000/svg">
<path d="M12.0762 8.3125C12.9199 8.3125 13.7637 9.15625 13.7637 10V16.75C13.7637 17.6992 12.9199 18.4375 12.0762 18.4375H5.32617C4.37695 18.4375 3.63867 17.6992 3.63867 16.75V10C3.63867 9.15625 4.37695 8.3125 5.32617 8.3125H12.0762ZM12.0762 25.1875C12.9199 25.1875 13.7637 26.0312 13.7637 26.875V33.625C13.7637 34.5742 12.9199 35.3125 12.0762 35.3125H5.32617C4.37695 35.3125 3.63867 34.5742 3.63867 33.625V26.875C3.63867 26.0312 4.37695 25.1875 5.32617 25.1875H12.0762ZM12.0762 42.0625C12.9199 42.0625 13.7637 42.9062 13.7637 43.75V50.5C13.7637 51.4492 12.9199 52.1875 12.0762 52.1875H5.32617C4.37695 52.1875 3.63867 51.4492 3.63867 50.5V43.75C3.63867 42.9062 4.37695 42.0625 5.32617 42.0625H12.0762ZM55.9512 27.7188C56.7949 27.7188 57.6387 28.5625 57.6387 29.4062V31.0938C57.6387 32.043 56.7949 32.7812 55.9512 32.7812H22.2012C21.252 32.7812 20.5137 32.043 20.5137 31.0938V29.4062C20.5137 28.5625 21.252 27.7188 22.2012 27.7188H55.9512ZM55.9512 44.5938C56.7949 44.5938 57.6387 45.4375 57.6387 46.2812V47.9688C57.6387 48.918 56.7949 49.6562 55.9512 49.6562H22.2012C21.252 49.6562 20.5137 48.918 20.5137 47.9688V46.2812C20.5137 45.4375 21.252 44.5938 22.2012 44.5938H55.9512ZM55.9512 10.8438C56.7949 10.8438 57.6387 11.6875 57.6387 12.5312V14.2188C57.6387 15.168 56.7949 15.9062 55.9512 15.9062H22.2012C21.252 15.9062 20.5137 15.168 20.5137 14.2188V12.5312C20.5137 11.6875 21.252 10.8438 22.2012 10.8438H55.9512Z" fill="#EBECEF"/>
</svg>
