<svg width="24" height="24" viewBox="0 0 24 24" fill="none" xmlns="http://www.w3.org/2000/svg">
<path d="M2.08594 3.46094L8.76562 8.66406L14.6016 3.53125C15.0234 3.21484 15.5859 3.17969 16.0078 3.49609C16.4297 3.77734 16.6055 4.33984 16.3945 4.83203L13.6875 11.125H17.625C18.082 11.125 18.5039 11.4414 18.6797 11.8633C18.8203 12.3203 18.7148 12.8125 18.3633 13.0938L16.5 14.7461L22.8984 19.7734C23.2852 20.0547 23.3555 20.582 23.0391 20.9336C22.7578 21.3203 22.2305 21.3906 21.8789 21.0742L1.06641 4.76172C0.679688 4.48047 0.609375 3.95312 0.925781 3.60156C1.20703 3.21484 1.73438 3.14453 2.08594 3.46094ZM5.60156 11.4062L6.16406 10.9141L9.29297 13.375H6.375C5.88281 13.375 5.46094 13.0938 5.32031 12.6719C5.14453 12.2148 5.25 11.7227 5.60156 11.4062ZM7.57031 19.7031L10.0312 13.9727L13.8984 16.9961L9.36328 21.0039C8.94141 21.3203 8.37891 21.3555 7.95703 21.0391C7.53516 20.7578 7.35938 20.1953 7.57031 19.7031Z" fill="white"/>
</svg>
