<svg width="24" height="24" viewBox="0 0 24 24" fill="none" xmlns="http://www.w3.org/2000/svg">
<circle cx="12" cy="12" r="12" fill="url(#paint0_linear_3917_26157)"/>
<path d="M7.48684 10.575H5.42064C5.05906 10.575 4.80078 10.8586 4.80078 11.1937V17.3812C4.80078 17.7422 5.05906 18 5.42064 18H7.48684C7.82259 18 8.10669 17.7422 8.10669 17.3812V11.1937C8.10669 10.8586 7.82259 10.575 7.48684 10.575ZM6.45374 16.9687C6.09215 16.9687 5.83388 16.7109 5.83388 16.35C5.83388 16.0148 6.09215 15.7312 6.45374 15.7312C6.78949 15.7312 7.0736 16.0148 7.0736 16.35C7.0736 16.7109 6.78949 16.9687 6.45374 16.9687ZM14.7185 6.91405C14.7185 5.00624 13.4788 4.79999 12.8589 4.79999C12.3166 4.79999 12.0841 5.83124 11.9808 6.2953C11.8258 6.86249 11.6967 7.42968 11.3093 7.81639C10.4828 8.66718 10.0438 9.72421 9.01066 10.7297C8.959 10.807 8.93317 10.8844 8.93317 10.9617V16.4789C8.93317 16.6336 9.06231 16.7625 9.21728 16.7883C9.63051 16.7883 10.1729 17.0203 10.5861 17.2008C11.4126 17.5617 12.4199 18 13.6596 18H13.7371C14.8477 18 16.1649 18 16.6814 17.2523C16.9139 16.943 16.9655 16.5562 16.8364 16.0922C17.2754 15.6539 17.4821 14.8289 17.2754 14.1586C17.7145 13.5656 17.7662 12.7148 17.5079 12.1219C17.8178 11.8125 18.0244 11.3226 17.9986 10.8586C17.9986 10.0594 17.3271 9.33749 16.4748 9.33749H13.8404C14.047 8.61561 14.7185 7.99686 14.7185 6.91405Z" fill="white"/>
<defs>
<linearGradient id="paint0_linear_3917_26157" x1="9" y1="2.4" x2="19.8" y2="29.4" gradientUnits="userSpaceOnUse">
<stop stop-color="#5B9DFF"/>
<stop offset="1" stop-color="#0041BE"/>
</linearGradient>
</defs>
</svg>
