<svg width="33" height="32" viewBox="0 0 33 32" fill="none" xmlns="http://www.w3.org/2000/svg">
<path d="M27.75 17.6919C28.0312 18.77 27.8906 20.0356 27.3281 20.9731C27.5156 22.0513 27.1406 23.27 26.4375 24.1138C26.5312 26.645 24.9844 28.2856 22.2188 28.2856C22.0781 28.3325 20.5312 28.2856 20.2969 28.2856C16.6875 28.3325 13.5 26.4106 12 26.4106V26.7856C12 27.6294 11.2969 28.2856 10.5 28.2856H6C5.15625 28.2856 4.5 27.6294 4.5 26.7856V14.7856C4.5 13.9888 5.15625 13.2856 6 13.2856H10.5C10.9688 13.2856 11.4375 13.5669 11.7188 13.9419C11.8594 13.9419 12 13.895 12.0938 13.8481C13.125 13.2856 14.7656 10.6138 15.8906 9.53564C16.3594 9.06689 16.5 8.27002 16.6875 7.47314C16.9219 6.06689 17.4375 4.28564 18.8438 4.28564C21.6562 4.28564 22.7344 5.92627 22.7344 8.69189C22.7344 10.0981 22.1719 11.1294 21.7969 11.9263H25.0781C26.9531 11.9263 28.4531 13.5669 28.5 15.3481C28.5 16.2856 28.2188 17.0825 27.75 17.6919ZM6 26.7856H10.5V14.7856H6V26.7856ZM25.875 17.27C26.625 17.0356 27 16.2856 27 15.3481C26.9531 14.4106 26.1562 13.4263 25.0781 13.4263H19.8281C19.8281 11.5513 21.2344 10.6606 21.2344 8.69189C21.2344 7.47314 21.2344 5.78564 18.8438 5.78564C17.9062 6.77002 18.375 9.16064 16.9688 10.5669C15.375 12.1606 13.7344 15.3481 12 15.3481V24.9106C13.9688 24.9106 16.875 26.7856 20.2969 26.7856C20.4375 26.7856 22.0312 26.8325 22.2188 26.7856C24 26.7856 25.2656 25.9419 24.8906 23.5044C25.6406 23.0825 26.2031 21.6294 25.5938 20.5981C26.625 20.0356 26.625 17.7856 25.875 17.27ZM9.375 24.5356C9.375 25.1919 8.85938 25.6606 8.25 25.6606C7.59375 25.6606 7.125 25.1919 7.125 24.5356C7.125 23.9263 7.59375 23.4106 8.25 23.4106C8.85938 23.4106 9.375 23.9263 9.375 24.5356Z" fill="white"/>
</svg>
