<svg width="48" height="48" viewBox="0 0 48 48" fill="none" xmlns="http://www.w3.org/2000/svg">
<path d="M30.0469 16.625L28.3594 12.125H19.5703L17.8828 16.625H9.375V36.875H38.625V16.625H30.0469ZM28.7812 8.75C29.9766 8.75 30.9609 9.52344 31.3828 10.5781L32.4375 13.25H38.625C40.4531 13.25 42 14.7969 42 16.625V36.875C42 38.7734 40.4531 40.25 38.625 40.25H9.375C7.47656 40.25 6 38.7734 6 36.875V16.625C6 14.7969 7.47656 13.25 9.375 13.25H15.5625L16.4062 11C16.8984 9.66406 18.1641 8.75 19.5703 8.75H28.7812ZM24 35.1875C19.2891 35.1875 15.5625 31.4609 15.5625 26.75C15.5625 22.1094 19.2891 18.3125 24 18.3125C28.6406 18.3125 32.4375 22.1094 32.4375 26.75C32.4375 31.4609 28.6406 35.1875 24 35.1875ZM24 21.6875C21.1875 21.6875 18.9375 24.0078 18.9375 26.75C18.9375 29.5625 21.1875 31.8125 24 31.8125C26.7422 31.8125 29.0625 29.5625 29.0625 26.75C29.0625 24.0078 26.7422 21.6875 24 21.6875Z" fill="white"/>
</svg>
