<svg width="35" height="34" viewBox="0 0 35 34" fill="none" xmlns="http://www.w3.org/2000/svg">
<path d="M21.4974 18.2953C21.8703 20.3089 21.3482 22.3225 19.9312 23.7395C19.5832 24.0875 19.0612 24.0626 18.738 23.7395L15.1583 20.1597L12.5729 22.7451C12.548 22.77 12.4983 22.77 12.4735 22.7948L10.8825 23.5903C10.6587 23.7146 10.3853 23.4412 10.5096 23.2174L11.3051 21.6264C11.3299 21.6016 11.3548 21.5767 11.3797 21.5519L13.965 18.9665L10.3853 15.3868C10.0373 15.0387 10.0373 14.5416 10.3853 14.1935C11.8023 12.7766 13.791 12.2297 15.8046 12.6025L17.0227 11.6827L16.3515 11.0116C16.0035 10.6635 16.0035 10.1663 16.3515 9.81831L18.738 7.43182C19.0612 7.10865 19.5832 7.08379 19.9312 7.43182L26.6929 14.1935C27.0161 14.5167 27.0161 15.0636 26.6929 15.3868L24.3065 17.7733C23.9584 18.1213 23.4364 18.0964 23.1132 17.7733L22.4172 17.0772L21.4974 18.2953ZM12.2249 14.8399L19.26 21.875C20.0058 20.7315 20.1053 19.24 19.6578 17.9473L22.268 14.5416L23.7098 15.9834L24.9031 14.7902L19.3346 9.22169L18.1414 10.4149L19.5832 11.8568L16.1775 14.467C14.86 13.9947 13.3684 14.0941 12.2249 14.8399Z" fill="#A5A9B5"/>
</svg>
