<svg width="32" height="32" viewBox="0 0 32 32" fill="none" xmlns="http://www.w3.org/2000/svg">
<path d="M16 14.0356C17.2188 14.0356 18.25 15.0669 18.25 16.2856C18.25 17.5513 17.2188 18.5356 16 18.5356C14.7344 18.5356 13.75 17.5513 13.75 16.2856C13.75 15.0669 14.7344 14.0356 16 14.0356ZM13.75 9.16064C13.75 7.94189 14.7344 6.91064 16 6.91064C17.2188 6.91064 18.25 7.94189 18.25 9.16064C18.25 10.4263 17.2188 11.4106 16 11.4106C14.7344 11.4106 13.75 10.4263 13.75 9.16064ZM13.75 23.4106C13.75 22.1919 14.7344 21.1606 16 21.1606C17.2188 21.1606 18.25 22.1919 18.25 23.4106C18.25 24.6763 17.2188 25.6606 16 25.6606C14.7344 25.6606 13.75 24.6763 13.75 23.4106Z" fill="white"/>
</svg>
