<svg width="61" height="61" viewBox="0 0 61 61" fill="none" xmlns="http://www.w3.org/2000/svg">
<g clip-path="url(#clip0_3084_11678)">
<path d="M48.877 24.8706C48.877 30.2495 47.1309 35.2183 44.1895 39.2495L59.0254 54.0972C60.4902 55.562 60.4902 57.9409 59.0254 59.4058C57.5605 60.8706 55.1816 60.8706 53.7168 59.4058L38.8809 44.5581C34.8496 47.5112 29.8809 49.2456 24.502 49.2456C11.0371 49.2456 0.126953 38.3354 0.126953 24.8706C0.126953 11.4058 11.0371 0.495605 24.502 0.495605C37.9668 0.495605 48.877 11.4058 48.877 24.8706ZM24.502 41.7456C26.718 41.7456 28.9124 41.3091 30.9597 40.4611C33.0071 39.613 34.8674 38.37 36.4344 36.803C38.0014 35.236 39.2444 33.3758 40.0924 31.3284C40.9405 29.281 41.377 27.0867 41.377 24.8706C41.377 22.6545 40.9405 20.4602 40.0924 18.4128C39.2444 16.3655 38.0014 14.5052 36.4344 12.9382C34.8674 11.3712 33.0071 10.1282 30.9597 9.28014C28.9124 8.43209 26.718 7.99561 24.502 7.99561C22.2859 7.99561 20.0915 8.43209 18.0442 9.28014C15.9968 10.1282 14.1365 11.3712 12.5695 12.9382C11.0025 14.5052 9.75953 16.3655 8.91149 18.4128C8.06344 20.4602 7.62695 22.6545 7.62695 24.8706C7.62695 27.0867 8.06344 29.281 8.91149 31.3284C9.75953 33.3758 11.0025 35.236 12.5695 36.803C14.1365 38.37 15.9968 39.613 18.0442 40.4611C20.0915 41.3091 22.2859 41.7456 24.502 41.7456Z" fill="#EBECEF"/>
<g clip-path="url(#clip1_3084_11678)">
<path d="M25.1258 2.24561C12.2827 2.24561 1.87695 12.6534 1.87695 25.499C1.87695 38.3446 12.2827 48.7524 25.1258 48.7524C37.9689 48.7524 48.3747 38.3446 48.3747 25.499C48.3747 12.6534 37.9689 2.24561 25.1258 2.24561ZM25.1258 45.752C13.9982 45.752 4.87681 36.7413 4.87681 25.499C4.87681 14.3693 13.8857 5.24604 25.1258 5.24604C36.2534 5.24604 45.3748 14.2567 45.3748 25.499C45.3748 36.6288 36.3659 45.752 25.1258 45.752ZM34.0129 19.0012L27.5163 25.499L34.0129 31.9968C34.4535 32.4375 34.4535 33.1501 34.0129 33.5908L33.216 34.3878C32.7754 34.8285 32.063 34.8285 31.6224 34.3878L25.1258 27.89L18.6293 34.3878C18.1887 34.8285 17.4762 34.8285 17.0356 34.3878L16.2388 33.5908C15.7981 33.1501 15.7981 32.4375 16.2388 31.9968L22.7353 25.499L16.2388 19.0012C15.7981 18.5605 15.7981 17.8479 16.2388 17.4072L17.0356 16.6102C17.4762 16.1695 18.1887 16.1695 18.6293 16.6102L25.1258 23.108L31.6224 16.6102C32.063 16.1695 32.7754 16.1695 33.216 16.6102L34.0129 17.4072C34.4441 17.8479 34.4441 18.5605 34.0129 19.0012Z" fill="#EBECEF"/>
</g>
</g>
<defs>
<clipPath id="clip0_3084_11678">
<rect width="59.9971" height="60.0088" fill="white" transform="translate(0.126953 0.495605)"/>
</clipPath>
<clipPath id="clip1_3084_11678">
<rect width="47.9977" height="48.007" fill="white" transform="translate(1.12695 1.49561)"/>
</clipPath>
</defs>
</svg>
