<svg width="25" height="22" viewBox="0 0 25 22" fill="none" xmlns="http://www.w3.org/2000/svg">
<path d="M24.5 6.03571V19.5357C24.5 20.8013 23.4688 21.7857 22.25 21.7857H2.75C1.48438 21.7857 0.5 20.8013 0.5 19.5357V6.03571C0.5 4.81696 1.48438 3.78571 2.75 3.78571H6.875L7.4375 2.28571C7.76562 1.39508 8.60938 0.785706 9.54688 0.785706H15.4062C16.3438 0.785706 17.1875 1.39508 17.5156 2.28571L18.125 3.78571H22.25C23.4688 3.78571 24.5 4.81696 24.5 6.03571ZM18.125 12.7857C18.125 9.69196 15.5938 7.16071 12.5 7.16071C9.35938 7.16071 6.875 9.69196 6.875 12.7857C6.875 15.9263 9.35938 18.4107 12.5 18.4107C15.5938 18.4107 18.125 15.9263 18.125 12.7857ZM16.625 12.7857C16.625 15.0826 14.75 16.9107 12.5 16.9107C10.2031 16.9107 8.375 15.0826 8.375 12.7857C8.375 10.5357 10.2031 8.66071 12.5 8.66071C14.75 8.66071 16.625 10.5357 16.625 12.7857Z" fill="white" fill-opacity="0.8"/>
</svg>
