<svg width="106" height="111" viewBox="0 0 106 111" fill="none" xmlns="http://www.w3.org/2000/svg">
<rect y="7.40869" width="105.113" height="102.798" rx="11.1133" fill="#BDC1CF"/>
<rect x="12.9648" y="40.2856" width="16.6699" height="16.6699" rx="1.85221" fill="#EBECEF"/>
<rect x="34.2676" y="40.2856" width="16.6699" height="16.6699" rx="1.85221" fill="#EBECEF"/>
<rect x="56.0312" y="40.2856" width="16.6699" height="16.6699" rx="1.85221" fill="#EBECEF"/>
<rect x="77.3301" y="40.2856" width="16.6699" height="16.6699" rx="1.85221" fill="#EBECEF"/>
<rect x="12.9648" y="61.5864" width="16.6699" height="16.6699" rx="1.85221" fill="#EBECEF"/>
<rect x="34.2656" y="61.5864" width="16.6699" height="16.6699" rx="1.85221" fill="#EBECEF"/>
<rect x="56.0293" y="61.5864" width="16.6699" height="16.6699" rx="1.85221" fill="#EBECEF"/>
<path d="M69.4598 66.4336C69.8541 66.7029 70.0277 66.9556 70.1379 67.4201C70.0959 67.9767 69.8611 68.3123 69.5167 68.7308C69.4653 68.7952 69.4138 68.8596 69.3608 68.9259C69.1935 69.1348 69.0245 69.3423 68.8555 69.5499C68.7395 69.6939 68.6237 69.838 68.5079 69.9822C68.2228 70.3367 67.9364 70.6901 67.6495 71.0432C67.43 71.3136 67.2115 71.585 66.9931 71.8563C66.6623 72.2663 66.3294 72.6745 65.9946 73.0812C65.8274 73.285 65.6616 73.4899 65.496 73.6949C65.3985 73.8139 65.3009 73.9329 65.2033 74.0518C65.123 74.1504 65.0427 74.249 64.96 74.3506C64.687 74.6272 64.4886 74.781 64.1221 74.9141C63.4407 74.8506 63.053 74.6472 62.5279 74.2215C62.4594 74.1676 62.3909 74.1137 62.3204 74.0581C62.1766 73.9443 62.0335 73.8298 61.8909 73.7145C61.6743 73.5398 61.4553 73.3683 61.236 73.1971C61.0958 73.0855 60.9558 72.9737 60.816 72.8618C60.7513 72.8113 60.6867 72.7609 60.6201 72.7089C60.1695 72.3401 59.83 71.9331 59.6103 71.3879C59.6229 70.9567 59.6864 70.742 59.936 70.3923C60.1767 70.1767 60.3757 70.0511 60.7059 70.0406C61.4758 70.1483 61.9374 70.5624 62.5085 71.064C62.6888 71.219 62.8694 71.3736 63.0506 71.5276C63.1292 71.5963 63.2078 71.665 63.2888 71.7357C63.4976 71.9169 63.4976 71.9169 63.8103 71.9509C63.9123 71.8218 63.9123 71.8218 64.0163 71.69C64.2722 71.3662 64.5284 71.0427 64.7846 70.7193C64.8948 70.5801 65.005 70.4409 65.115 70.3015C65.6751 69.5923 66.2371 68.8914 66.8425 68.2198C67.1801 67.8332 67.4666 67.4095 67.763 66.991C68.2523 66.423 68.7448 66.2422 69.4598 66.4336Z" fill="#636878"/>
<rect x="77.3301" y="61.5864" width="16.6699" height="16.6699" rx="1.85221" fill="#EBECEF"/>
<rect x="12.9648" y="83.3501" width="16.6699" height="16.6699" rx="1.85221" fill="#EBECEF"/>
<rect x="34.2676" y="83.3501" width="16.6699" height="16.6699" rx="1.85221" fill="#EBECEF"/>
<rect x="56.0293" y="83.3501" width="16.6699" height="16.6699" rx="1.85221" fill="#EBECEF"/>
<rect x="77.3301" y="83.3501" width="16.6699" height="16.6699" rx="1.85221" fill="#EBECEF"/>
<path d="M0 18.522C0 12.3843 4.97559 7.40869 11.1133 7.40869H93.9999C100.138 7.40869 105.113 12.3843 105.113 18.522V28.7092H0V18.522Z" fill="#898E9E"/>
<circle cx="16.6709" cy="16.2075" r="2.77832" fill="#D9D9D9"/>
<circle cx="31.0264" cy="16.2075" r="2.77832" fill="#D9D9D9"/>
<circle cx="45.3799" cy="16.2075" r="2.77832" fill="#D9D9D9"/>
<circle cx="59.7354" cy="16.2075" r="2.77832" fill="#D9D9D9"/>
<circle cx="74.0889" cy="16.2075" r="2.77832" fill="#D9D9D9"/>
<circle cx="88.4443" cy="16.2075" r="2.77832" fill="#D9D9D9"/>
<rect x="14.3555" width="4.63054" height="17.596" rx="2.31527" fill="#EBECEF"/>
<rect x="28.709" width="4.63054" height="17.596" rx="2.31527" fill="#EBECEF"/>
<rect x="43.0664" width="4.63054" height="17.596" rx="2.31527" fill="#EBECEF"/>
<rect x="57.4199" width="4.63054" height="17.596" rx="2.31527" fill="#EBECEF"/>
<rect x="71.7734" width="4.63054" height="17.596" rx="2.31527" fill="#EBECEF"/>
<rect x="86.1289" width="4.63054" height="17.596" rx="2.31527" fill="#EBECEF"/>
</svg>
