<svg width="16" height="19" viewBox="0 0 16 19" fill="none" xmlns="http://www.w3.org/2000/svg">
<path d="M9.02344 10.4805L10.8867 10.7617C11.2031 10.7969 11.3086 11.1836 11.0977 11.3945L9.76172 12.6953L10.0781 14.5234C10.1133 14.8398 9.79688 15.0508 9.55078 14.9102L7.89844 14.0312L6.21094 14.9102C5.96484 15.0508 5.64844 14.8398 5.68359 14.5234L6 12.6953L4.66406 11.3945C4.45312 11.1836 4.55859 10.7969 4.875 10.7617L6.73828 10.4805L7.54688 8.79297C7.6875 8.54688 8.07422 8.54688 8.21484 8.79297L9.02344 10.4805ZM4.52344 0.25C4.98047 0.25 5.36719 0.636719 5.36719 1.09375V2.5H10.4297V1.09375C10.4297 0.636719 10.7812 0.25 11.2734 0.25C11.7305 0.25 12.1172 0.636719 12.1172 1.09375V2.5H13.5234C14.7539 2.5 15.7734 3.51953 15.7734 4.75V16C15.7734 17.2656 14.7539 18.25 13.5234 18.25H2.27344C1.00781 18.25 0.0234375 17.2656 0.0234375 16V4.75C0.0234375 3.51953 1.00781 2.5 2.27344 2.5H3.67969V1.09375C3.67969 0.636719 4.03125 0.25 4.52344 0.25ZM14.0859 7H1.71094V16C1.71094 16.3164 1.95703 16.5625 2.27344 16.5625H13.5234C13.8047 16.5625 14.0859 16.3164 14.0859 16V7Z" fill="#292B32"/>
</svg>
