<svg width="77" height="77" viewBox="0 0 77 77" fill="none" xmlns="http://www.w3.org/2000/svg">
<g filter="url(#filter0_dd_1409_11843)">
<path fill-rule="evenodd" clip-rule="evenodd" d="M70.5 38C70.5 55.6731 56.1731 70 38.5 70C20.8269 70 6.5 55.6731 6.5 38C6.5 20.3269 20.8269 6 38.5 6C56.1731 6 70.5 20.3269 70.5 38ZM74.5 38C74.5 57.8823 58.3823 74 38.5 74C18.6177 74 2.5 57.8823 2.5 38C2.5 18.1177 18.6177 2 38.5 2C58.3823 2 74.5 18.1177 74.5 38ZM38.5 68C55.0685 68 68.5 54.5685 68.5 38C68.5 21.4315 55.0685 8 38.5 8C21.9315 8 8.5 21.4315 8.5 38C8.5 54.5685 21.9315 68 38.5 68Z" fill="white"/>
</g>
<path d="M32.5234 32.8649C32.6992 32.9821 32.8164 33.2751 32.8164 33.5095C32.8164 33.6852 32.7578 33.9196 32.6406 34.0368C31.7031 35.1501 31 37.2009 31 38.6071C31 40.072 31.7031 42.1227 32.6406 43.236C32.7578 43.3532 32.8164 43.5876 32.8164 43.7634C32.8164 43.9977 32.6992 44.2907 32.5234 44.4079L31.8789 45.0524C31.7031 45.2282 31.4102 45.3454 31.2344 45.3454C30.9414 45.3454 30.6484 45.1696 30.4727 44.9938C29.1836 43.4704 28.1289 40.5993 28.1289 38.6071C28.1289 36.6735 29.1836 33.8024 30.4727 32.279C30.6484 32.1032 30.9414 31.9274 31.2344 31.9274C31.4102 31.9274 31.7031 32.0446 31.8789 32.2204L32.5234 32.8649ZM27.8945 28.2946C28.2461 28.6462 28.2461 29.1735 27.8945 29.5837C25.9609 31.6931 24.4375 35.7946 24.4375 38.6657C24.4375 41.5368 25.9609 45.5798 27.8945 47.6891C28.2461 48.0993 28.2461 48.6266 27.8945 48.9782L27.25 49.6227C27.0742 49.7985 26.7812 49.9157 26.5469 49.9157C26.3125 49.9157 26.0195 49.7399 25.8438 49.5641C23.0898 46.5173 21.625 42.7087 21.625 38.6071C21.625 34.5641 23.0898 30.697 25.8438 27.7087C26.0195 27.5329 26.3125 27.4157 26.5469 27.4157C26.7812 27.4157 27.0742 27.5329 27.25 27.6501L27.8945 28.2946ZM51.0977 27.7087C53.8516 30.697 55.375 34.5641 55.375 38.6071C55.375 42.7087 53.8516 46.5173 51.0977 49.5641C50.9219 49.7399 50.6289 49.8571 50.3945 49.8571C50.1602 49.8571 49.8672 49.7399 49.75 49.6227L49.0469 48.9782C48.6953 48.6266 48.6953 48.0993 49.0469 47.6891C50.9805 45.5798 52.5039 41.5368 52.5039 38.6657C52.5039 35.736 50.9805 31.6931 49.0469 29.5837C48.6953 29.1735 48.6953 28.6462 49.0469 28.2946L49.75 27.6501C49.8672 27.4743 50.1602 27.3571 50.3945 27.3571C50.6289 27.3571 50.9219 27.5329 51.0977 27.7087ZM38.5 35.3259C40.2578 35.3259 41.7812 36.8493 41.7812 38.6071C41.7812 40.4235 40.2578 41.8884 38.5 41.8884C36.6836 41.8884 35.2188 40.4235 35.2188 38.6071C35.2188 36.8493 36.6836 35.3259 38.5 35.3259ZM45.0625 32.2204C45.2383 32.0446 45.5312 31.9274 45.707 31.9274C46 31.9274 46.293 32.1032 46.4688 32.279C47.7578 33.8024 48.8125 36.6735 48.8125 38.6071C48.8125 40.5993 47.7578 43.4704 46.4688 44.9938C46.293 45.1696 46 45.3454 45.707 45.3454C45.5312 45.3454 45.2383 45.2282 45.0625 45.0524L44.418 44.4079C44.2422 44.2907 44.125 43.9977 44.125 43.7634C44.125 43.5876 44.1836 43.3532 44.3008 43.236C45.2383 42.1227 45.9414 40.072 45.9414 38.6071C45.9414 37.2009 45.2383 35.1501 44.3008 34.0368C44.1836 33.9196 44.125 33.6852 44.125 33.5095C44.125 33.2751 44.2422 32.9821 44.418 32.8649L45.0625 32.2204Z" fill="#FF305A"/>
<defs>
<filter id="filter0_dd_1409_11843" x="0.5" y="0.5" width="76" height="76" filterUnits="userSpaceOnUse" color-interpolation-filters="sRGB">
<feFlood flood-opacity="0" result="BackgroundImageFix"/>
<feColorMatrix in="SourceAlpha" type="matrix" values="0 0 0 0 0 0 0 0 0 0 0 0 0 0 0 0 0 0 127 0" result="hardAlpha"/>
<feOffset dy="0.5"/>
<feGaussianBlur stdDeviation="1"/>
<feColorMatrix type="matrix" values="0 0 0 0 0.376471 0 0 0 0 0.380392 0 0 0 0 0.439216 0 0 0 0.16 0"/>
<feBlend mode="normal" in2="BackgroundImageFix" result="effect1_dropShadow_1409_11843"/>
<feColorMatrix in="SourceAlpha" type="matrix" values="0 0 0 0 0 0 0 0 0 0 0 0 0 0 0 0 0 0 127 0" result="hardAlpha"/>
<feOffset/>
<feGaussianBlur stdDeviation="0.5"/>
<feColorMatrix type="matrix" values="0 0 0 0 0.156863 0 0 0 0 0.160784 0 0 0 0 0.239216 0 0 0 0.08 0"/>
<feBlend mode="normal" in2="effect1_dropShadow_1409_11843" result="effect2_dropShadow_1409_11843"/>
<feBlend mode="normal" in="SourceGraphic" in2="effect2_dropShadow_1409_11843" result="shape"/>
</filter>
</defs>
</svg>
