<svg width="36" height="36" viewBox="0 0 36 36" fill="none" xmlns="http://www.w3.org/2000/svg">
<path d="M12.5156 11.2031C13.8867 11.2031 15.0469 12.3633 15.0469 13.7344C15.0469 15.1582 13.8867 16.2656 12.5156 16.2656C11.0918 16.2656 9.98438 15.1582 9.98438 13.7344C9.98438 12.3633 11.0918 11.2031 12.5156 11.2031ZM28.0723 6.5625C29.9707 6.5625 31.4473 8.0918 31.4473 9.9375V26.8125C31.4473 28.7109 29.918 30.1875 28.0723 30.1875H7.82227C5.97656 30.1875 4.44727 28.7109 4.44727 26.8125V9.9375C4.44727 8.0918 5.97656 6.5625 7.82227 6.5625H28.0723ZM28.916 26.4961V9.9375C28.916 9.51562 28.5469 9.09375 28.0723 9.09375H7.82227C7.40039 9.09375 6.97852 9.51562 6.97852 9.9375L7.03125 26.8125L10.9863 21.8555C11.1973 21.6445 11.4609 21.4863 11.7773 21.4863C12.0938 21.4863 12.3574 21.6445 12.5684 21.8555L14.5195 24.2812L20.1094 16.6875C20.3203 16.4238 20.584 16.2656 20.9531 16.2656C21.2695 16.2656 21.5332 16.4238 21.6914 16.6875L28.916 26.4961Z" fill="#40434E"/>
</svg>
