<svg width="33" height="32" viewBox="0 0 33 32" fill="none" xmlns="http://www.w3.org/2000/svg">
<circle cx="16.7158" cy="16" r="16" fill="white" fill-opacity="0.5"/>
<path d="M18.3682 16.25L22.165 20.0469C22.376 20.2578 22.376 20.6445 22.165 20.8555L21.2861 21.7344C21.0752 21.9453 20.6885 21.9453 20.4775 21.7344L16.7158 17.9375L12.9189 21.7344C12.708 21.9453 12.3213 21.9453 12.1104 21.7344L11.2314 20.8555C11.0205 20.6445 11.0205 20.2578 11.2314 20.0469L15.0283 16.25L11.2314 12.4883C11.0205 12.2773 11.0205 11.8906 11.2314 11.6797L12.1104 10.8008C12.3213 10.5898 12.708 10.5898 12.9189 10.8008L16.7158 14.5977L20.4775 10.8008C20.6885 10.5898 21.0752 10.5898 21.2861 10.8008L22.165 11.6797C22.376 11.8906 22.376 12.2773 22.165 12.4883L18.3682 16.25Z" fill="black" fill-opacity="0.5"/>
</svg>
