<svg width="29" height="29" viewBox="0 0 29 29" fill="none" xmlns="http://www.w3.org/2000/svg">
<path d="M23.3271 6.13281C23.6396 5.82031 24.1475 6.05469 24.1475 6.44531V12.0312C24.1475 12.3047 23.9131 12.5 23.6787 12.5H18.0537C17.6631 12.5 17.4287 12.0312 17.7412 11.7188L19.8506 9.60938C18.4834 8.20312 16.5693 7.34375 14.46 7.34375C10.2021 7.34375 6.80371 10.7812 6.80371 15C6.80371 19.2578 10.2021 22.6562 14.46 22.6562C16.4131 22.6562 18.1709 21.9531 19.5381 20.7422C19.7334 20.5859 20.0068 20.5859 20.1631 20.7422L20.9443 21.5234C21.1396 21.7188 21.1396 22.0312 20.9443 22.2266C19.2256 23.75 16.9209 24.6875 14.46 24.6875C9.1084 24.6875 4.77246 20.3906 4.77246 15.0391C4.7334 9.6875 9.1084 5.3125 14.46 5.3125C17.1162 5.3125 19.5381 6.40625 21.2959 8.16406L23.3271 6.13281Z" fill="#6E7487"/>
</svg>
