<svg width="20" height="21" viewBox="0 0 20 21" fill="none" xmlns="http://www.w3.org/2000/svg">
<path fill-rule="evenodd" clip-rule="evenodd" d="M11.0766 4.186C11.6827 3.95305 12.3021 3.83948 12.9061 3.8335C14.7179 3.81558 16.3937 4.7689 17.1729 6.39093L17.1895 6.42546L17.202 6.4624C17.6819 7.89004 17.5517 9.33248 17.0292 10.6008C16.7326 10.2229 16.3721 9.89755 15.964 9.64106C16.2254 8.76924 16.2483 7.82915 15.9455 6.89919C15.3774 5.74797 14.2332 5.07487 12.9278 5.10378C12.4981 5.11329 12.0515 5.20045 11.6019 5.36956C11.1731 5.58422 10.8198 5.86694 10.5238 6.23675L10.0093 6.87992L9.47729 6.24959C8.38507 4.95434 6.19511 4.67996 4.72103 5.94206C3.63692 7.0523 3.60343 8.94184 4.37082 10.5205C5.31606 12.1937 7.28176 13.8534 9.14794 15.2202L9.15794 15.2275C9.27155 15.3082 9.38012 15.3942 9.48451 15.4769C9.57334 15.5473 9.65915 15.6152 9.74247 15.6755C9.83249 15.7407 9.91925 15.7913 9.98761 15.8273C10.0527 15.8006 10.1319 15.7662 10.2153 15.7157C10.2662 15.6848 10.3205 15.6506 10.3776 15.6136C10.6388 15.9735 10.9562 16.2901 11.3169 16.5503C11.1818 16.6421 11.0508 16.727 10.9257 16.8029C10.8808 16.83 10.8388 16.8568 10.7982 16.8826C10.5856 17.0181 10.4104 17.1296 10.0526 17.1594L9.96091 17.1666L9.87002 17.1497C9.46411 17.075 9.1867 16.8802 8.94112 16.7025C8.80472 16.6038 8.67845 16.5042 8.57194 16.4202C8.48669 16.3529 8.4141 16.2957 8.3591 16.2569L8.35494 16.2536L8.34994 16.2496C6.42696 14.842 4.31681 13.1298 3.18676 11.1147L3.17842 11.0987L3.17008 11.0834C2.21058 9.12424 2.1731 6.64474 3.7738 5.03473L3.79047 5.01786L3.80882 5.00181C5.63352 3.41773 8.30066 3.519 9.97595 4.91428C10.2872 4.63498 10.6374 4.3993 11.0216 4.21089L11.0491 4.19724L11.0766 4.186Z" fill="#6E7487"/>
<path d="M13.6846 10.5507L13.6846 10.5501L13.6732 10.5522C13.5725 10.5706 13.4814 10.6238 13.4159 10.7025C13.3503 10.7811 13.3144 10.8803 13.3145 10.9827C13.3145 10.9827 13.3145 10.9827 13.3145 10.9827V12.7327H11.5645V12.7322L11.5534 12.7332L11.4971 12.7382L11.4971 12.7376L11.4857 12.7397C11.385 12.7581 11.2939 12.8113 11.2284 12.89C11.1628 12.9686 11.1269 13.0678 11.127 13.1702H11.1265L11.1274 13.1812L11.1324 13.2375L11.1319 13.2375L11.134 13.2489C11.1524 13.3496 11.2056 13.4407 11.2843 13.5063C11.3629 13.5718 11.4621 13.6077 11.5645 13.6077C11.5645 13.6077 11.5645 13.6077 11.5645 13.6077H13.3145V15.3577H13.314L13.3149 15.3687L13.3199 15.425L13.3194 15.425L13.3215 15.4364C13.3399 15.5371 13.3931 15.6282 13.4718 15.6938L13.5518 15.5977L13.4718 15.6938C13.5504 15.7593 13.6496 15.7952 13.752 15.7952L13.752 15.7957L13.763 15.7947L13.8193 15.7897L13.8193 15.7902L13.8307 15.7881C13.9314 15.7697 14.0225 15.7165 14.088 15.6379C14.1536 15.5592 14.1895 15.46 14.1895 15.3577C14.1895 15.3577 14.1895 15.3576 14.1895 15.3576V13.6077H15.9395V13.6082L15.9505 13.6072L16.0068 13.6022L16.0068 13.6027L16.0182 13.6006C16.1189 13.5822 16.21 13.529 16.2755 13.4504C16.3411 13.3717 16.377 13.2725 16.377 13.1701L16.3774 13.1701L16.3765 13.1591L16.3715 13.1028L16.372 13.1028L16.3699 13.0914C16.3515 12.9907 16.2983 12.8996 16.2196 12.8341C16.141 12.7685 16.0418 12.7326 15.9395 12.7327C15.9394 12.7327 15.9394 12.7327 15.9394 12.7327H14.1895V10.9827H14.1899L14.189 10.9716L14.184 10.9153L14.1845 10.9153L14.1824 10.9039C14.164 10.8032 14.1108 10.7121 14.0321 10.6466C13.9535 10.581 13.8543 10.5451 13.7519 10.5452V10.5447L13.7409 10.5457L13.6846 10.5507Z" fill="#6E7487" stroke="#6E7487" stroke-width="0.25"/>
</svg>
