<svg width="21" height="21" viewBox="0 0 21 21" fill="none" xmlns="http://www.w3.org/2000/svg">
<path d="M13.701 3.5835C13.097 3.58948 12.4776 3.70305 11.8715 3.936L11.844 3.94724L11.8165 3.96089C11.4323 4.1493 11.0822 4.38498 10.7709 4.66428C9.09558 3.269 6.42844 3.16773 4.60374 4.75181L4.58539 4.76786L4.56872 4.78473C2.96802 6.39474 3.0055 8.87424 3.96501 10.8334L3.97334 10.8487L3.98168 10.8647C5.11173 12.8798 7.22188 14.592 9.14486 15.9996L9.14986 16.0036L9.15402 16.0069C9.27773 16.0942 9.49046 16.2748 9.73604 16.4525C9.98162 16.6302 10.259 16.825 10.6649 16.8997L10.7558 16.9166L10.8476 16.9094C11.2736 16.874 11.4407 16.7225 11.7206 16.5529C12.0005 16.3832 12.3103 16.1678 12.6287 15.9322C13.2562 15.4676 13.9055 14.9322 14.333 14.5503C14.3385 14.5454 14.3476 14.5383 14.3531 14.5334C14.3539 14.5327 14.3547 14.5317 14.3556 14.531C15.2562 13.791 16.1483 12.9378 16.9046 11.9343C16.9049 11.934 16.9052 11.9338 16.9054 11.9335C16.9069 11.9316 16.9082 11.9297 16.9096 11.9278C18.1091 10.3728 18.6909 8.2771 17.997 6.2124L17.9844 6.17546L17.9678 6.14093C17.1886 4.5189 15.5129 3.56558 13.701 3.5835ZM13.7227 4.85378C15.0281 4.82487 16.1723 5.49797 16.7404 6.64919C17.2652 8.2609 16.8115 9.90301 15.834 11.1674L15.8315 11.1706L15.829 11.1739C15.148 12.0788 14.3232 12.8709 13.4684 13.5715L13.4575 13.5811L13.4467 13.5908C13.0617 13.9358 12.4101 14.4733 11.8148 14.914C11.5172 15.1344 11.2318 15.3313 11.0102 15.4657C10.9268 15.5162 10.8476 15.5506 10.7825 15.5773C10.7142 15.5413 10.6274 15.4907 10.5374 15.4255C10.3561 15.2944 10.1631 15.1269 9.95286 14.9775C9.94958 14.9751 9.94613 14.9726 9.94286 14.9702C8.07668 13.6034 6.11098 11.9437 5.16574 10.2705C4.39836 8.69184 4.43184 6.8023 5.51596 5.69206C6.99003 4.42996 9.18 4.70434 10.2722 5.99959L10.8042 6.62992L11.3187 5.98675C11.6147 5.61694 11.968 5.33422 12.3969 5.11956C12.8464 4.95045 13.293 4.86329 13.7227 4.85378Z" fill="#6E7487"/>
<rect x="10.7949" y="9.41675" width="8.33333" height="8.33333" rx="4.16667" fill="#292B32"/>
<path d="M14.8946 10.964L14.8945 10.9635L14.8832 10.9655C14.7824 10.984 14.6914 11.0371 14.6258 11.1158C14.5603 11.1945 14.5244 11.2936 14.5244 11.396C14.5244 11.396 14.5244 11.396 14.5244 11.396V13.146H12.7744V13.1455L12.7633 13.1465L12.7071 13.1515L12.707 13.151L12.6957 13.153C12.5949 13.1715 12.5039 13.2246 12.4383 13.3033C12.3728 13.382 12.3369 13.4811 12.3369 13.5835H12.3364L12.3374 13.5946L12.3424 13.6508L12.3419 13.6509L12.344 13.6622C12.3624 13.763 12.4156 13.854 12.4942 13.9196C12.5729 13.9851 12.672 14.021 12.7744 14.021C12.7744 14.021 12.7744 14.021 12.7745 14.021H14.5244V15.771H14.5239L14.5249 15.7821L14.5299 15.8383L14.5294 15.8384L14.5315 15.8497C14.5499 15.9505 14.6031 16.0415 14.6817 16.1071L14.7618 16.0111L14.6817 16.1071C14.7604 16.1726 14.8596 16.2085 14.962 16.2085L14.962 16.209L14.973 16.208L15.0292 16.203L15.0293 16.2035L15.0407 16.2015C15.1414 16.183 15.2325 16.1298 15.298 16.0512C15.3636 15.9725 15.3994 15.8734 15.3994 15.771C15.3994 15.771 15.3994 15.771 15.3994 15.771V14.021H17.1494V14.0215L17.1605 14.0205L17.2167 14.0155L17.2168 14.016L17.2282 14.014C17.3289 13.9955 17.42 13.9423 17.4855 13.8637C17.5511 13.785 17.5869 13.6859 17.5869 13.5835L17.5874 13.5835L17.5864 13.5724L17.5814 13.5162L17.582 13.5161L17.5799 13.5047C17.5614 13.404 17.5083 13.313 17.4296 13.2474C17.3509 13.1819 17.2518 13.146 17.1494 13.146C17.1494 13.146 17.1494 13.146 17.1494 13.146H15.3994V11.396H15.3999L15.3989 11.3849L15.3939 11.3287L15.3945 11.3286L15.3924 11.3172C15.3739 11.2165 15.3208 11.1255 15.2421 11.0599C15.1634 10.9943 15.0643 10.9585 14.9619 10.9585V10.958L14.9508 10.959L14.8946 10.964Z" fill="#6E7487" stroke="#6E7487" stroke-width="0.25"/>
</svg>
