<svg width="23" height="21" viewBox="0 0 23 21" fill="none" xmlns="http://www.w3.org/2000/svg">
<path d="M21.8213 17.7605C22.0674 17.9363 22.1377 18.2878 21.9268 18.5339L21.5752 18.9558C21.3643 19.2019 21.0127 19.2722 20.8018 19.0613L-0.22168 2.60815C-0.467773 2.43237 -0.538086 2.08081 -0.327148 1.83472L0.0244141 1.37769C0.235352 1.16675 0.586914 1.09644 0.833008 1.30737L21.8213 17.7605ZM12.5752 7.49487C13.3486 7.91675 13.9111 8.69019 14.0869 9.53394L11.5908 7.60034C11.8721 7.35425 12.2588 7.31909 12.5752 7.49487ZM13.6299 6.15894C13.2432 5.91284 13.1377 5.3855 13.3838 4.99878C13.6299 4.61206 14.1572 4.47144 14.5439 4.71753C16.4072 5.91284 17.5674 7.9519 17.5674 10.1667C17.5674 10.8347 17.4619 11.4324 17.2861 12.03L15.8096 10.8699C15.8447 10.6589 15.8799 10.4128 15.8799 10.1667C15.8799 8.54956 15.0361 7.03784 13.6299 6.15894ZM15.4932 3.31128C15.1064 3.06519 15.001 2.53784 15.2471 2.11597C15.5283 1.72925 16.0557 1.62378 16.4424 1.86987C19.2549 3.73315 20.9424 6.8269 20.9424 10.1667C20.9424 11.6082 20.626 12.9441 20.0635 14.2097L18.6924 13.1199C19.0439 12.2058 19.2197 11.2214 19.2197 10.1667C19.2197 7.42456 17.8486 4.823 15.4932 3.31128ZM9.69238 4.29565V6.08862L7.5127 4.40112L8.25098 3.698C8.3916 3.52222 8.60254 3.41675 8.81348 3.41675C9.27051 3.41675 9.69238 3.76831 9.69238 4.29565ZM8.00488 14.0691V11.1863L9.69238 12.5222V16.073C9.69238 16.6003 9.27051 16.9167 8.81348 16.9167C8.60254 16.9167 8.3916 16.8464 8.25098 16.6707L5.12207 13.5417H1.53613C1.04395 13.5417 0.692383 13.1902 0.692383 12.698V7.6355C0.692383 7.17847 1.04395 6.79175 1.53613 6.79175H2.37988L4.52441 8.47925H2.37988V11.8542H5.79004L8.00488 14.0691Z" fill="#A5A9B5"/>
</svg>
