<svg width="21" height="21" viewBox="0 0 21 21" fill="none" xmlns="http://www.w3.org/2000/svg">
<path d="M1.83398 10.5625C1.24023 10 1.24023 9.03125 1.83398 8.46875L7.33398 2.96875C8.27148 2 9.89648 2.6875 9.89648 4.03125V6.53125C14.1777 6.65625 19.3965 7.5 19.3965 12.8438C19.3965 15.125 18.1777 17.0312 16.334 18.25C15.1777 19.0312 13.6465 17.9375 14.084 16.5625C14.834 14.125 14.459 12.8438 9.89648 12.5625V15C9.89648 16.3438 8.27148 17.0312 7.33398 16.0625L1.83398 10.5625ZM2.89648 9.5L8.39648 15V11.0312C13.5215 11.0625 17.0527 12.0625 15.4902 17C16.6465 16.25 17.8965 14.9375 17.8965 12.8438C17.8965 8.375 12.8652 8.03125 8.39648 8.03125V4L2.89648 9.5Z" fill="white"/>
</svg>
