<svg width="25" height="24" viewBox="0 0 25 24" fill="none" xmlns="http://www.w3.org/2000/svg">
<path d="M15.7539 13.9375C18.3555 13.9375 20.5 16.082 20.5 18.6836V19.5625C20.5 20.5117 19.7266 21.25 18.8125 21.25H6.4375C5.48828 21.25 4.75 20.5117 4.75 19.5625V18.6836C4.75 16.082 6.85938 13.9375 9.46094 13.9375C10.4805 13.9375 10.9375 14.5 12.625 14.5C14.2773 14.5 14.7344 13.9375 15.7539 13.9375ZM18.8125 19.5625V18.6836C18.8125 16.9961 17.4414 15.625 15.7539 15.625C15.2266 15.625 14.418 16.1875 12.625 16.1875C10.7969 16.1875 9.98828 15.625 9.46094 15.625C7.77344 15.625 6.4375 16.9961 6.4375 18.6836V19.5625H18.8125ZM12.625 13.375C9.8125 13.375 7.5625 11.125 7.5625 8.3125C7.5625 5.53516 9.8125 3.25 12.625 3.25C15.4023 3.25 17.6875 5.53516 17.6875 8.3125C17.6875 11.125 15.4023 13.375 12.625 13.375ZM12.625 4.9375C10.7617 4.9375 9.25 6.48438 9.25 8.3125C9.25 10.1758 10.7617 11.6875 12.625 11.6875C14.4531 11.6875 16 10.1758 16 8.3125C16 6.48438 14.4531 4.9375 12.625 4.9375Z" fill="#292B32"/>
</svg>
