<svg width="19" height="12" viewBox="0 0 19 12" fill="none" xmlns="http://www.w3.org/2000/svg">
<path d="M11 0C11.8125 0 12.5 0.6875 12.5 1.5V10.5312C12.5 11.3438 11.8125 12 11 12H1.96875C1.15625 12 0.5 11.3438 0.5 10.5312V1.5C0.5 0.6875 1.15625 0 1.96875 0H11ZM10 6.25V5.75C10 5.5 9.75 5.25 9.5 5.25H7.25V3C7.25 2.75 7 2.5 6.75 2.5H6.25C5.96875 2.5 5.75 2.75 5.75 3V5.25H3.5C3.21875 5.25 3 5.5 3 5.75V6.25C3 6.53125 3.21875 6.75 3.5 6.75H5.75V9C5.75 9.28125 5.96875 9.5 6.25 9.5H6.75C7 9.5 7.25 9.28125 7.25 9V6.75H9.5C9.75 6.75 10 6.53125 10 6.25ZM18.5 2V10.0312C18.5 10.8125 17.5625 11.2812 16.9062 10.8438L13.5 8.46875V3.5625L16.9062 1.1875C17.5625 0.75 18.5 1.21875 18.5 2Z" fill="#292B32"/>
</svg>
