<svg width="21" height="14" viewBox="0 0 21 14" fill="none" xmlns="http://www.w3.org/2000/svg">
<path d="M6.68945 7C4.75195 7 3.18945 5.4375 3.18945 3.5C3.18945 1.59375 4.75195 0 6.68945 0C8.5957 0 10.1895 1.59375 10.1895 3.5C10.1895 5.4375 8.5957 7 6.68945 7ZM9.06445 8C11.0645 8 12.6895 9.625 12.6895 11.625V12.5C12.6895 13.3438 12.002 14 11.1895 14H2.18945C1.3457 14 0.689453 13.3438 0.689453 12.5V11.625C0.689453 9.625 2.2832 8 4.2832 8H4.5332C5.18945 8.3125 5.9082 8.5 6.68945 8.5C7.43945 8.5 8.1582 8.3125 8.81445 8H9.06445ZM15.6895 7C14.0332 7 12.6895 5.65625 12.6895 4C12.6895 2.34375 14.0332 1 15.6895 1C17.3457 1 18.6895 2.34375 18.6895 4C18.6895 5.65625 17.3457 7 15.6895 7ZM17.1895 8C19.0957 8 20.6895 9.59375 20.6895 11.5C20.6895 12.3438 20.002 13 19.1895 13H13.6582C13.6582 12.9375 13.6895 12.875 13.6895 12.8125V11.625C13.6895 10.4062 13.1895 9.3125 12.4395 8.5C12.9395 8.1875 13.5332 8 14.1895 8H14.2832C14.7207 8.15625 15.1895 8.25 15.6895 8.25C16.1582 8.25 16.627 8.15625 17.0645 8H17.1895Z" fill="#292B32"/>
</svg>
