<svg width="22" height="18" viewBox="0 0 22 18" fill="none" xmlns="http://www.w3.org/2000/svg">
<path d="M20.7812 15.3438C21 15.5 21.0625 15.8125 20.875 16.0312L20.2812 16.8125C20.0938 17.0312 19.7812 17.0938 19.5625 16.9062L1.1875 2.6875C0.96875 2.53125 0.90625 2.21875 1.09375 2L1.71875 1.21875C1.875 1 2.1875 0.9375 2.40625 1.125L7.15625 4.78125L8.71875 3.25C9.1875 2.78125 10 3.09375 10 3.78125V6.96875L12.4688 8.90625C12.4375 8.5 12.1875 8.125 11.8438 7.9375C11.4688 7.71875 11.3438 7.28125 11.5312 6.90625C11.75 6.53125 12.1875 6.40625 12.5625 6.625C13.4375 7.09375 14 8.03125 14 9C14 9.34375 13.9062 9.625 13.8125 9.9375L15.0312 10.875C15.3125 10.3125 15.5 9.6875 15.5 9C15.5 7.5625 14.75 6.1875 13.5 5.40625C13.1562 5.1875 13.0625 4.71875 13.2812 4.375C13.5 4.03125 13.9688 3.90625 14.3125 4.125C15.9688 5.1875 17 7.03125 17 9C17 10.0312 16.7188 10.9688 16.25 11.8125L17.4375 12.75C18.0938 11.625 18.4688 10.3438 18.4688 9.03125C18.4688 6.5625 17.25 4.25 15.1562 2.90625C14.8125 2.6875 14.7188 2.21875 14.9375 1.84375C15.1875 1.5 15.6562 1.40625 16 1.625C18.5 3.28125 20 6.03125 20 9C20 10.6875 19.5 12.2812 18.625 13.6562L20.7812 15.3438ZM2 6.75C2 6.5 2.125 6.28125 2.34375 6.125L10 12.0312V14.25C10 14.9375 9.1875 15.25 8.71875 14.7812L5.9375 12H2.75C2.3125 12 2 11.6875 2 11.25V6.75Z" fill="white"/>
</svg>
