<svg width="30" height="30" viewBox="0 0 30 30" fill="none" xmlns="http://www.w3.org/2000/svg">
<path d="M23.6133 14.2275C23.6572 14.7988 23.6572 15.3701 23.6133 15.8975L25.0195 16.7324C25.415 16.9521 25.6348 17.4355 25.5029 17.9189C25.0195 19.7646 24.0088 21.4346 22.6904 22.7969C22.3389 23.1045 21.8115 23.1924 21.416 22.9727L20.0098 22.1377C19.6582 22.4014 18.999 22.7969 18.5596 22.9727V24.5986C18.5596 25.082 18.252 25.4775 17.7686 25.6094C15.9668 26.0928 13.9893 26.0928 12.1875 25.6094C11.748 25.5215 11.3965 25.0381 11.3965 24.5986V22.9727C10.957 22.7969 10.2979 22.4014 9.94629 22.1377L8.54004 22.9727C8.14453 23.1924 7.61719 23.1045 7.26562 22.7969C5.94727 21.4346 4.93652 19.7646 4.45312 17.9189C4.32129 17.4355 4.54102 16.9521 4.93652 16.7324L6.34277 15.8975C6.29883 15.6777 6.29883 15.3262 6.29883 15.0625C6.29883 14.8428 6.29883 14.4912 6.34277 14.2275L4.93652 13.4365C4.54102 13.2168 4.32129 12.7334 4.45312 12.25C4.93652 10.4043 5.94727 8.73438 7.26562 7.37207C7.61719 7.06445 8.14453 6.97656 8.54004 7.19629L9.94629 8.03125C10.2979 7.76758 10.957 7.37207 11.3965 7.19629V5.57031C11.3965 5.08691 11.7041 4.69141 12.1875 4.55957C13.9893 4.07617 15.9668 4.07617 17.7686 4.55957C18.208 4.64746 18.5596 5.13086 18.5596 5.57031V7.19629C18.999 7.37207 19.6582 7.76758 20.0098 8.03125L21.416 7.19629C21.8115 6.97656 22.3389 7.06445 22.6904 7.37207C24.0088 8.73438 25.0195 10.4043 25.5029 12.25C25.6348 12.7334 25.415 13.2168 25.0195 13.4365L23.6133 14.2275ZM21.2842 17.04C21.6357 15.1943 21.6357 14.9746 21.2842 13.1289L23.2178 12.0303C22.9541 11.2393 22.251 10.0967 21.7236 9.48145L19.79 10.5801C18.4277 9.39355 18.208 9.26172 16.4502 8.64648V6.40527C16.0547 6.36133 15.3955 6.27344 15 6.27344C14.5605 6.27344 13.9014 6.36133 13.5059 6.40527V8.64648C11.748 9.26172 11.5723 9.39355 10.166 10.5801L8.23242 9.48145C7.57324 10.2285 7.08984 11.1074 6.73828 12.0303L8.67188 13.1289C8.32031 14.9746 8.32031 15.1943 8.67188 17.04L6.73828 18.1387C7.00195 18.9297 7.70508 20.0723 8.23242 20.6875L10.166 19.5889C11.5283 20.7754 11.748 20.9072 13.5059 21.5225V23.7637C13.9014 23.8076 14.5605 23.8955 15 23.8955C15.3955 23.8955 16.0547 23.8076 16.4502 23.7637V21.5225C18.208 20.9072 18.3838 20.7754 19.79 19.5889L21.7236 20.6875C22.251 20.0723 22.9541 18.9297 23.2178 18.1387L21.2842 17.04ZM15 10.8438C17.2852 10.8438 19.2188 12.7773 19.2188 15.0625C19.2188 17.3916 17.2852 19.2812 15 19.2812C12.6709 19.2812 10.7812 17.3916 10.7812 15.0625C10.7812 12.7773 12.6709 10.8438 15 10.8438ZM15 17.1719C16.1426 17.1719 17.1094 16.249 17.1094 15.0625C17.1094 13.9199 16.1426 12.9531 15 12.9531C13.8135 12.9531 12.8906 13.9199 12.8906 15.0625C12.8906 16.249 13.8135 17.1719 15 17.1719Z" fill="white"/>
</svg>
