<svg width="30" height="30" viewBox="0 0 30 30" fill="none" xmlns="http://www.w3.org/2000/svg">
<rect x="0.601562" y="0.600098" width="28.8" height="28.8" rx="14.4" fill="url(#paint0_linear_1864_16364)"/>
<path d="M10.4458 13.7833C10.8182 13.7833 11.1333 14.0984 11.1333 14.4708V21.3458C11.1333 21.7468 10.8182 22.0333 10.4458 22.0333H8.15417C7.75313 22.0333 7.46667 21.7468 7.46667 21.3458V14.4708C7.46667 14.0984 7.75313 13.7833 8.15417 13.7833H10.4458ZM9.3 20.8875C9.6724 20.8875 9.9875 20.601 9.9875 20.2C9.9875 19.8276 9.6724 19.5125 9.3 19.5125C8.89896 19.5125 8.6125 19.8276 8.6125 20.2C8.6125 20.601 8.89896 20.8875 9.3 20.8875ZM18.4667 9.71558C18.4667 10.9187 17.7219 11.6062 17.4927 12.4083H20.4146C21.3599 12.4083 22.1047 13.2104 22.1047 14.0984C22.1333 14.614 21.9042 15.1583 21.5604 15.502C21.8469 16.1609 21.7896 17.1062 21.3026 17.7651C21.5318 18.5098 21.3026 19.4265 20.8156 19.9135C20.9589 20.4291 20.9016 20.8588 20.6438 21.2026C20.0708 22.0333 18.6099 22.0333 17.3781 22.0333H17.2922C15.9172 22.0333 14.8 21.5463 13.8833 21.1453C13.425 20.9447 12.8234 20.6869 12.3651 20.6869C12.1932 20.6583 12.05 20.5151 12.05 20.3432V14.213C12.05 14.127 12.0786 14.0411 12.1359 13.9552C13.2818 12.838 13.7688 11.6635 14.6854 10.7182C15.1151 10.2885 15.2583 9.65828 15.4302 9.02808C15.5448 8.51245 15.8026 7.36662 16.4042 7.36662C17.0917 7.36662 18.4667 7.59578 18.4667 9.71558Z" fill="white"/>
<defs>
<linearGradient id="paint0_linear_1864_16364" x1="11.4016" y1="3.4801" x2="24.3616" y2="35.8801" gradientUnits="userSpaceOnUse">
<stop stop-color="#67A4FF"/>
<stop offset="1" stop-color="#0041BE"/>
</linearGradient>
</defs>
</svg>
