<svg width="24" height="25" viewBox="0 0 24 25" fill="none" xmlns="http://www.w3.org/2000/svg">
<path d="M14.0391 10.7109C15.832 12.5039 15.9375 15.3867 14.3555 17.2852C14.1445 17.5664 14.2852 17.4258 11.4023 20.3086C9.46875 22.2422 6.33984 22.2422 4.44141 20.3086C2.50781 18.4102 2.50781 15.2812 4.44141 13.3477C5.56641 12.2227 6.23438 11.5547 6.65625 11.1328C6.90234 10.8867 7.35938 11.0625 7.35938 11.4141C7.39453 11.8008 7.46484 12.3984 7.53516 12.75C7.57031 12.8906 7.53516 13.0312 7.42969 13.1367L5.8125 14.7539C4.65234 15.9141 4.65234 17.7773 5.8125 18.9375C6.97266 20.0977 8.83594 20.0977 9.99609 18.9375L12.6328 16.3008C13.793 15.1406 13.793 13.2773 12.6328 12.1172C12.457 11.9062 12.0703 11.6602 11.8242 11.5547C11.6836 11.4492 11.5781 11.2734 11.6133 11.0977C11.6484 10.7109 11.8242 10.3242 12.1406 10.043L12.2812 9.90234C12.4219 9.76172 12.5977 9.72656 12.7734 9.79688C13.2305 10.043 13.6523 10.3242 14.0391 10.7109ZM19.5234 5.22656C21.457 7.125 21.457 10.2539 19.5234 12.1875C18.3984 13.3125 17.7305 13.9805 17.3086 14.4023C17.0625 14.6484 16.6055 14.4727 16.6055 14.1211C16.5703 13.7344 16.5 13.1367 16.4297 12.7852C16.3945 12.6445 16.4297 12.5039 16.5352 12.3984L18.1523 10.7812C19.3125 9.62109 19.3125 7.75781 18.1523 6.59766C16.9922 5.4375 15.1289 5.4375 13.9688 6.59766L11.332 9.23438C10.1719 10.3945 10.1719 12.2578 11.332 13.418C11.5078 13.6289 11.8945 13.875 12.1406 13.9805C12.2812 14.0859 12.3867 14.2617 12.3516 14.4375C12.3164 14.8242 12.1406 15.2109 11.8242 15.4922L11.6836 15.6328C11.543 15.7734 11.3672 15.8086 11.1914 15.7383C10.7344 15.4922 10.3125 15.2109 9.92578 14.8242C8.13281 13.0312 8.02734 10.1484 9.60938 8.25C9.82031 7.96875 9.67969 8.10938 12.5625 5.22656C14.4961 3.29297 17.625 3.29297 19.5234 5.22656Z" fill="#292B32"/>
</svg>
