<svg width="33" height="33" viewBox="0 0 33 33" fill="none" xmlns="http://www.w3.org/2000/svg">
<g clip-path="url(#clip0_6145_23613)">
<path d="M16.9785 32.75C25.8151 32.75 32.9785 25.5866 32.9785 16.75C32.9785 7.91344 25.8151 0.75 16.9785 0.75C8.14196 0.75 0.978516 7.91344 0.978516 16.75C0.978516 25.5866 8.14196 32.75 16.9785 32.75Z" fill="#FFD54F"/>
<path d="M28.2718 20.7101C27.9652 21.6835 27.5652 22.5768 27.0452 23.4168H6.91184C6.39184 22.5768 5.99184 21.6835 5.68517 20.7101C5.59184 20.4035 5.64517 20.0835 5.84517 19.8301C6.03184 19.5635 6.32517 19.4168 6.64517 19.4168H27.3118C27.6318 19.4168 27.9252 19.5635 28.1118 19.8301C28.3118 20.0835 28.3652 20.4035 28.2718 20.7101Z" fill="white"/>
<path d="M27.0454 23.417C24.9388 26.8703 21.1654 29.0436 16.9788 29.0436C12.7921 29.0436 9.01878 26.8703 6.91211 23.417H27.0454Z" fill="#E53935"/>
<path d="M13.3112 14.4167C12.7592 14.4167 12.3112 13.9687 12.3112 13.4167C12.3112 12.682 11.7139 12.0834 10.9779 12.0834C10.2419 12.0834 9.64453 12.682 9.64453 13.4167C9.64453 13.9687 9.19653 14.4167 8.64453 14.4167C8.09253 14.4167 7.64453 13.9687 7.64453 13.4167C7.64453 11.5794 9.1392 10.0834 10.9779 10.0834C12.8165 10.0834 14.3112 11.5794 14.3112 13.4167C14.3112 13.9687 13.8632 14.4167 13.3112 14.4167Z" fill="#6D4C41"/>
<path d="M25.3112 14.4167C24.7592 14.4167 24.3112 13.9687 24.3112 13.4167C24.3112 12.682 23.7139 12.0834 22.9779 12.0834C22.2419 12.0834 21.6445 12.682 21.6445 13.4167C21.6445 13.9687 21.1965 14.4167 20.6445 14.4167C20.0925 14.4167 19.6445 13.9687 19.6445 13.4167C19.6445 11.5794 21.1392 10.0834 22.9779 10.0834C24.8165 10.0834 26.3112 11.5794 26.3112 13.4167C26.3112 13.9687 25.8632 14.4167 25.3112 14.4167Z" fill="#6D4C41"/>
</g>
<defs>
<clipPath id="clip0_6145_23613">
<rect width="32" height="32" fill="white" transform="translate(0.978516 0.75)"/>
</clipPath>
</defs>
</svg>
