<svg width="121" height="120" viewBox="0 0 121 120" fill="none" xmlns="http://www.w3.org/2000/svg">
<path d="M5.45898 18.2646H56.3398C57.2727 18.2648 58.0293 19.0212 58.0293 19.9541V56.7363C58.0293 57.6693 57.2728 58.4256 56.3398 58.4258H5.45898C4.52596 58.4258 3.76953 57.6694 3.76953 56.7363V19.9541C3.76953 19.0211 4.52596 18.2646 5.45898 18.2646Z" fill="white"/>
<path d="M5.45898 18.2646H56.3398C57.2727 18.2648 58.0293 19.0212 58.0293 19.9541V56.7363C58.0293 57.6693 57.2728 58.4256 56.3398 58.4258H5.45898C4.52596 58.4258 3.76953 57.6694 3.76953 56.7363V19.9541C3.76953 19.0211 4.52596 18.2646 5.45898 18.2646Z" stroke="#A9C4F9" stroke-width="1.12626"/>
<rect x="7.71094" y="22.2063" width="46.3759" height="24.1685" rx="2.01404" fill="#A9C4F9"/>
<path d="M47.9062 25.7913C49.7721 25.7915 51.2842 27.3043 51.2842 29.1702C51.2839 31.0359 49.7719 32.5478 47.9062 32.5481C46.0403 32.5481 44.5276 31.036 44.5273 29.1702C44.5273 27.3041 46.0402 25.7913 47.9062 25.7913Z" stroke="#1054DE" stroke-width="1.12626"/>
<rect x="7.71094" y="50.4558" width="28.1965" height="4.02808" rx="2.01404" fill="#A9C4F9"/>
<path d="M5.45898 62.5735H56.3398C57.2727 62.5736 58.0293 63.33 58.0293 64.2629V101.045C58.0293 101.978 57.2728 102.734 56.3398 102.735H5.45898C4.52596 102.735 3.76953 101.978 3.76953 101.045V64.2629C3.76953 63.3299 4.52596 62.5735 5.45898 62.5735Z" fill="white"/>
<path d="M5.45898 62.5735H56.3398C57.2727 62.5736 58.0293 63.33 58.0293 64.2629V101.045C58.0293 101.978 57.2728 102.734 56.3398 102.735H5.45898C4.52596 102.735 3.76953 101.978 3.76953 101.045V64.2629C3.76953 63.3299 4.52596 62.5735 5.45898 62.5735Z" stroke="#A9C4F9" stroke-width="1.12626"/>
<rect x="7.71094" y="66.5149" width="46.3759" height="24.1685" rx="2.01404" fill="#A9C4F9"/>
<path d="M47.9062 70.0996C49.7721 70.0999 51.2842 71.6126 51.2842 73.4785C51.2839 75.3442 49.7719 76.8562 47.9062 76.8564C46.0403 76.8564 44.5276 75.3444 44.5273 73.4785C44.5273 71.6125 46.0402 70.0996 47.9062 70.0996Z" stroke="#1054DE" stroke-width="1.12626"/>
<rect x="7.71094" y="94.7646" width="28.1965" height="4.02808" rx="2.01404" fill="#A9C4F9"/>
<path d="M63.8667 62.5735H114.748C115.68 62.5736 116.437 63.33 116.437 64.2629V101.045C116.437 101.978 115.68 102.734 114.748 102.735H63.8667C62.9337 102.735 62.1772 101.978 62.1772 101.045V64.2629C62.1772 63.3299 62.9337 62.5735 63.8667 62.5735Z" fill="white"/>
<path d="M63.8667 62.5735H114.748C115.68 62.5736 116.437 63.33 116.437 64.2629V101.045C116.437 101.978 115.68 102.734 114.748 102.735H63.8667C62.9337 102.735 62.1772 101.978 62.1772 101.045V64.2629C62.1772 63.3299 62.9337 62.5735 63.8667 62.5735Z" stroke="#A9C4F9" stroke-width="1.12626"/>
<rect x="66.1191" y="66.5149" width="46.3759" height="24.1685" rx="2.01404" fill="#A9C4F9"/>
<path d="M106.313 70.0996C108.179 70.0999 109.691 71.6126 109.691 73.4785C109.691 75.3442 108.179 76.8562 106.313 76.8564C104.448 76.8564 102.935 75.3444 102.935 73.4785C102.935 71.6125 104.447 70.0996 106.313 70.0996Z" stroke="#1054DE" stroke-width="1.12626"/>
<rect x="66.1191" y="94.7644" width="28.1965" height="4.02808" rx="2.01404" fill="#A9C4F9"/>
<path d="M63.8667 18.2646H114.748C115.68 18.2648 116.437 19.0212 116.437 19.9541V56.7363C116.437 57.6693 115.68 58.4256 114.748 58.4258H63.8667C62.9337 58.4258 62.1772 57.6694 62.1772 56.7363V19.9541C62.1772 19.0211 62.9337 18.2646 63.8667 18.2646Z" fill="white"/>
<path d="M63.8667 18.2646H114.748C115.68 18.2648 116.437 19.0212 116.437 19.9541V56.7363C116.437 57.6693 115.68 58.4256 114.748 58.4258H63.8667C62.9337 58.4258 62.1772 57.6694 62.1772 56.7363V19.9541C62.1772 19.0211 62.9337 18.2646 63.8667 18.2646Z" stroke="#A9C4F9" stroke-width="1.12626"/>
<rect x="66.1191" y="22.2063" width="46.3759" height="24.1685" rx="2.01404" fill="#A9C4F9"/>
<path d="M106.257 33.5003C108.434 33.5003 110.199 31.7354 110.199 29.5584C110.199 27.3813 108.434 25.6165 106.257 25.6165C104.08 25.6165 102.315 27.3813 102.315 29.5584C102.315 31.7354 104.08 33.5003 106.257 33.5003Z" fill="#1054DE"/>
<path d="M108.044 27.8508C108.093 27.8013 108.172 27.8013 108.212 27.8508L108.499 28.128C108.539 28.1775 108.539 28.2567 108.499 28.2963L105.529 31.2659C105.48 31.3154 105.411 31.3154 105.361 31.2659L104.035 29.9494C103.995 29.8999 103.995 29.8207 104.035 29.7811L104.322 29.494C104.361 29.4544 104.44 29.4544 104.49 29.494L105.44 30.4542L108.044 27.8508Z" fill="white"/>
<rect x="66.1191" y="50.4558" width="28.1965" height="4.02808" rx="2.01404" fill="#A9C4F9"/>
</svg>
