<svg width="14" height="16" viewBox="0 0 14 16" fill="none" xmlns="http://www.w3.org/2000/svg">
<path d="M13.5 2.5C13.75 2.5 14 2.75 14 3V3.5C14 3.78125 13.75 4 13.5 4H13L12.3125 14.5938C12.2812 15.375 11.5938 16 10.8125 16H3.15625C2.375 16 1.6875 15.375 1.65625 14.5938L1 4H0.5C0.21875 4 0 3.78125 0 3.5V3C0 2.75 0.21875 2.5 0.5 2.5H3.0625L4.125 0.75C4.375 0.34375 4.9375 0 5.40625 0H8.5625C9.03125 0 9.59375 0.34375 9.84375 0.75L10.9062 2.5H13.5ZM5.40625 1.5L4.8125 2.5H9.15625L8.5625 1.5H5.40625ZM10.8125 14.5L11.4688 4H2.5L3.15625 14.5H10.8125Z" fill="#FA4D30"/>
</svg>
