<svg width="20" height="20" viewBox="0 0 20 20" fill="none" xmlns="http://www.w3.org/2000/svg">
<path d="M12.5 4.5C13.5938 4.5 14.7812 4.125 15.9062 3.625C16.875 3.21875 18 3.9375 18 5V12.5C18 13.0312 17.7188 13.5 17.3125 13.7812C16.4688 14.3125 15.125 15 13.2812 15C11.1562 15 9.75 14 8.21875 14C6.46875 14 5.40625 14.375 4.25 14.9062V17.5C4.25 17.7812 4 18 3.75 18H3.25C2.96875 18 2.75 17.7812 2.75 17.5V4.8125C2.28125 4.5625 2 4.0625 2 3.5C2 2.65625 2.71875 1.96875 3.59375 2.03125C4.3125 2.0625 4.90625 2.625 4.96875 3.34375C4.96875 3.375 5 3.46875 5 3.5C5 3.65625 4.9375 3.875 4.90625 4C5.59375 3.71875 6.4375 3.5 7.4375 3.5C9.5625 3.5 10.9688 4.5 12.5 4.5ZM16.5 12.5V5C15.5 5.46875 13.8438 6 12.5 6C10.625 6 9.3125 5 7.4375 5C6.125 5 4.90625 5.53125 4.25 6V13.25C5.21875 12.8125 6.875 12.5 8.21875 12.5C10.0938 12.5 11.4062 13.5 13.2812 13.5C14.5938 13.5 15.8125 13 16.5 12.5Z" fill="#FA4D30"/>
</svg>
