<svg width="24" height="25" viewBox="0 0 24 25" fill="none" xmlns="http://www.w3.org/2000/svg">
<path d="M20.25 5H3.75C3.33579 5 3 5.33579 3 5.75V19.25C3 19.6642 3.33579 20 3.75 20H20.25C20.6642 20 21 19.6642 21 19.25V5.75C21 5.33579 20.6642 5 20.25 5Z" stroke="#292B32" stroke-width="1.3" stroke-linecap="round" stroke-linejoin="round"/>
<path d="M3 16.2499L7.71966 11.5302C7.7893 11.4606 7.87198 11.4053 7.96297 11.3676C8.05397 11.3299 8.1515 11.3105 8.24999 11.3105C8.34848 11.3105 8.44601 11.3299 8.537 11.3676C8.62799 11.4053 8.71067 11.4606 8.78032 11.5302L12.9697 15.7196C13.0393 15.7892 13.122 15.8444 13.213 15.8821C13.304 15.9198 13.4015 15.9392 13.5 15.9392C13.5985 15.9392 13.696 15.9198 13.787 15.8821C13.878 15.8444 13.9607 15.7892 14.0303 15.7196L15.9697 13.7802C16.0393 13.7106 16.122 13.6553 16.213 13.6176C16.304 13.5799 16.4015 13.5605 16.5 13.5605C16.5985 13.5605 16.696 13.5799 16.787 13.6176C16.878 13.6553 16.9607 13.7106 17.0303 13.7802L21 17.7499" stroke="#292B32" stroke-width="1.3" stroke-linecap="round" stroke-linejoin="round"/>
<path d="M14.625 11C15.2463 11 15.75 10.4963 15.75 9.875C15.75 9.25368 15.2463 8.75 14.625 8.75C14.0037 8.75 13.5 9.25368 13.5 9.875C13.5 10.4963 14.0037 11 14.625 11Z" fill="#292B32"/>
</svg>
