<svg width="15" height="16" viewBox="0 0 15 16" fill="none" xmlns="http://www.w3.org/2000/svg">
<path d="M10.1255 1.13117C9.38497 0.406896 8.3806 0 7.33333 0C6.28607 0 5.2817 0.406896 4.54117 1.13117C3.80064 1.85545 3.38462 2.83778 3.38462 3.86207C3.38462 4.88635 3.80064 5.86869 4.54117 6.59296C5.2817 7.31724 6.28607 7.72414 7.33333 7.72414C8.3806 7.72414 9.38497 7.31724 10.1255 6.59296C10.866 5.86869 11.2821 4.88635 11.2821 3.86207C11.2821 2.83778 10.866 1.85545 10.1255 1.13117Z" fill="white"/>
<path d="M7.33333 9.93104C3.28308 9.93104 0 11.7848 0 14.069V16H14.6667V14.069C14.6667 11.7848 11.3836 9.93104 7.33333 9.93104Z" fill="white"/>
</svg>
