<svg width="24" height="24" viewBox="0 0 24 24" fill="none" xmlns="http://www.w3.org/2000/svg">
<path d="M20.9648 6.625C21.5625 6.625 22.125 7.08203 22.125 7.75V16.7852C22.125 17.418 21.5625 17.875 20.9648 17.875C20.7539 17.875 20.543 17.8398 20.332 17.6992L16.5 15.2734V17.3477C16.5 18.2617 15.6562 19 14.6719 19H3.66797C2.68359 19 1.875 18.2617 1.875 17.3477V7.1875C1.875 6.27344 2.68359 5.5 3.66797 5.5H14.6719C15.6562 5.5 16.5 6.27344 16.5 7.1875V9.26172L20.332 6.83594C20.543 6.69531 20.7539 6.625 20.9648 6.625ZM14.8125 10.2812V7.25781C14.7773 7.22266 14.7422 7.1875 14.6719 7.1875H3.66797C3.59766 7.1875 3.5625 7.22266 3.5625 7.25781V17.2773C3.5625 17.3125 3.59766 17.3125 3.66797 17.3125H14.6719C14.7422 17.3125 14.7773 17.3125 14.8125 17.2773V10.2812ZM20.4375 15.7656V8.76953L16.5 11.2305V13.3047L20.4375 15.7656Z" fill="#292B32"/>
</svg>
