<svg width="25" height="24" viewBox="0 0 25 24" fill="none" xmlns="http://www.w3.org/2000/svg">
<path d="M12.8965 3.53125C17.6777 3.53125 21.6152 7.46875 21.6152 12.25C21.6152 17.0664 17.6777 20.9688 12.8965 20.9688C8.08008 20.9688 4.17773 17.0664 4.17773 12.25C4.17773 7.46875 8.08008 3.53125 12.8965 3.53125ZM12.8965 5.21875C8.99414 5.21875 5.86523 8.38281 5.86523 12.25C5.86523 16.1523 8.99414 19.2812 12.8965 19.2812C16.7637 19.2812 19.9277 16.1523 19.9277 12.25C19.9277 8.38281 16.7637 5.21875 12.8965 5.21875ZM17.8184 9.82422C17.959 9.96484 17.959 10.2461 17.8184 10.4219L11.7363 16.4336C11.5605 16.6094 11.3145 16.6094 11.1387 16.4336L7.93945 13.1992C7.79883 13.0586 7.79883 12.7773 7.93945 12.6016L8.74805 11.8281C8.92383 11.6523 9.16992 11.6523 9.3457 11.8281L11.4551 13.9375L16.4121 9.01562C16.5879 8.83984 16.8691 8.83984 17.0098 9.01562L17.8184 9.82422Z" fill="white"/>
</svg>
