<svg width="33" height="32" viewBox="0 0 33 32" fill="none" xmlns="http://www.w3.org/2000/svg">
<circle cx="16.5" cy="16" r="16" fill="#1054DE"/>
<path d="M22.8758 15.0734C22.8758 15.8234 22.756 16.5109 22.5164 17.1359C22.2768 17.7609 21.9383 18.2478 21.5008 18.5968C21.0633 18.9458 20.5555 19.1202 19.9773 19.1202C19.5919 19.1202 19.2482 19.0291 18.9461 18.8468C18.6492 18.6593 18.4383 18.4145 18.3133 18.1124H18.1883C17.9331 18.4249 17.6232 18.6723 17.2586 18.8546C16.894 19.0317 16.4878 19.1202 16.0398 19.1202C15.118 19.1202 14.3914 18.8442 13.8602 18.2921C13.3289 17.7348 13.0633 16.977 13.0633 16.0187C13.0633 14.9301 13.407 14.0473 14.0945 13.3702C14.7872 12.6932 15.7039 12.3546 16.8445 12.3546C17.2664 12.3546 17.7534 12.3963 18.3055 12.4796C18.8576 12.5577 19.3081 12.6593 19.657 12.7843L19.4773 16.6046C19.4773 17.3338 19.6753 17.6984 20.0711 17.6984C20.4044 17.6984 20.6701 17.4562 20.868 16.9718C21.0659 16.4822 21.1648 15.8442 21.1648 15.0577C21.1648 14.2192 20.9904 13.4796 20.6414 12.839C20.2977 12.1932 19.8081 11.701 19.1727 11.3624C18.5424 11.0187 17.8185 10.8468 17.0008 10.8468C15.9539 10.8468 15.0398 11.0656 14.2586 11.5031C13.4773 11.9406 12.881 12.5656 12.4695 13.3781C12.0581 14.1906 11.8523 15.1281 11.8523 16.1906C11.8523 17.6333 12.2352 18.74 13.0008 19.5109C13.7716 20.2765 14.8862 20.6593 16.3445 20.6593C16.9279 20.6593 17.5529 20.5942 18.2195 20.464C18.8862 20.3338 19.519 20.1567 20.118 19.9327V21.4406C19.0138 21.9093 17.7768 22.1437 16.407 22.1437C14.4279 22.1437 12.8836 21.6228 11.7742 20.5812C10.6701 19.5395 10.118 18.0916 10.118 16.2374C10.118 14.951 10.4018 13.7817 10.9695 12.7296C11.5424 11.6775 12.3523 10.8572 13.3992 10.2687C14.4461 9.67493 15.6414 9.37805 16.9852 9.37805C18.131 9.37805 19.1544 9.61243 20.0555 10.0812C20.9565 10.5499 21.6518 11.2166 22.1414 12.0812C22.631 12.9458 22.8758 13.9432 22.8758 15.0734ZM14.8758 16.0499C14.8758 17.1489 15.3237 17.6984 16.2195 17.6984C16.6831 17.6984 17.0372 17.5343 17.282 17.2062C17.532 16.8728 17.6831 16.3312 17.7352 15.5812L17.8367 13.8546C17.5971 13.8025 17.2977 13.7765 16.9383 13.7765C16.2872 13.7765 15.7794 13.9796 15.4148 14.3859C15.0555 14.7921 14.8758 15.3468 14.8758 16.0499Z" fill="white"/>
</svg>
