<svg width="19" height="17" viewBox="0 0 19 17" fill="none" xmlns="http://www.w3.org/2000/svg">
<path d="M16.6484 0.375C17.8789 0.375 18.8984 1.39453 18.8984 2.625V13.875C18.8984 15.1406 17.8789 16.125 16.6484 16.125H3.14844C1.88281 16.125 0.898438 15.1406 0.898438 13.875V2.625C0.898438 1.39453 1.88281 0.375 3.14844 0.375H16.6484ZM9.82812 2.0625L7.01562 4.875H9.37109L12.1836 2.0625H9.82812ZM2.58594 3.71484V4.875H3.74609L6.55859 2.0625H4.20312L2.58594 3.71484ZM17.2109 13.875V6.5625H2.58594V13.875C2.58594 14.1914 2.83203 14.4375 3.14844 14.4375H16.6484C16.9297 14.4375 17.2109 14.1914 17.2109 13.875ZM17.2109 2.69531V2.625C17.2109 2.34375 16.9297 2.0625 16.6484 2.0625H15.4531L12.6406 4.875H14.9961L17.2109 2.69531ZM8.5625 13.3125C8.49219 13.3125 8.45703 13.3125 8.38672 13.2773C8.28125 13.207 8.21094 13.0664 8.21094 12.9258V8.07422C8.21094 7.93359 8.28125 7.82812 8.38672 7.75781C8.49219 7.6875 8.66797 7.6875 8.77344 7.72266L12.5 10.1484C12.6406 10.2188 12.7109 10.3242 12.7109 10.5C12.7109 10.6406 12.6406 10.7812 12.5352 10.8516L8.77344 13.2773C8.70312 13.3125 8.63281 13.3125 8.5625 13.3125Z" fill="#292B32"/>
</svg>
