<svg width="21" height="20" viewBox="0 0 21 20" fill="none" xmlns="http://www.w3.org/2000/svg">
<path d="M10.5 2.25C14.7812 2.25 18.25 5.71875 18.25 10C18.25 14.2812 14.7812 17.75 10.5 17.75C6.21875 17.75 2.75 14.2812 2.75 10C2.75 5.71875 6.21875 2.25 10.5 2.25ZM16.0938 7.25C15.4375 5.9375 14.3438 4.90625 13 4.3125C13.4375 5.125 13.7812 6.125 14 7.25H16.0938ZM10.5 3.75C9.90625 3.75 8.96875 5.0625 8.5 7.25H12.4688C12 5.0625 11.0625 3.75 10.5 3.75ZM4.25 10C4.25 10.4375 4.28125 10.875 4.375 11.25H6.78125C6.75 10.8438 6.75 10.4375 6.75 10C6.75 9.59375 6.75 9.1875 6.78125 8.75H4.375C4.28125 9.15625 4.25 9.59375 4.25 10ZM4.875 12.75C5.53125 14.0625 6.625 15.125 7.96875 15.7188C7.53125 14.9062 7.1875 13.9062 6.96875 12.75H4.875ZM6.96875 7.25C7.1875 6.125 7.53125 5.125 7.96875 4.3125C6.625 4.90625 5.53125 5.9375 4.875 7.25H6.96875ZM10.5 16.25C11.0625 16.25 12 14.9688 12.4688 12.75H8.5C8.96875 14.9688 9.90625 16.25 10.5 16.25ZM12.6875 11.25C12.7188 10.875 12.75 10.4375 12.75 10C12.75 9.5625 12.7188 9.15625 12.6875 8.75H8.28125C8.25 9.15625 8.25 9.5625 8.25 10C8.25 10.4375 8.25 10.875 8.28125 11.25H12.6875ZM13 15.7188C14.3438 15.125 15.4375 14.0625 16.0938 12.75H14C13.7812 13.9062 13.4375 14.9062 13 15.7188ZM14.1875 11.25H16.625C16.6875 10.875 16.75 10.4375 16.75 10C16.75 9.59375 16.6875 9.15625 16.625 8.75H14.1875C14.2188 9.1875 14.25 9.59375 14.25 10C14.25 10.4375 14.2188 10.8438 14.1875 11.25Z" fill="white"/>
</svg>
