<svg width="76" height="77" viewBox="0 0 76 77" fill="none" xmlns="http://www.w3.org/2000/svg">
<g filter="url(#filter0_dd_1490_154569)">
<path fill-rule="evenodd" clip-rule="evenodd" d="M70 38C70 55.6731 55.6731 70 38 70C20.3269 70 6 55.6731 6 38C6 20.3269 20.3269 6 38 6C55.6731 6 70 20.3269 70 38ZM74 38C74 57.8823 57.8823 74 38 74C18.1177 74 2 57.8823 2 38C2 18.1177 18.1177 2 38 2C57.8823 2 74 18.1177 74 38ZM38 68C54.5685 68 68 54.5685 68 38C68 21.4315 54.5685 8 38 8C21.4315 8 8 21.4315 8 38C8 54.5685 21.4315 68 38 68Z" fill="white"/>
<circle cx="38" cy="38" r="30" fill="#F72C40"/>
</g>
<defs>
<filter id="filter0_dd_1490_154569" x="0" y="0.5" width="76" height="76" filterUnits="userSpaceOnUse" color-interpolation-filters="sRGB">
<feFlood flood-opacity="0" result="BackgroundImageFix"/>
<feColorMatrix in="SourceAlpha" type="matrix" values="0 0 0 0 0 0 0 0 0 0 0 0 0 0 0 0 0 0 127 0" result="hardAlpha"/>
<feOffset dy="0.5"/>
<feGaussianBlur stdDeviation="1"/>
<feColorMatrix type="matrix" values="0 0 0 0 0.376471 0 0 0 0 0.380392 0 0 0 0 0.439216 0 0 0 0.16 0"/>
<feBlend mode="normal" in2="BackgroundImageFix" result="effect1_dropShadow_1490_154569"/>
<feColorMatrix in="SourceAlpha" type="matrix" values="0 0 0 0 0 0 0 0 0 0 0 0 0 0 0 0 0 0 127 0" result="hardAlpha"/>
<feOffset/>
<feGaussianBlur stdDeviation="0.5"/>
<feColorMatrix type="matrix" values="0 0 0 0 0.156863 0 0 0 0 0.160784 0 0 0 0 0.239216 0 0 0 0.08 0"/>
<feBlend mode="normal" in2="effect1_dropShadow_1490_154569" result="effect2_dropShadow_1490_154569"/>
<feBlend mode="normal" in="SourceGraphic" in2="effect2_dropShadow_1490_154569" result="shape"/>
</filter>
</defs>
</svg>
