<svg width="24" height="24" viewBox="0 0 24 24" fill="none" xmlns="http://www.w3.org/2000/svg">
<mask id="path-1-outside-1_3612_2992" maskUnits="userSpaceOnUse" x="3" y="2.71429" width="18" height="18" fill="black">
<rect fill="white" x="3" y="2.71429" width="18" height="18"/>
<path d="M6.375 7.83929C6.375 7.17523 6.92188 6.58929 7.625 6.58929C8.28906 6.58929 8.875 7.17523 8.875 7.83929C8.875 8.54242 8.28906 9.08929 7.625 9.08929C6.92188 9.08929 6.375 8.54242 6.375 7.83929ZM10.9453 3.46429C11.6094 3.46429 12.2344 3.73773 12.7031 4.20648L19.5781 11.0815C20.5547 12.058 20.5547 13.6596 19.5781 14.6362L14.3828 19.8315C13.4062 20.808 11.8047 20.808 10.8281 19.8315L3.95312 12.9565C3.48438 12.4877 3.25 11.8627 3.25 11.1987V5.33929C3.25 4.32367 4.07031 3.46429 5.125 3.46429H10.9453ZM5.28125 11.6284L12.1562 18.5034C12.3906 18.7768 12.8203 18.7768 13.0547 18.5034L18.25 13.308C18.5234 13.0737 18.5234 12.644 18.25 12.4096L11.375 5.53461C11.2578 5.41742 11.1016 5.33929 10.9453 5.33929H5.125V11.1987C5.125 11.3549 5.16406 11.5112 5.28125 11.6284Z"/>
</mask>
<path d="M6.375 7.83929C6.375 7.17523 6.92188 6.58929 7.625 6.58929C8.28906 6.58929 8.875 7.17523 8.875 7.83929C8.875 8.54242 8.28906 9.08929 7.625 9.08929C6.92188 9.08929 6.375 8.54242 6.375 7.83929ZM10.9453 3.46429C11.6094 3.46429 12.2344 3.73773 12.7031 4.20648L19.5781 11.0815C20.5547 12.058 20.5547 13.6596 19.5781 14.6362L14.3828 19.8315C13.4062 20.808 11.8047 20.808 10.8281 19.8315L3.95312 12.9565C3.48438 12.4877 3.25 11.8627 3.25 11.1987V5.33929C3.25 4.32367 4.07031 3.46429 5.125 3.46429H10.9453ZM5.28125 11.6284L12.1562 18.5034C12.3906 18.7768 12.8203 18.7768 13.0547 18.5034L18.25 13.308C18.5234 13.0737 18.5234 12.644 18.25 12.4096L11.375 5.53461C11.2578 5.41742 11.1016 5.33929 10.9453 5.33929H5.125V11.1987C5.125 11.3549 5.16406 11.5112 5.28125 11.6284Z" fill="white"/>
<path d="M12.1562 18.5034L12.2324 18.4381L12.227 18.4326L12.1562 18.5034ZM13.0547 18.5034L12.9838 18.4324L12.9788 18.4383L13.0547 18.5034ZM18.25 13.308L18.1847 13.2319L18.1793 13.2373L18.25 13.308ZM18.25 12.4096L18.1791 12.4805L18.1849 12.4855L18.25 12.4096ZM5.125 5.33929V5.23929H5.025V5.33929H5.125ZM6.375 7.83929H6.475C6.475 7.22842 6.97912 6.68929 7.625 6.68929V6.58929V6.48929C6.86463 6.48929 6.275 7.12204 6.275 7.83929H6.375ZM7.625 6.58929V6.68929C8.23383 6.68929 8.775 7.23046 8.775 7.83929H8.875H8.975C8.975 7.12 8.34429 6.48929 7.625 6.48929V6.58929ZM8.875 7.83929H8.775C8.775 8.48517 8.23587 8.98929 7.625 8.98929V9.08929V9.18929C8.34225 9.18929 8.975 8.59966 8.975 7.83929H8.875ZM7.625 9.08929V8.98929C6.9771 8.98929 6.475 8.48719 6.475 7.83929H6.375H6.275C6.275 8.59765 6.86665 9.18929 7.625 9.18929V9.08929ZM10.9453 3.46429V3.56429C11.5814 3.56429 12.1814 3.82614 12.6324 4.27719L12.7031 4.20648L12.7738 4.13577C12.2874 3.64932 11.6374 3.36429 10.9453 3.36429V3.46429ZM12.7031 4.20648L12.6324 4.27719L19.5074 11.1522L19.5781 11.0815L19.6488 11.0108L12.7738 4.13577L12.7031 4.20648ZM19.5781 11.0815L19.5074 11.1522C20.4449 12.0897 20.4449 13.6279 19.5074 14.5655L19.5781 14.6362L19.6488 14.7069C20.6644 13.6913 20.6644 12.0264 19.6488 11.0108L19.5781 11.0815ZM19.5781 14.6362L19.5074 14.5655L14.3121 19.7608L14.3828 19.8315L14.4535 19.9022L19.6488 14.7069L19.5781 14.6362ZM14.3828 19.8315L14.3121 19.7608C13.3746 20.6983 11.8363 20.6983 10.8988 19.7608L10.8281 19.8315L10.7574 19.9022C11.773 20.9178 13.4379 20.9178 14.4535 19.9022L14.3828 19.8315ZM10.8281 19.8315L10.8988 19.7608L4.02384 12.8858L3.95312 12.9565L3.88241 13.0272L10.7574 19.9022L10.8281 19.8315ZM3.95312 12.9565L4.02384 12.8858C3.57562 12.4376 3.35 11.8388 3.35 11.1987H3.25H3.15C3.15 11.8866 3.39313 12.5379 3.88241 13.0272L3.95312 12.9565ZM3.25 11.1987H3.35V5.33929H3.25H3.15V11.1987H3.25ZM3.25 5.33929H3.35C3.35 4.37754 4.12689 3.56429 5.125 3.56429V3.46429V3.36429C4.01373 3.36429 3.15 4.2698 3.15 5.33929H3.25ZM5.125 3.46429V3.56429H10.9453V3.46429V3.36429H5.125V3.46429ZM5.28125 11.6284L5.21054 11.6991L12.0855 18.5741L12.1562 18.5034L12.227 18.4326L5.35196 11.5576L5.28125 11.6284ZM12.1562 18.5034L12.0803 18.5684C12.3546 18.8884 12.8563 18.8884 13.1306 18.5684L13.0547 18.5034L12.9788 18.4383C12.7843 18.6652 12.4266 18.6652 12.2322 18.4383L12.1562 18.5034ZM13.0547 18.5034L13.1254 18.5741L18.3207 13.3788L18.25 13.308L18.1793 13.2373L12.984 18.4326L13.0547 18.5034ZM18.25 13.308L18.3151 13.384C18.6351 13.1097 18.6351 12.608 18.3151 12.3337L18.25 12.4096L18.1849 12.4855C18.4118 12.68 18.4118 13.0377 18.1849 13.2321L18.25 13.308ZM18.25 12.4096L18.3207 12.3389L11.4457 5.4639L11.375 5.53461L11.3043 5.60532L18.1793 12.4803L18.25 12.4096ZM11.375 5.53461L11.4457 5.4639C11.3145 5.33267 11.1341 5.23929 10.9453 5.23929V5.33929V5.43929C11.069 5.43929 11.2011 5.50216 11.3043 5.60532L11.375 5.53461ZM10.9453 5.33929V5.23929H5.125V5.33929V5.43929H10.9453V5.33929ZM5.125 5.33929H5.025V11.1987H5.125H5.225V5.33929H5.125ZM5.125 11.1987H5.025C5.025 11.3703 5.06798 11.5565 5.21054 11.6991L5.28125 11.6284L5.35196 11.5576C5.26014 11.4658 5.225 11.3395 5.225 11.1987H5.125Z" fill="white" mask="url(#path-1-outside-1_3612_2992)"/>
</svg>
