<svg width="64" height="64" viewBox="0 0 64 64" fill="none" xmlns="http://www.w3.org/2000/svg">
<path d="M30.25 38.3337C29.75 38.8337 28.8333 38.8337 28.3333 38.3337L23 33.0003C22.5 32.5003 22.5 31.5837 23 31.0837C23.5 30.5837 24.4167 30.5837 24.9167 31.0837L29.3333 35.5003L39 25.7503C39.5 25.2503 40.4167 25.2503 40.9167 25.7503C41.4167 26.2503 41.4167 27.167 40.9167 27.667L30.25 38.3337ZM53.3333 32.0003C53.3333 43.8337 43.75 53.3337 32 53.3337C20.1667 53.3337 10.6667 43.8337 10.6667 32.0003C10.6667 20.2503 20.1667 10.667 32 10.667C43.75 10.667 53.3333 20.2503 53.3333 32.0003ZM32 13.3337C21.6667 13.3337 13.3333 21.7503 13.3333 32.0003C13.3333 42.3337 21.6667 50.667 32 50.667C42.25 50.667 50.6667 42.3337 50.6667 32.0003C50.6667 21.7503 42.25 13.3337 32 13.3337Z" fill="#EBECEF"/>
</svg>
