<svg width="121" height="120" viewBox="0 0 121 120" fill="none" xmlns="http://www.w3.org/2000/svg">
<path d="M13.1201 20.1973H100.966C101.966 20.1973 102.777 21.0091 102.777 22.0098V34.4736C102.777 35.4743 101.966 36.2851 100.966 36.2852H13.1201C12.1195 36.2852 11.3076 35.4743 11.3076 34.4736V22.0098C11.3076 21.0091 12.1195 20.1973 13.1201 20.1973Z" fill="white"/>
<path d="M13.1201 20.1973H100.966C101.966 20.1973 102.777 21.0091 102.777 22.0098V34.4736C102.777 35.4743 101.966 36.2851 100.966 36.2852H13.1201C12.1195 36.2852 11.3076 35.4743 11.3076 34.4736V22.0098C11.3076 21.0091 12.1195 20.1973 13.1201 20.1973Z" stroke="#EBECEF" stroke-width="1.20789"/>
<rect x="15.5356" y="26.4297" width="66.4338" height="3.62366" rx="1.81183" fill="#EBECEF"/>
<path d="M94.3223 24.6174C96.3235 24.6174 97.9463 26.2402 97.9463 28.2415C97.9463 30.2427 96.3236 31.8655 94.3223 31.8655C92.321 31.8654 90.6982 30.2427 90.6982 28.2415C90.6983 26.2402 92.321 24.6175 94.3223 24.6174Z" stroke="#A5A9B5" stroke-width="1.20789"/>
<path d="M25.5264 40.9531H113.372C114.373 40.9531 115.184 41.765 115.184 42.7656V55.2295C115.184 56.2301 114.373 57.041 113.372 57.041H25.5264C24.5257 57.041 23.7139 56.2301 23.7139 55.2295V42.7656C23.7139 41.765 24.5257 40.9531 25.5264 40.9531Z" fill="white"/>
<path d="M25.5264 40.9531H113.372C114.373 40.9531 115.184 41.765 115.184 42.7656V55.2295C115.184 56.2301 114.373 57.041 113.372 57.041H25.5264C24.5257 57.041 23.7139 56.2301 23.7139 55.2295V42.7656C23.7139 41.765 24.5257 40.9531 25.5264 40.9531Z" stroke="#EBECEF" stroke-width="1.20789"/>
<rect x="27.9419" y="47.1855" width="66.4338" height="3.62366" rx="1.81183" fill="#EBECEF"/>
<path d="M106.719 53.225C109.054 53.225 110.946 51.3322 110.946 48.9974C110.946 46.6625 109.054 44.7698 106.719 44.7698C104.384 44.7698 102.491 46.6625 102.491 48.9974C102.491 51.3322 104.384 53.225 106.719 53.225Z" fill="#A5A9B5"/>
<path d="M108.635 47.1651C108.688 47.112 108.773 47.112 108.815 47.1651L109.123 47.4623C109.165 47.5154 109.165 47.6003 109.123 47.6428L105.938 50.8276C105.885 50.8807 105.811 50.8807 105.758 50.8276L104.335 49.4157C104.293 49.3626 104.293 49.2777 104.335 49.2352L104.643 48.9273C104.685 48.8849 104.77 48.8849 104.823 48.9273L105.843 49.9571L108.635 47.1651Z" fill="white"/>
<path d="M7.1709 61.7073H95.0166C96.0172 61.7073 96.8281 62.5191 96.8281 63.5198V75.9836C96.8281 76.9843 96.0172 77.7952 95.0166 77.7952H7.1709C6.17025 77.7952 5.3584 76.9843 5.3584 75.9836V63.5198C5.3584 62.5191 6.17025 61.7073 7.1709 61.7073Z" fill="white"/>
<path d="M7.1709 61.7073H95.0166C96.0172 61.7073 96.8281 62.5191 96.8281 63.5198V75.9836C96.8281 76.9843 96.0172 77.7952 95.0166 77.7952H7.1709C6.17025 77.7952 5.3584 76.9843 5.3584 75.9836V63.5198C5.3584 62.5191 6.17025 61.7073 7.1709 61.7073Z" stroke="#EBECEF" stroke-width="1.20789"/>
<rect x="9.58643" y="67.9399" width="66.4338" height="3.62366" rx="1.81183" fill="#EBECEF"/>
<path d="M88.373 66.1274C90.3743 66.1274 91.997 67.7502 91.9971 69.7515C91.9971 71.7528 90.3743 73.3755 88.373 73.3755C86.3718 73.3755 84.749 71.7527 84.749 69.7515C84.7491 67.7502 86.3718 66.1275 88.373 66.1274Z" stroke="#A5A9B5" stroke-width="1.20789"/>
<path d="M25.5264 82.2422H113.372C114.373 82.2422 115.184 83.054 115.184 84.0547V96.5186C115.184 97.5192 114.373 98.3301 113.372 98.3301H25.5264C24.5257 98.3301 23.7139 97.5192 23.7139 96.5186V84.0547C23.7139 83.054 24.5257 82.2422 25.5264 82.2422Z" fill="white"/>
<path d="M25.5264 82.2422H113.372C114.373 82.2422 115.184 83.054 115.184 84.0547V96.5186C115.184 97.5192 114.373 98.3301 113.372 98.3301H25.5264C24.5257 98.3301 23.7139 97.5192 23.7139 96.5186V84.0547C23.7139 83.054 24.5257 82.2422 25.5264 82.2422Z" stroke="#EBECEF" stroke-width="1.20789"/>
<rect x="27.9419" y="88.4746" width="66.4338" height="3.62366" rx="1.81183" fill="#EBECEF"/>
<path d="M106.729 86.6624C108.73 86.6624 110.353 88.2851 110.353 90.2864C110.353 92.2877 108.73 93.9104 106.729 93.9104C104.727 93.9104 103.104 92.2876 103.104 90.2864C103.105 88.2851 104.727 86.6624 106.729 86.6624Z" stroke="#A5A9B5" stroke-width="1.20789"/>
</svg>
