<svg width="62" height="42" viewBox="0 0 62 42" fill="none" xmlns="http://www.w3.org/2000/svg">
<path d="M58.7773 0.841919C60.1484 0.841919 61.3086 2.00208 61.3086 3.37317V38.8107C61.3086 40.2872 60.1484 41.3419 58.7773 41.3419H5.62109C2.77344 41.3419 0.558594 39.1271 0.558594 36.2794V6.74817C0.558594 5.37708 1.61328 4.21692 3.08984 4.21692H7.30859V3.37317C7.30859 2.00208 8.36328 0.841919 9.83984 0.841919H58.7773ZM3.93359 36.2794C3.93359 37.2286 4.67188 37.9669 5.62109 37.9669C6.46484 37.9669 7.30859 37.2286 7.30859 36.2794V7.59192H3.93359V36.2794ZM57.9336 37.9669V4.21692H10.6836V36.2794V36.3849C10.6836 36.8068 10.4727 37.545 10.3672 37.9669H57.9336Z" fill="#EBECEF"/>
<path d="M36.6211 21.0919L39.7461 24.2482C40.1523 24.6232 40.1523 25.2482 39.7461 25.6232L39.0586 26.3107C38.6836 26.7169 38.0586 26.7169 37.6836 26.3107L34.5586 23.1857L31.4023 26.3107C31.0273 26.7169 30.4023 26.7169 30.0273 26.3107L29.3398 25.6232C28.9336 25.2482 28.9336 24.6232 29.3398 24.2482L32.4648 21.0919L29.3398 17.9669C28.9336 17.5919 28.9336 16.9669 29.3398 16.5919L30.0273 15.9044C30.4023 15.4982 31.0273 15.4982 31.4023 15.9044L34.5586 19.0294L37.6836 15.9044C38.0586 15.4982 38.6836 15.4982 39.0586 15.9044L39.7461 16.5919C40.1523 16.9669 40.1523 17.5919 39.7461 17.9669L36.6211 21.0919Z" fill="#EBECEF"/>
</svg>
