<svg width="25" height="24" viewBox="0 0 25 24" fill="none" xmlns="http://www.w3.org/2000/svg">
<path d="M12.3906 21.25C11.125 21.25 10.1406 20.2656 10.1406 19H14.6055C14.6055 20.2656 13.6211 21.25 12.3906 21.25ZM19.9492 16.0117C20.1602 16.2227 20.2656 16.5039 20.2656 16.75C20.2305 17.3477 19.8086 17.875 19.1055 17.875H5.64062C4.9375 17.875 4.51562 17.3477 4.51562 16.75C4.48047 16.5039 4.58594 16.2227 4.79688 16.0117C5.46484 15.2734 6.76562 14.1836 6.76562 10.5625C6.76562 7.85547 8.66406 5.67578 11.2656 5.11328V4.375C11.2656 3.77734 11.7578 3.25 12.3906 3.25C12.9883 3.25 13.4805 3.77734 13.4805 4.375V5.11328C16.082 5.67578 17.9805 7.85547 17.9805 10.5625C17.9805 14.1836 19.2812 15.2734 19.9492 16.0117Z" fill="#292B32"/>
</svg>
