<svg width="20" height="21" viewBox="0 0 20 21" fill="none" xmlns="http://www.w3.org/2000/svg">
<path d="M9.85938 5.24414C9.95312 5.12695 10.1406 5.12695 10.2578 5.24414L15.1562 10.1426C15.2734 10.2598 15.2734 10.4238 15.1562 10.541L10.2578 15.4395C10.1406 15.5566 9.95312 15.5566 9.85938 15.4395L9.39062 14.9941C9.27344 14.877 9.27344 14.6895 9.39062 14.5957L13.0234 10.9395H5.03125C4.86719 10.9395 4.75 10.8223 4.75 10.6582V10.002C4.75 9.86133 4.86719 9.7207 5.03125 9.7207H13.0234L9.39062 6.08789C9.27344 5.99414 9.27344 5.80664 9.39062 5.68945L9.85938 5.24414Z" fill="#292B32"/>
</svg>
