<svg width="16" height="16" viewBox="0 0 16 16" fill="none" xmlns="http://www.w3.org/2000/svg">
<path d="M2 6.625C2.25781 6.625 2.46875 6.78906 2.60938 7L12.5 4V13L9.40625 12.0859C9.14844 13.0469 8.28125 13.75 7.25 13.75C6.00781 13.75 5 12.7422 5 11.5C5 11.2656 5.04688 11.0078 5.11719 10.7969L2.60938 10.0234C2.46875 10.2344 2.25781 10.375 2 10.375C1.57812 10.375 1.25 10.0469 1.25 9.625V7.375C1.25 6.97656 1.57812 6.625 2 6.625ZM6.19531 11.1016C6.14844 11.2422 6.125 11.3594 6.125 11.5C6.125 12.1328 6.61719 12.625 7.25 12.625C7.76562 12.625 8.21094 12.25 8.32812 11.7578L6.19531 11.1016ZM14.375 3.25C14.5625 3.25 14.75 3.4375 14.75 3.625V13.375C14.75 13.5859 14.5625 13.75 14.375 13.75H13.625C13.4141 13.75 13.25 13.5859 13.25 13.375V3.625C13.25 3.4375 13.4141 3.25 13.625 3.25H14.375Z" fill="white"/>
</svg>
