<svg width="32" height="32" viewBox="0 0 32 32" fill="none" xmlns="http://www.w3.org/2000/svg">
<rect width="32" height="32" rx="16" fill="#D9E5FC"/>
<path d="M8.75 14.125C9.00781 14.125 9.21875 14.2891 9.35938 14.5L19.25 11.5V20.5L16.1562 19.5859C15.8984 20.5469 15.0312 21.25 14 21.25C12.7578 21.25 11.75 20.2422 11.75 19C11.75 18.7656 11.7969 18.5078 11.8672 18.2969L9.35938 17.5234C9.21875 17.7344 9.00781 17.875 8.75 17.875C8.32812 17.875 8 17.5469 8 17.125V14.875C8 14.4766 8.32812 14.125 8.75 14.125ZM12.9453 18.6016C12.8984 18.7422 12.875 18.8594 12.875 19C12.875 19.6328 13.3672 20.125 14 20.125C14.5156 20.125 14.9609 19.75 15.0781 19.2578L12.9453 18.6016ZM21.125 10.75C21.3125 10.75 21.5 10.9375 21.5 11.125V20.875C21.5 21.0859 21.3125 21.25 21.125 21.25H20.375C20.1641 21.25 20 21.0859 20 20.875V11.125C20 10.9375 20.1641 10.75 20.375 10.75H21.125Z" fill="white"/>
</svg>
