<svg width="32" height="32" viewBox="0 0 32 32" fill="none" xmlns="http://www.w3.org/2000/svg">
<rect width="32" height="32" rx="16" fill="#1054DE"/>
<path d="M8.33594 16.4609C8.16016 16.3203 8.16016 16.0391 8.33594 15.8633L15.6836 8.51562C15.8594 8.33984 16.1055 8.33984 16.2812 8.51562L23.6289 15.8633C23.8047 16.0391 23.8047 16.3203 23.6289 16.4609L22.9609 17.1641C22.7852 17.3398 22.5039 17.3398 22.3633 17.1641L16.9141 11.7148V23.7031C16.9141 23.9492 16.7031 24.125 16.4922 24.125H15.5078C15.2617 24.125 15.0859 23.9492 15.0859 23.7031V11.7148L9.60156 17.1641C9.46094 17.3398 9.17969 17.3398 9.00391 17.1641L8.33594 16.4609Z" fill="white"/>
</svg>
