<svg width="24" height="25" viewBox="0 0 24 25" fill="none" xmlns="http://www.w3.org/2000/svg">
<path d="M19.5 20H4.5C4.10218 20 3.72064 19.842 3.43934 19.5607C3.15804 19.2794 3 18.8978 3 18.5V8C3 7.60218 3.15804 7.22064 3.43934 6.93934C3.72064 6.65804 4.10218 6.5 4.5 6.5H7.49945L8.99945 4.25H14.9995L16.4995 6.5H19.5C19.8978 6.5 20.2794 6.65804 20.5607 6.93934C20.842 7.22064 21 7.60218 21 8V18.5C21 18.8978 20.842 19.2794 20.5607 19.5607C20.2794 19.842 19.8978 20 19.5 20Z" stroke="#292B32" stroke-width="1.3" stroke-linecap="round" stroke-linejoin="round"/>
<path d="M12 16.25C13.864 16.25 15.375 14.739 15.375 12.875C15.375 11.011 13.864 9.5 12 9.5C10.136 9.5 8.625 11.011 8.625 12.875C8.625 14.739 10.136 16.25 12 16.25Z" stroke="#292B32" stroke-width="1.3" stroke-linecap="round" stroke-linejoin="round"/>
</svg>
