<svg width="20" height="20" viewBox="0 0 20 20" fill="none" xmlns="http://www.w3.org/2000/svg">
<path d="M10 2.1875C14.6816 2.1875 18.4668 5.30859 18.4668 9.09375C18.4668 12.9121 14.6816 16 10 16C8.9043 16 7.8418 15.834 6.91211 15.5352C5.91602 16.2324 4.32227 17.0625 2.29688 17.0625C1.96484 17.0625 1.66602 16.8965 1.5332 16.5977C1.43359 16.2988 1.4668 15.9668 1.69922 15.7344C1.73242 15.7344 2.76172 14.6055 3.22656 13.3105C2.13086 12.1484 1.5 10.6875 1.5 9.09375C1.5 5.30859 5.28516 2.1875 10 2.1875ZM10 14.4062C13.7852 14.4062 16.9062 12.0488 16.9062 9.09375C16.9062 6.17188 13.7852 3.78125 10 3.78125C6.18164 3.78125 3.09375 6.17188 3.09375 9.09375C3.09375 10.5215 3.79102 11.584 4.38867 12.2148L5.08594 12.9453L4.7207 13.875C4.55469 14.3398 4.32227 14.8047 4.05664 15.2031C4.85352 14.9375 5.51758 14.5723 5.98242 14.2402L6.61328 13.7754L7.37695 14.0078C8.20703 14.2734 9.10352 14.4062 10 14.4062Z" fill="#898E9E"/>
</svg>
