<svg width="69" height="60" viewBox="0 0 69 60" fill="none" xmlns="http://www.w3.org/2000/svg">
<path d="M67.1953 52.8203C68.3555 53.6641 68.5664 55.2461 67.6172 56.3008C66.7734 57.4609 65.1914 57.6719 64.1367 56.7227L1.69922 7.78516C0.539062 6.94141 0.328125 5.35938 1.27734 4.30469C1.69922 3.67188 2.4375 3.25 3.28125 3.25C3.80859 3.25 4.33594 3.46094 4.75781 3.88281L21 16.5391C21.1055 9.15625 27.1172 3.25 34.3945 3.25C41.8828 3.25 47.8945 9.36719 48 16.75C48 23.0781 43.7812 28.2461 37.9805 29.8281L67.1953 52.8203ZM31.3359 24.6602C32.2852 24.9766 33.3398 25.1875 34.5 25.1875C39.1406 25.1875 42.9375 21.4961 42.9375 16.75C42.9375 12.1094 39.1406 8.3125 34.5 8.3125C29.7539 8.3125 26.0625 12.1094 26.0625 16.75C26.0625 18.6484 26.5898 20.3359 27.6445 21.707L31.3359 24.6602ZM15.9375 52.1875H50.1094L56.1211 56.9336C55.6992 57.1445 55.1719 57.25 54.75 57.25H14.25C12.3516 57.25 10.875 55.7734 10.875 53.875C10.875 43.9609 18.6797 35.7344 28.5938 35.418L35.0273 40.375H29.4375C22.4766 40.375 16.7812 45.543 15.9375 52.1875Z" fill="#EBECEF"/>
</svg>
