<svg width="20" height="20" viewBox="0 0 20 20" fill="none" xmlns="http://www.w3.org/2000/svg">
<circle cx="10" cy="10" r="10" fill="white"/>
<rect x="1" y="1" width="18" height="18" rx="9" fill="#FFD54F"/>
<path d="M17.0586 11.4753C16.8669 12.0837 16.6169 12.642 16.2919 13.167H3.70857C3.38357 12.642 3.13357 12.0837 2.9419 11.4753C2.88357 11.2837 2.9169 11.0837 3.0419 10.9253C3.15857 10.7587 3.3419 10.667 3.5419 10.667H16.4586C16.6586 10.667 16.8419 10.7587 16.9586 10.9253C17.0836 11.0837 17.1169 11.2837 17.0586 11.4753Z" fill="white"/>
<path d="M16.2923 13.167C14.9757 15.3253 12.6173 16.6836 10.0007 16.6836C7.38398 16.6836 5.02565 15.3253 3.70898 13.167H16.2923Z" fill="#E53935"/>
<path d="M7.70768 7.54182C7.36268 7.54182 7.08268 7.26182 7.08268 6.91682C7.08268 6.45766 6.70935 6.08349 6.24935 6.08349C5.78935 6.08349 5.41602 6.45766 5.41602 6.91682C5.41602 7.26182 5.13602 7.54182 4.79102 7.54182C4.44602 7.54182 4.16602 7.26182 4.16602 6.91682C4.16602 5.76849 5.10018 4.8335 6.24935 4.8335C7.39852 4.8335 8.33268 5.76849 8.33268 6.91682C8.33268 7.26182 8.05268 7.54182 7.70768 7.54182Z" fill="#6D4C41"/>
<path d="M15.2077 7.54182C14.8627 7.54182 14.5827 7.26182 14.5827 6.91682C14.5827 6.45766 14.2093 6.08349 13.7493 6.08349C13.2893 6.08349 12.916 6.45766 12.916 6.91682C12.916 7.26182 12.636 7.54182 12.291 7.54182C11.946 7.54182 11.666 7.26182 11.666 6.91682C11.666 5.76849 12.6002 4.8335 13.7493 4.8335C14.8985 4.8335 15.8327 5.76849 15.8327 6.91682C15.8327 7.26182 15.5527 7.54182 15.2077 7.54182Z" fill="#6D4C41"/>
</svg>
