<svg width="15" height="19" viewBox="0 0 15 19" fill="none" xmlns="http://www.w3.org/2000/svg">
<path d="M12.752 2.5C13.666 2.5 14.4395 3.27344 14.4395 4.1875V16.5625C14.4395 17.5117 13.666 18.25 12.752 18.25H2.62695C1.67773 18.25 0.939453 17.5117 0.939453 16.5625V4.1875C0.939453 3.27344 1.67773 2.5 2.62695 2.5H5.43945C5.43945 1.26953 6.42383 0.25 7.68945 0.25C8.91992 0.25 9.93945 1.26953 9.93945 2.5H12.752ZM7.68945 1.65625C7.19727 1.65625 6.8457 2.04297 6.8457 2.5C6.8457 2.99219 7.19727 3.34375 7.68945 3.34375C8.14648 3.34375 8.5332 2.99219 8.5332 2.5C8.5332 2.04297 8.14648 1.65625 7.68945 1.65625ZM11.9434 9.8125C12.084 9.67188 12.1191 9.39062 11.9434 9.21484L10.959 8.23047C10.7832 8.05469 10.502 8.05469 10.3613 8.23047L6.63477 11.9219L5.01758 10.3047C4.8418 10.1289 4.56055 10.1289 4.41992 10.2695L3.40039 11.2891C3.25977 11.4297 3.22461 11.7109 3.40039 11.8867L6.31836 14.8047C6.45898 14.9805 6.74023 14.9805 6.91602 14.8047L11.9434 9.8125Z" fill="#292B32"/>
</svg>
