<svg width="32" height="32" viewBox="0 0 32 32" fill="none" xmlns="http://www.w3.org/2000/svg">
<path d="M13.0557 5.88079C12.7286 6.10871 12.7286 6.59645 13.0557 6.82437L17.4524 9.88841C17.8292 10.151 18.3432 9.87878 18.3432 9.41662V7.64262C22.5838 8.70107 25.7278 12.567 25.7278 17.1741C25.7278 22.5966 21.3725 26.9924 16 26.9924C10.6275 26.9924 6.27219 22.5966 6.27219 17.1741C6.27219 13.8617 7.89636 10.932 10.3898 9.15206C10.9021 8.78637 11.0237 8.07079 10.6614 7.55377C10.299 7.03674 9.59005 6.91405 9.07779 7.27973C6.008 9.47111 4 13.0859 4 17.1741C4 23.8631 9.37258 29.2857 16 29.2857C22.6274 29.2857 28 23.8631 28 17.1741C28 11.2944 23.8489 6.3933 18.3432 5.29338V3.28855C18.3432 2.82639 17.8292 2.55417 17.4524 2.81676L13.0557 5.88079Z" fill="white"/>
<path fill-rule="evenodd" clip-rule="evenodd" d="M16.5648 14.1246C17.0483 13.2706 17.8461 12.5158 18.9112 12.5158C19.9764 12.5158 20.7742 13.2706 21.2577 14.1246C21.755 15.003 22.0355 16.159 22.0355 17.3891C22.0355 18.6193 21.755 19.7753 21.2577 20.6536C20.7742 21.5076 19.9764 22.2624 18.9112 22.2624C17.8461 22.2624 17.0483 21.5076 16.5648 20.6536C16.0675 19.7753 15.787 18.6193 15.787 17.3891C15.787 16.159 16.0675 15.003 16.5648 14.1246ZM18.0444 14.978C17.7193 15.5522 17.4911 16.4028 17.4911 17.3891C17.4911 18.3754 17.7193 19.2261 18.0444 19.8003C18.3832 20.3988 18.7215 20.5424 18.9112 20.5424C19.101 20.5424 19.4393 20.3988 19.7781 19.8003C20.1032 19.2261 20.3314 18.3754 20.3314 17.3891C20.3314 16.4028 20.1032 15.5522 19.7781 14.978C19.4393 14.3795 19.101 14.2358 18.9112 14.2358C18.7215 14.2358 18.3832 14.3795 18.0444 14.978Z" fill="white"/>
<path d="M10.1918 14.2438C9.80405 14.5129 9.70582 15.0483 9.97242 15.4397C10.239 15.8311 10.7695 15.9302 11.1573 15.6612L12.0947 15.0107L12.0947 21.1158C12.0947 21.5907 12.4762 21.9757 12.9467 21.9757C13.4173 21.9757 13.7988 21.5907 13.7988 21.1158V13.3758C13.7988 13.0565 13.6235 12.7634 13.3434 12.6147C13.0634 12.466 12.7248 12.4862 12.464 12.6672L10.1918 14.2438Z" fill="white"/>
</svg>
