<svg width="16" height="16" viewBox="0 0 16 16" fill="none" xmlns="http://www.w3.org/2000/svg">
<path d="M8 5.875V5.89844C9.45312 5.89844 10.625 7.07031 10.625 8.5C10.625 9.95312 9.45312 11.125 8 11.125C6.54688 11.125 5.375 9.95312 5.375 8.5C5.375 8.24219 5.42188 8.00781 5.49219 7.77344C5.65625 7.89062 5.89062 7.9375 6.125 7.9375C6.82812 7.9375 7.4375 7.35156 7.4375 6.625C7.41406 6.41406 7.36719 6.17969 7.25 5.99219C7.48438 5.92188 7.74219 5.89844 8 5.875ZM14.6562 8.17188C14.7031 8.26562 14.7266 8.38281 14.7266 8.52344C14.7266 8.64062 14.7031 8.75781 14.6562 8.85156C13.3906 11.3359 10.8594 13 8 13C5.11719 13 2.58594 11.3359 1.32031 8.85156C1.27344 8.75781 1.25 8.64062 1.25 8.5C1.25 8.38281 1.27344 8.26562 1.32031 8.17188C2.58594 5.6875 5.11719 4 8 4C10.8594 4 13.3906 5.6875 14.6562 8.17188ZM8 11.875C10.2969 11.875 12.4297 10.5859 13.5547 8.5C12.4297 6.41406 10.2969 5.125 8 5.125C5.67969 5.125 3.54688 6.41406 2.42188 8.5C3.54688 10.5859 5.67969 11.875 8 11.875Z" fill="white"/>
</svg>
