<svg width="60" height="40" viewBox="0 0 60 40" fill="none" xmlns="http://www.w3.org/2000/svg">
<g>
<path d="M57.5 0C58.8542 0 60 1.14583 60 2.5V37.5C60 38.9583 58.8542 40 57.5 40H5C2.1875 40 0 37.8125 0 35V5.83333C0 4.47917 1.04167 3.33333 2.5 3.33333H6.66667V2.5C6.66667 1.14583 7.70833 0 9.16667 0H57.5ZM3.33333 35C3.33333 35.9375 4.0625 36.6667 5 36.6667C5.83333 36.6667 6.66667 35.9375 6.66667 35V6.66667H3.33333V35ZM56.6667 36.6667V3.33333H10V35V35.1042C10 35.5208 9.79167 36.25 9.6875 36.6667H56.6667Z" fill="#A5A9B5"/>
<path d="M36.0494 25.4322C36.0494 26.8211 34.9383 27.9013 33.5803 27.9013C32.1914 27.9013 31.1111 26.8211 31.1111 25.4322C31.1111 24.0742 32.1914 22.9631 33.5803 22.9631C34.9383 22.9631 36.0494 24.0742 36.0494 25.4322ZM31.3889 12.9013C31.358 12.4692 31.6975 12.0989 32.1296 12.0989H35C35.4321 12.0989 35.7716 12.4692 35.7407 12.9013L35.3395 21.2964C35.3086 21.6668 34.9691 21.9754 34.5988 21.9754H32.5309C32.1605 21.9754 31.821 21.6668 31.7901 21.2964L31.3889 12.9013Z" fill="#A5A9B5"/>
</g>
</svg>
