<svg width="24" height="25" viewBox="0 0 24 25" fill="none" xmlns="http://www.w3.org/2000/svg">
<rect y="0.5" width="24" height="24" rx="12" fill="#1054DE"/>
<mask id="path-3-outside-1_1182_12709" maskUnits="userSpaceOnUse" x="6" y="6.5" width="12" height="13" fill="black">
<rect fill="white" x="6" y="6.5" width="12" height="13"/>
<path d="M6.89062 13.1406C6.77344 13.0469 6.77344 12.8594 6.89062 12.7422L11.7891 7.84375C11.9062 7.72656 12.0703 7.72656 12.1875 7.84375L17.0859 12.7422C17.2031 12.8594 17.2031 13.0469 17.0859 13.1406L16.6406 13.6094C16.5234 13.7266 16.3359 13.7266 16.2422 13.6094L12.6094 9.97656V17.9688C12.6094 18.1328 12.4688 18.25 12.3281 18.25H11.6719C11.5078 18.25 11.3906 18.1328 11.3906 17.9688V9.97656L7.73438 13.6094C7.64062 13.7266 7.45312 13.7266 7.33594 13.6094L6.89062 13.1406Z"/>
</mask>
<path d="M6.89062 13.1406C6.77344 13.0469 6.77344 12.8594 6.89062 12.7422L11.7891 7.84375C11.9062 7.72656 12.0703 7.72656 12.1875 7.84375L17.0859 12.7422C17.2031 12.8594 17.2031 13.0469 17.0859 13.1406L16.6406 13.6094C16.5234 13.7266 16.3359 13.7266 16.2422 13.6094L12.6094 9.97656V17.9688C12.6094 18.1328 12.4688 18.25 12.3281 18.25H11.6719C11.5078 18.25 11.3906 18.1328 11.3906 17.9688V9.97656L7.73438 13.6094C7.64062 13.7266 7.45312 13.7266 7.33594 13.6094L6.89062 13.1406Z" fill="white"/>
<path d="M6.89062 13.1406L7.10812 12.934L7.09402 12.9192L7.07803 12.9064L6.89062 13.1406ZM17.0859 13.1406L16.8985 12.9064L16.8825 12.9192L16.8684 12.934L17.0859 13.1406ZM16.6406 13.6094L16.8528 13.8216L16.8581 13.816L16.6406 13.6094ZM16.2422 13.6094L16.4764 13.422L16.4661 13.409L16.4543 13.3972L16.2422 13.6094ZM12.6094 9.97656L12.8215 9.76443L12.3094 9.2523V9.97656H12.6094ZM11.3906 9.97656H11.6906V9.25558L11.1792 9.76375L11.3906 9.97656ZM7.73438 13.6094L7.52293 13.3966L7.5108 13.4086L7.50011 13.422L7.73438 13.6094ZM7.33594 13.6094L7.11837 13.8161L7.12381 13.8215L7.33594 13.6094ZM7.07803 12.9064C7.08751 12.9139 7.09435 12.9234 7.09834 12.9323C7.10212 12.9407 7.10273 12.947 7.10273 12.9502C7.10273 12.9558 7.1009 12.9562 7.10276 12.9543L6.67849 12.5301C6.45891 12.7496 6.42115 13.1492 6.70322 13.3749L7.07803 12.9064ZM7.10276 12.9543L12.0012 8.05588L11.5769 7.63162L6.67849 12.5301L7.10276 12.9543ZM12.0012 8.05588C12.0056 8.05145 12.0069 8.05164 12.0039 8.05295C12.0008 8.05432 11.9953 8.05586 11.9883 8.05586C11.9813 8.05586 11.9758 8.05432 11.9727 8.05295C11.9696 8.05164 11.9709 8.05145 11.9754 8.05588L12.3996 7.63162C12.2902 7.52221 12.1455 7.45586 11.9883 7.45586C11.831 7.45586 11.6863 7.52221 11.5769 7.63162L12.0012 8.05588ZM11.9754 8.05588L16.8738 12.9543L17.2981 12.5301L12.3996 7.63162L11.9754 8.05588ZM16.8738 12.9543C16.8757 12.9562 16.8738 12.9558 16.8738 12.9502C16.8738 12.947 16.8744 12.9407 16.8782 12.9323C16.8822 12.9234 16.8891 12.9139 16.8985 12.9064L17.2733 13.3749C17.5554 13.1492 17.5177 12.7496 17.2981 12.5301L16.8738 12.9543ZM16.8684 12.934L16.4231 13.4028L16.8581 13.816L17.3034 13.3472L16.8684 12.934ZM16.4285 13.3972C16.4266 13.3991 16.427 13.3973 16.4326 13.3973C16.4358 13.3973 16.4421 13.3979 16.4505 13.4017C16.4594 13.4057 16.4689 13.4125 16.4764 13.422L16.0079 13.7968C16.2336 14.0789 16.6332 14.0411 16.8528 13.8215L16.4285 13.3972ZM16.4543 13.3972L12.8215 9.76443L12.3972 10.1887L16.0301 13.8215L16.4543 13.3972ZM12.3094 9.97656V17.9688H12.9094V9.97656H12.3094ZM12.3094 17.9688C12.3094 17.9662 12.3101 17.9623 12.3118 17.9584C12.3133 17.955 12.3149 17.9533 12.3155 17.9528C12.316 17.9524 12.3164 17.9521 12.3173 17.9517C12.3183 17.9513 12.3218 17.95 12.3281 17.95V18.55C12.618 18.55 12.9094 18.3144 12.9094 17.9688H12.3094ZM12.3281 17.95H11.6719V18.55H12.3281V17.95ZM11.6719 17.95C11.6668 17.95 11.6665 17.9491 11.6696 17.9504C11.6728 17.9516 11.6774 17.9543 11.6819 17.9588C11.6864 17.9633 11.689 17.9679 11.6902 17.971C11.6915 17.9741 11.6906 17.9739 11.6906 17.9688H11.0906C11.0906 18.2985 11.3421 18.55 11.6719 18.55V17.95ZM11.6906 17.9688V9.97656H11.0906V17.9688H11.6906ZM11.1792 9.76375L7.52293 13.3966L7.94582 13.8222L11.6021 10.1894L11.1792 9.76375ZM7.50011 13.422C7.5077 13.4125 7.51718 13.4057 7.52607 13.4017C7.53447 13.3979 7.54079 13.3973 7.54395 13.3973C7.54959 13.3973 7.54992 13.3991 7.54807 13.3972L7.12381 13.8215C7.34339 14.0411 7.74298 14.0789 7.96864 13.7968L7.50011 13.422ZM7.55344 13.4028L7.10812 12.934L6.67313 13.3472L7.11844 13.816L7.55344 13.4028Z" fill="white" mask="url(#path-3-outside-1_1182_12709)"/>
</svg>
