<svg width="33" height="32" viewBox="0 0 33 32" fill="none" xmlns="http://www.w3.org/2000/svg">
<path d="M18.6094 5.92627C19.125 6.16064 19.5 6.72314 19.5 7.28564V25.2856C19.5 25.895 19.125 26.4106 18.6094 26.6919C18.375 26.7856 18.1875 26.7856 18 26.7856C17.625 26.7856 17.25 26.6919 16.9688 26.3169L10.6406 20.6919H6.75C5.48438 20.6919 4.5 19.7075 4.5 18.4888V14.0356C4.5 12.8169 5.48438 11.7856 6.75 11.7856H10.6406L16.9688 6.20752C17.25 5.92627 17.625 5.78564 18 5.78564C18.1875 5.78564 18.375 5.83252 18.6094 5.92627ZM17.9531 25.2856L17.9062 7.33252L11.2031 13.2856H6.75C6.32812 13.2856 6 13.6138 6 14.0356V18.5356C6 18.9106 6.32812 19.2856 6.75 19.2856H11.2031L17.9531 25.2856ZM26.0156 8.92627C28.5 10.6138 30 13.3325 30 16.2856C30 19.2388 28.5 22.0044 26.0156 23.6919C25.875 23.7856 25.7344 23.7856 25.5938 23.7856C25.3594 23.7856 25.125 23.6919 24.9844 23.4575C24.75 23.1294 24.8438 22.6606 25.1719 22.4263C27.2344 21.0669 28.5 18.77 28.5 16.2856C28.5 13.8481 27.2344 11.5513 25.1719 10.1919C24.8438 9.95752 24.75 9.48877 24.9844 9.16064C25.2188 8.78564 25.6875 8.69189 26.0156 8.92627ZM23.5312 12.6763C24.75 13.52 25.5 14.8794 25.5 16.2856C25.5 17.7388 24.75 19.0981 23.5312 19.9419C23.3906 20.0356 23.25 20.0356 23.1094 20.0356C22.875 20.0356 22.6406 19.9419 22.5 19.7075C22.2656 19.3794 22.3594 18.9106 22.6875 18.6763C23.4844 18.1606 24 17.27 24 16.2856C24 15.3481 23.4844 14.4575 22.6875 13.9419C22.3594 13.7075 22.2656 13.2388 22.5 12.9106C22.7344 12.5356 23.2031 12.4419 23.5312 12.6763Z" fill="white"/>
</svg>
