<svg width="22" height="22" viewBox="0 0 22 22" fill="none" xmlns="http://www.w3.org/2000/svg">
<path d="M17.0002 8.96667C17.5314 8.96667 18.0002 9.43542 18.0002 9.96667V10.9667C18.0002 11.5292 17.5314 11.9667 17.0002 11.9667H12.5002V16.4667C12.5002 17.0292 12.0314 17.4667 11.5002 17.4667H10.5002C9.93766 17.4667 9.50016 17.0292 9.50016 16.4667V11.9667H5.00016C4.43766 11.9667 4.00016 11.5292 4.00016 10.9667V9.96667C4.00016 9.43542 4.43766 8.96667 5.00016 8.96667H9.50016V4.46667C9.50016 3.93542 9.93766 3.46667 10.5002 3.46667H11.5002C12.0314 3.46667 12.5002 3.93542 12.5002 4.46667V8.96667H17.0002Z" fill="#292B32"/>
</svg>
