<svg width="15" height="16" viewBox="0 0 15 16" fill="none" xmlns="http://www.w3.org/2000/svg">
<path d="M7.68945 16C6.56445 16 5.68945 15.125 5.68945 14H9.6582C9.6582 15.125 8.7832 16 7.68945 16ZM14.4082 11.3438C14.5957 11.5312 14.6895 11.7812 14.6895 12C14.6582 12.5312 14.2832 13 13.6582 13H1.68945C1.06445 13 0.689453 12.5312 0.689453 12C0.658203 11.7812 0.751953 11.5312 0.939453 11.3438C1.5332 10.6875 2.68945 9.71875 2.68945 6.5C2.68945 4.09375 4.37695 2.15625 6.68945 1.65625V1C6.68945 0.46875 7.12695 0 7.68945 0C8.2207 0 8.6582 0.46875 8.6582 1V1.65625C10.9707 2.15625 12.6582 4.09375 12.6582 6.5C12.6582 9.71875 13.8145 10.6875 14.4082 11.3438Z" fill="#292B32"/>
</svg>
