<svg width="14" height="4" viewBox="0 0 14 4" fill="none" xmlns="http://www.w3.org/2000/svg">
<path d="M8.5 2C8.5 2.84375 7.8125 3.5 7 3.5C6.15625 3.5 5.5 2.84375 5.5 2C5.5 1.1875 6.15625 0.5 7 0.5C7.8125 0.5 8.5 1.1875 8.5 2ZM12.25 0.5C13.0625 0.5 13.75 1.1875 13.75 2C13.75 2.84375 13.0625 3.5 12.25 3.5C11.4062 3.5 10.75 2.84375 10.75 2C10.75 1.1875 11.4062 0.5 12.25 0.5ZM1.75 0.5C2.5625 0.5 3.25 1.1875 3.25 2C3.25 2.84375 2.5625 3.5 1.75 3.5C0.90625 3.5 0.25 2.84375 0.25 2C0.25 1.1875 0.90625 0.5 1.75 0.5Z" fill="#898E9E"/>
</svg>
