<svg width="33" height="33" viewBox="0 0 33 33" fill="none" xmlns="http://www.w3.org/2000/svg">
<g clip-path="url(#clip0_6145_23620)">
<path d="M16.9785 32.75C25.8151 32.75 32.9785 25.5866 32.9785 16.75C32.9785 7.91344 25.8151 0.75 16.9785 0.75C8.14196 0.75 0.978516 7.91344 0.978516 16.75C0.978516 25.5866 8.14196 32.75 16.9785 32.75Z" fill="#FFD54F"/>
<path d="M10.3112 15.4166C11.784 15.4166 12.9779 14.2227 12.9779 12.75C12.9779 11.2772 11.784 10.0833 10.3112 10.0833C8.83844 10.0833 7.64453 11.2772 7.64453 12.75C7.64453 14.2227 8.83844 15.4166 10.3112 15.4166Z" fill="#6D4C41"/>
<path d="M23.6452 15.4166C25.1179 15.4166 26.3118 14.2227 26.3118 12.75C26.3118 11.2772 25.1179 10.0833 23.6452 10.0833C22.1724 10.0833 20.9785 11.2772 20.9785 12.75C20.9785 14.2227 22.1724 15.4166 23.6452 15.4166Z" fill="#6D4C41"/>
<path d="M22.0033 27.587C21.6525 27.587 21.3017 27.4537 21.0349 27.1851C18.8679 25.018 15.0893 25.018 12.9241 27.1851C12.3888 27.7204 11.5209 27.7204 10.9855 27.1851C10.4501 26.6515 10.4501 25.7818 10.9855 25.2464C12.5861 23.6458 14.7148 22.7651 16.9786 22.7651C19.2425 22.7651 21.3711 23.6458 22.9717 25.2483C23.5071 25.7836 23.5071 26.6515 22.9717 27.1869C22.705 27.4536 22.3541 27.587 22.0033 27.587Z" fill="#6D4C41"/>
<path d="M25.8018 16.8487C25.4285 16.3087 24.5298 16.3087 24.1565 16.8487C23.6018 17.6513 22.3125 19.638 22.3125 20.75C22.3125 22.2207 23.5085 23.4167 24.9792 23.4167C26.4498 23.4167 27.6458 22.2207 27.6458 20.75C27.6458 19.638 26.3565 17.6513 25.8018 16.8487Z" fill="#00BCD4"/>
</g>
<defs>
<clipPath id="clip0_6145_23620">
<rect width="32" height="32" fill="white" transform="translate(0.978516 0.75)"/>
</clipPath>
</defs>
</svg>
