<svg width="25" height="24" viewBox="0 0 25 24" fill="none" xmlns="http://www.w3.org/2000/svg">
<path d="M8.75195 10.5625C9.34961 10.5625 9.8418 11.0898 9.8418 11.6875C9.8418 12.3203 9.34961 12.8125 8.75195 12.8125C8.11914 12.8125 7.62695 12.3203 7.62695 11.6875C7.62695 11.0898 8.11914 10.5625 8.75195 10.5625ZM12.6895 10.5625C13.2871 10.5625 13.7793 11.0898 13.7793 11.6875C13.7793 12.25 13.252 12.7773 12.6895 12.7773C12.0918 12.7773 11.5645 12.2852 11.5645 11.6875C11.5645 11.0547 12.0566 10.5625 12.6895 10.5625ZM16.627 10.5625C17.2246 10.5625 17.752 11.0898 17.7168 11.6875C17.7168 12.3203 17.2246 12.8125 16.627 12.8125C16.0293 12.8125 15.502 12.3203 15.502 11.6875C15.502 11.0898 15.9941 10.5625 16.627 10.5625ZM12.6895 4.375C17.6465 4.375 21.6543 7.71484 21.6543 11.7227C21.6543 15.7305 17.6465 19 12.6895 19C11.5293 19 10.4043 18.8242 9.41992 18.5078C8.36523 19.2461 6.67773 20.125 4.5332 20.125C4.18164 20.125 3.86523 19.9492 3.75977 19.5977C3.6543 19.2812 3.68945 18.9297 3.93555 18.6836C3.93555 18.6836 5.02539 17.4883 5.55273 16.1172C4.39258 14.8867 3.68945 13.3398 3.68945 11.6875C3.68945 7.64453 7.69727 4.375 12.6895 4.375ZM12.6895 17.3125C16.6973 17.3125 19.9316 14.8164 19.9316 11.6875C19.9316 8.59375 16.6621 6.0625 12.6543 6.0625C8.64648 6.0625 5.37695 8.59375 5.37695 11.6875C5.37695 13.1992 6.11523 14.3242 6.74805 14.9922L7.48633 15.7656L7.09961 16.75C6.92383 17.2422 6.67773 17.7344 6.39648 18.1562C7.24023 17.875 7.94336 17.4883 8.43555 17.1367L9.10352 16.6445L9.91211 16.8906C10.791 17.1719 11.7402 17.3125 12.6895 17.3125Z" fill="#292B32"/>
</svg>
