<svg width="33" height="33" viewBox="0 0 33 33" fill="none" xmlns="http://www.w3.org/2000/svg">
<path d="M11.25 9.28571C16.5938 9.28571 21 13.692 21 19.0357C21 24.4263 16.5938 28.7857 11.25 28.7857C5.85938 28.7857 1.5 24.4263 1.5 19.0357C1.5 13.692 5.85938 9.28571 11.25 9.28571ZM11.25 26.5357C15.375 26.5357 18.75 23.2076 18.75 19.0357C18.75 14.9107 15.375 11.5357 11.25 11.5357C7.07812 11.5357 3.75 14.9107 3.75 19.0357C3.75 23.2076 7.07812 26.5357 11.25 26.5357ZM14.1094 20.7232C14.5312 20.2545 15.2344 20.2076 15.7031 20.6295C16.1719 21.0045 16.2188 21.7076 15.8438 22.1763C14.6719 23.5357 13.0312 24.2857 11.25 24.2857C9.46875 24.2857 7.78125 23.5357 6.60938 22.1763C6.23438 21.7076 6.28125 21.0045 6.75 20.6295C7.21875 20.2076 7.92188 20.2545 8.34375 20.7232C9.75 22.4107 12.7031 22.4107 14.1094 20.7232ZM8.25 18.2857C7.40625 18.2857 6.75 17.6295 6.75 16.7857C6.75 15.9888 7.40625 15.2857 8.25 15.2857C9.04688 15.2857 9.75 15.9888 9.75 16.7857C9.75 17.6295 9.04688 18.2857 8.25 18.2857ZM14.25 18.2857C13.4062 18.2857 12.75 17.6295 12.75 16.7857C12.75 15.9888 13.4062 15.2857 14.25 15.2857C15.0469 15.2857 15.75 15.9888 15.75 16.7857C15.75 17.6295 15.0469 18.2857 14.25 18.2857ZM30.75 8.91071C31.125 8.91071 31.5 9.28571 31.5 9.66071V10.4107C31.5 10.8326 31.125 11.1607 30.75 11.1607H27.375V14.5357C27.375 14.9576 27 15.2857 26.625 15.2857H25.875C25.4531 15.2857 25.125 14.9576 25.125 14.5357V11.1607H21.75C21.3281 11.1607 21 10.8326 21 10.4107V9.66071C21 9.28571 21.3281 8.91071 21.75 8.91071H25.125V5.53571C25.125 5.16071 25.4531 4.78571 25.875 4.78571H26.625C27 4.78571 27.375 5.16071 27.375 5.53571V8.91071H30.75Z" fill="#A5A9B5"/>
</svg>
