<svg width="49" height="48" viewBox="0 0 49 48" fill="none" xmlns="http://www.w3.org/2000/svg">
<path d="M46.5781 39.6172C46.7891 39.8281 47 40.1797 47 40.5312C47 40.8125 46.8594 41.0234 46.7188 41.2344L46.0156 42.0781C45.8047 42.3594 45.5234 42.5 45.1016 42.5C44.8906 42.5 44.6094 42.4297 44.4688 42.2891L2.42188 9.38281C2.14062 9.24219 1.92969 8.89062 1.92969 8.53906C1.92969 8.25781 2.07031 8.04688 2.21094 7.83594L2.91406 6.92188C3.125 6.71094 3.40625 6.57031 3.82812 6.57031C4.03906 6.57031 4.32031 6.64062 4.53125 6.78125L46.5781 39.6172ZM22.8125 16.8359C23.375 16.6953 23.9375 16.6953 24.5 16.625C28.7188 16.625 32.1641 20 32.3047 24.2188L22.8125 16.8359ZM26.1172 32.2344C25.5547 32.375 24.9922 32.375 24.5 32.375C20.2109 32.375 16.7656 29.0703 16.625 24.8516L26.1172 32.2344ZM24.5 14.375C23.0938 14.375 21.6875 14.5859 20.3516 14.9375L17.1172 12.3359C19.4375 11.4922 21.8984 11 24.5 11C33.0781 11 40.6719 16.0625 44.4688 23.5156C44.6094 23.7969 44.75 24.1484 44.75 24.5703C44.75 24.9219 44.6094 25.2734 44.4688 25.5547C43.4844 27.5234 42.2188 29.2812 40.7422 30.8281L38.0703 28.7891C39.3359 27.5234 40.3203 26.1172 41.1641 24.5C37.7891 18.2422 31.3906 14.375 24.5 14.375ZM24.5 34.625C25.8359 34.625 27.2422 34.4844 28.5781 34.1328L31.8125 36.7344C29.4922 37.5078 27.0312 38 24.5 38C15.8516 38 8.25781 33.0078 4.46094 25.5547C4.32031 25.2734 4.25 24.9219 4.25 24.5C4.25 24.1484 4.32031 23.7969 4.46094 23.5156C5.44531 21.5469 6.71094 19.7891 8.1875 18.2422L10.8594 20.2812C9.59375 21.5469 8.60938 22.9531 7.76562 24.5C11.1406 30.7578 17.5391 34.625 24.5 34.625Z" fill="white"/>
</svg>
