<svg width="17" height="16" viewBox="0 0 17 16" fill="none" xmlns="http://www.w3.org/2000/svg">
<path d="M13.0391 4.375C13.2266 4.375 13.4141 4.5625 13.4141 4.75V5.125C13.4141 5.33594 13.2266 5.5 13.0391 5.5H12.6641L12.1484 13.4453C12.125 14.0312 11.6094 14.5 11.0234 14.5H5.28125C4.69531 14.5 4.17969 14.0312 4.15625 13.4453L3.66406 5.5H3.28906C3.07812 5.5 2.91406 5.33594 2.91406 5.125V4.75C2.91406 4.5625 3.07812 4.375 3.28906 4.375H5.21094L6.00781 3.0625C6.19531 2.75781 6.61719 2.5 6.96875 2.5H9.33594C9.6875 2.5 10.1094 2.75781 10.2969 3.0625L11.0938 4.375H13.0391ZM6.96875 3.625L6.52344 4.375H9.78125L9.33594 3.625H6.96875ZM11.0234 13.375L11.5156 5.5H4.78906L5.28125 13.375H11.0234Z" fill="#EBECEF"/>
</svg>
