<svg width="24" height="25" viewBox="0 0 24 25" fill="none" xmlns="http://www.w3.org/2000/svg">
<path d="M19.0312 15C19.4883 15 19.875 15.3867 19.875 15.8438V18.375C19.875 20.2734 18.3633 21.75 16.5 21.75H7.5C5.60156 21.75 4.125 20.2734 4.125 18.375V15.8438C4.125 15.3867 4.47656 15 4.96875 15C5.42578 15 5.8125 15.3867 5.8125 15.8438V18.375C5.8125 19.3242 6.55078 20.0625 7.5 20.0625H16.5C17.4141 20.0625 18.1875 19.3242 18.1875 18.375V15.8438C18.1875 15.3867 18.5391 15 19.0312 15ZM11.4023 3.99609L6.62109 8.46094C6.26953 8.8125 6.26953 9.33984 6.58594 9.69141C6.90234 10.043 7.42969 10.043 7.78125 9.72656L11.1562 6.5625V15.2812C11.1562 15.7734 11.5078 16.125 12 16.125C12.457 16.125 12.8438 15.7734 12.8438 15.3164V6.5625L16.1836 9.72656C16.5352 10.043 17.0625 10.043 17.3789 9.69141C17.5195 9.51562 17.625 9.30469 17.625 9.09375C17.625 8.88281 17.5195 8.67188 17.3438 8.49609L12.5625 4.03125C12.2461 3.67969 11.7188 3.67969 11.4023 3.99609Z" fill="#292B32"/>
</svg>
