<svg width="21" height="21" viewBox="0 0 21 21" fill="none" xmlns="http://www.w3.org/2000/svg">
<path d="M10.5 2.75C14.7812 2.75 18.25 6.21875 18.25 10.5C18.25 14.7812 14.7812 18.25 10.5 18.25C6.21875 18.25 2.75 14.7812 2.75 10.5C2.75 6.21875 6.21875 2.75 10.5 2.75ZM10.5 16.75C13.9375 16.75 16.75 13.9688 16.75 10.5C16.75 7.0625 13.9375 4.25 10.5 4.25C7.03125 4.25 4.25 7.0625 4.25 10.5C4.25 13.9688 7.03125 16.75 10.5 16.75ZM12.4062 13.5L9.75 11.5625C9.65625 11.5 9.625 11.375 9.625 11.2812V6.125C9.625 5.9375 9.78125 5.75 10 5.75H11C11.1875 5.75 11.375 5.9375 11.375 6.125V10.5625L13.4375 12.0938C13.625 12.2188 13.6562 12.4375 13.5312 12.625L12.9375 13.4062C12.8125 13.5938 12.5938 13.625 12.4062 13.5Z" fill="#292B32"/>
</svg>
