<svg width="20" height="20" viewBox="0 0 20 20" fill="none" xmlns="http://www.w3.org/2000/svg">
<path d="M11.0625 9.09375H11.8594C12.291 9.09375 12.6562 9.45898 12.6562 9.89062V10.6875V11.6504L16.6406 8.03125L12.6562 4.44531V5.375V6.17188C12.6562 6.63672 12.291 6.96875 11.8594 6.96875H11.0625H7.34375C4.98633 6.96875 3.09375 8.89453 3.09375 11.2188C3.09375 11.75 3.12695 12.2148 3.25977 12.6133C3.82422 10.5879 5.65039 9.09375 7.875 9.09375H11.0625ZM11.0625 10.6875V10.7207H9.46875H7.875C6.11523 10.7207 4.6875 12.1484 4.6875 13.9082C4.6875 14.4727 4.82031 14.9043 4.98633 15.2363C5.05273 15.3359 5.08594 15.4023 5.15234 15.502C5.25195 15.6016 5.31836 15.7012 5.41797 15.7676C5.41797 15.8008 5.45117 15.8008 5.45117 15.834C5.61719 16 5.7168 16.1992 5.7168 16.4316C5.7168 16.7969 5.45117 17.0625 5.08594 17.0625C4.98633 17.0625 4.88672 17.0625 4.82031 17.0293C4.7207 16.9629 4.58789 16.8965 4.45508 16.7969C4.35547 16.7305 4.25586 16.6641 4.15625 16.5977C4.02344 16.498 3.89062 16.3984 3.75781 16.2988C2.76172 15.4355 1.5 13.8086 1.5 11.2188C1.5 7.99805 4.08984 5.375 7.34375 5.375H9.46875H11.0625V3.78125V3.25C11.0625 2.85156 11.2949 2.45312 11.6934 2.28711C12.0586 2.12109 12.5234 2.1875 12.8223 2.48633L18.1348 7.26758C18.3672 7.4668 18.5 7.73242 18.5 8.03125C18.5 8.36328 18.3672 8.62891 18.1348 8.82812L12.8223 13.6094C12.5234 13.9082 12.0586 13.9746 11.6934 13.8086C11.2949 13.6426 11.0625 13.2441 11.0625 12.8125V12.2812V10.6875Z" fill="#898E9E"/>
</svg>
