<svg width="21" height="20" viewBox="0 0 21 20" fill="none" xmlns="http://www.w3.org/2000/svg">
<path d="M17.9668 10C17.9668 14.2812 14.4668 17.75 10.2168 17.75C5.93555 17.75 2.4668 14.2812 2.4668 10C2.4668 5.75 5.93555 2.25 10.2168 2.25C14.4668 2.25 17.9668 5.75 17.9668 10ZM10.2168 11.5625C9.4043 11.5625 8.7793 12.2188 8.7793 13C8.7793 13.8125 9.4043 14.4375 10.2168 14.4375C10.998 14.4375 11.6543 13.8125 11.6543 13C11.6543 12.2188 10.998 11.5625 10.2168 11.5625ZM8.8418 6.40625L9.06055 10.6562C9.0918 10.875 9.24805 11 9.43555 11H10.9668C11.1543 11 11.3105 10.875 11.3418 10.6562L11.5605 6.40625C11.5918 6.1875 11.4043 6 11.1855 6H9.2168C8.99805 6 8.81055 6.1875 8.8418 6.40625Z" fill="#6E7487"/>
</svg>
