<svg width="12" height="8" viewBox="0 0 12 8" fill="none" xmlns="http://www.w3.org/2000/svg">
<path d="M2.83594 0.873047C3.08203 1.08398 3.11719 1.43555 2.92383 1.66406C2.37891 2.34961 2.0625 3.19336 2.0625 4.125C2.0625 5.05664 2.37891 5.91797 2.92383 6.58594C3.11719 6.83203 3.06445 7.18359 2.83594 7.37695C2.58984 7.58789 2.23828 7.53516 2.04492 7.28906C1.3418 6.42773 0.9375 5.33789 0.9375 4.125C0.9375 2.92969 1.3418 1.83984 2.04492 0.960938C2.23828 0.732422 2.58984 0.679688 2.83594 0.873047ZM9.14648 0.873047C9.39258 0.679688 9.74414 0.732422 9.9375 0.960938C10.6406 1.83984 11.0625 2.92969 11.0625 4.125C11.0625 5.33789 10.6406 6.42773 9.9375 7.28906C9.74414 7.53516 9.39258 7.57031 9.14648 7.37695C8.91797 7.18359 8.86523 6.83203 9.05859 6.58594C9.60352 5.91797 9.91992 5.05664 9.91992 4.125C9.91992 3.19336 9.60352 2.34961 9.05859 1.66406C8.86523 1.43555 8.91797 1.08398 9.14648 0.873047ZM6.98438 4.125C6.98438 4.66992 6.52734 5.10938 6 5.10938C5.45508 5.10938 5.01562 4.66992 5.01562 4.125C5.01562 3.59766 5.45508 3.14062 6 3.14062C6.52734 3.14062 6.98438 3.59766 6.98438 4.125ZM4.52344 2.82422C4.20703 3.17578 4.03125 3.63281 4.03125 4.125C4.03125 4.63477 4.20703 5.0918 4.52344 5.44336C4.73438 5.67188 4.7168 6.04102 4.48828 6.23438C4.24219 6.44531 3.89062 6.42773 3.67969 6.19922C3.20508 5.6543 2.90625 4.93359 2.90625 4.125C2.90625 3.33398 3.20508 2.61328 3.67969 2.06836C3.89062 1.83984 4.24219 1.82227 4.48828 2.0332C4.7168 2.22656 4.73438 2.5957 4.52344 2.82422ZM8.30273 2.06836C8.79492 2.61328 9.09375 3.33398 9.09375 4.125C9.09375 4.93359 8.79492 5.6543 8.30273 6.19922C8.0918 6.42773 7.74023 6.44531 7.51172 6.23438C7.26562 6.02344 7.24805 5.67188 7.45898 5.44336C7.77539 5.0918 7.96875 4.63477 7.96875 4.125C7.96875 3.63281 7.77539 3.17578 7.45898 2.82422C7.24805 2.57812 7.26562 2.22656 7.51172 2.01562C7.74023 1.82227 8.0918 1.83984 8.30273 2.06836Z" fill="white"/>
</svg>
