<svg width="28" height="28" viewBox="0 0 28 28" fill="none" xmlns="http://www.w3.org/2000/svg">
<path d="M24 14.5C24 20.0469 19.5078 24.5 14 24.5C8.45312 24.5 4 20.0469 4 14.5C4 8.99219 8.45312 4.5 14 4.5C19.5078 4.5 24 8.99219 24 14.5ZM7.59375 9.46094C6.5 10.8672 5.875 12.625 5.875 14.5C5.875 18.9922 9.50781 22.625 14 22.625C15.875 22.625 17.6328 22 19.0391 20.9062L7.59375 9.46094ZM22.125 14.5C22.125 10.0469 18.4531 6.375 14 6.375C12.0859 6.375 10.3281 7.03906 8.92188 8.13281L20.3672 19.5781C21.4609 18.1719 22.125 16.4141 22.125 14.5Z" fill="#292B32"/>
</svg>
