<svg width="29" height="28" viewBox="0 0 29 28" fill="none" xmlns="http://www.w3.org/2000/svg">
<path d="M23.3672 5.63281C23.6797 5.32031 24.1875 5.55469 24.1875 5.94531V11.5312C24.1875 11.8047 23.9531 12 23.7188 12H18.0938C17.7031 12 17.4688 11.5312 17.7812 11.2188L19.8906 9.10938C18.5234 7.70312 16.6094 6.84375 14.5 6.84375C10.2422 6.84375 6.84375 10.2812 6.84375 14.5C6.84375 18.7578 10.2422 22.1562 14.5 22.1562C16.4531 22.1562 18.2109 21.4531 19.5781 20.2422C19.7734 20.0859 20.0469 20.0859 20.2031 20.2422L20.9844 21.0234C21.1797 21.2188 21.1797 21.5312 20.9844 21.7266C19.2656 23.25 16.9609 24.1875 14.5 24.1875C9.14844 24.1875 4.8125 19.8906 4.8125 14.5391C4.77344 9.1875 9.14844 4.8125 14.5 4.8125C17.1562 4.8125 19.5781 5.90625 21.3359 7.66406L23.3672 5.63281Z" fill="white"/>
</svg>
