<svg width="25" height="24" viewBox="0 0 25 24" fill="none" xmlns="http://www.w3.org/2000/svg">
<rect x="5.5" y="5" width="13" height="13" rx="6.5" fill="white"/>
<path d="M21.2188 12.25C21.2188 17.0664 17.2812 20.9688 12.5 20.9688C7.68359 20.9688 3.78125 17.0664 3.78125 12.25C3.78125 7.46875 7.68359 3.53125 12.5 3.53125C17.2812 3.53125 21.2188 7.46875 21.2188 12.25ZM11.4805 16.8906L17.9492 10.4219C18.1602 10.2109 18.1602 9.82422 17.9492 9.61328L17.1406 8.83984C16.9297 8.59375 16.5781 8.59375 16.3672 8.83984L11.0938 14.1133L8.59766 11.6523C8.38672 11.4062 8.03516 11.4062 7.82422 11.6523L7.01562 12.4258C6.80469 12.6367 6.80469 13.0234 7.01562 13.2344L10.6719 16.8906C10.8828 17.1016 11.2695 17.1016 11.4805 16.8906Z" fill="#1054DE"/>
</svg>
