<svg width="40" height="40" viewBox="0 0 40 40" fill="none" xmlns="http://www.w3.org/2000/svg">
<rect width="40" height="40" rx="20" fill="#D9E5FC"/>
<path d="M17.6208 25.5858V21.3249C17.6208 20.3929 18.39 19.6206 19.3184 19.6206H26.9577C27.9126 19.6206 28.6553 20.3929 28.6553 21.3249V25.5858C28.6553 26.5445 27.9126 27.2901 26.9577 27.2901V28.7548C26.9577 28.9678 26.7189 29.0743 26.5598 28.9412L24.3582 27.2901H19.3184C18.39 27.2901 17.6208 26.5445 17.6208 25.5858Z" fill="white"/>
<path d="M26.4319 21.2267V15.3505C26.4319 13.6086 24.9833 12.1888 23.244 12.1888H13.3767C11.592 12.1888 10.1888 13.6169 10.1888 15.3505V21.2267C10.1888 22.7241 11.1892 23.9411 12.5655 24.2886V25.5972C12.5655 26.605 13.7048 27.0664 14.4282 26.4975L17.2831 24.3884H23.244C24.975 24.3884 26.4319 23.0135 26.4319 21.2267Z" fill="white" stroke="#D9E5FC" stroke-width="1.6224"/>
</svg>
