<svg width="24" height="25" viewBox="0 0 24 25" fill="none" xmlns="http://www.w3.org/2000/svg">
<path d="M14.9995 8L7.18934 15.9398C6.90804 16.2211 6.75 16.6026 6.75 17.0005C6.75 17.3983 6.90804 17.7798 7.18934 18.0611C7.47064 18.3424 7.85218 18.5005 8.25 18.5005C8.64783 18.5005 9.02936 18.3424 9.31066 18.0611L18.6208 8.62132C18.8993 8.34274 19.1203 8.01203 19.2711 7.64805C19.4219 7.28407 19.4995 6.89397 19.4995 6.5C19.4995 6.10603 19.4219 5.71593 19.2711 5.35195C19.1203 4.98797 18.8993 4.65726 18.6208 4.37868C18.3422 4.1001 18.0115 3.87913 17.6475 3.72836C17.2835 3.5776 16.8934 3.5 16.4995 3.5C16.1055 3.5 15.7154 3.5776 15.3514 3.72836C14.9874 3.87913 14.6567 4.1001 14.3781 4.37868L5.06802 13.8185C4.22411 14.6624 3.75 15.807 3.75 17.0005C3.75 18.1939 4.22411 19.3385 5.06802 20.1824C5.91193 21.0264 7.05653 21.5005 8.25 21.5005C9.44348 21.5005 10.5881 21.0264 11.432 20.1824L19.1245 12.5" stroke="#292B32" stroke-width="1.3" stroke-linecap="round" stroke-linejoin="round"/>
</svg>
